<?xml version="1.0" encoding="utf-8"?>
<!-- Generator: Adobe Illustrator 24.3.0, SVG Export Plug-In . SVG Version: 6.00 Build 0)  -->
<svg version="1.1" id="Capa_1" xmlns="http://www.w3.org/2000/svg" xmlns:xlink="http://www.w3.org/1999/xlink" x="0px" y="0px"
	 viewBox="0 0 685.6 379.2" style="enable-background:new 0 0 685.6 379.2;" xml:space="preserve">
<style type="text/css">
	.st0{fill:white;}
</style>
<path class="st0" d="M905.5,334.1c-170.3,73.4-275.8,40.2-341.9,13.2c-16.1-6.6-23.2-11.3-41.2-18.9
	c-110.6-46.6-223.1-19.4-300.8,5.7l-0.7-302.5C298.5,6.5,411-20.8,521.6,25.9c18,7.6,25.1,12.4,41.2,18.9
	c66.1,27,171.6,60.2,341.9-13.2L905.5,334.1z"/>
<path class="st0" d="M-121.1,44.8C-55,71.8,50.5,105,220.8,31.6l0.7,302.5c-170.3,73.4-275.8,40.2-341.9,13.2"/>
</svg>
