<svg xmlns="http://www.w3.org/2000/svg" viewBox="0 0 47.28 47.28">
  <path d="M23.64,0A23.64,23.64,0,1,0,47.28,23.64,23.67,23.67,0,0,0,23.64,0Zm12.1,13.1.71-1.24A1.16,1.16,0,0,1,38,11.44h0A1.16,1.16,0,0,1,38.48,13l-.72,1.24a1.16,1.16,0,0,1-1.58.42h0A1.16,1.16,0,0,1,35.74,13.1ZM34.26,18a2,2,0,0,1,2.15-1.44l1,.14a2,2,0,0,0,2-1.12,5.2,5.2,0,0,1,2.83-2.67l.28-.11a21.63,21.63,0,0,1,2.78,8.81l-4.72-2a2,2,0,0,0-2.13.42l-.13.13a2,2,0,0,1-2,.46l-.87-.31A2,2,0,0,1,34.26,18Zm-4.85-7a2.36,2.36,0,0,1-2.25,1.13,2.4,2.4,0,0,0-1.31.24L20.9,14.85a5.6,5.6,0,0,0-2.17,1.93L17.92,18a1,1,0,0,1-1.77-.79l.1-.4a.78.78,0,0,0-1.42-.6l-.53.89a1.92,1.92,0,0,0,.39,2.44l8.85,7.7a3.76,3.76,0,0,1,.84,4.63,2.74,2.74,0,0,1-2.64,1.43,1.34,1.34,0,0,0-1.15.49L16.3,39.1A1.34,1.34,0,0,1,13.94,38l1.51-6.89a2.73,2.73,0,0,0-.62-2.39,4.08,4.08,0,0,1-.56-4.59l.2-.38A1.34,1.34,0,0,0,14,21.95h0A11.65,11.65,0,0,1,8.2,11.9V8.32A21.78,21.78,0,0,1,16.82,3,5.43,5.43,0,0,0,21,5.5l1.86.14A3.71,3.71,0,0,1,24,5.89l4.28,1.68A2.36,2.36,0,0,1,29.41,11Zm5.47,31.32a3.48,3.48,0,0,1-1.19-3.64l1.78-6.52a2.08,2.08,0,0,0-1.12-2.43,4.22,4.22,0,0,1-2-5.71,3.88,3.88,0,0,1,5.31-1.67l3.87,2.1,3.81,1A21.77,21.77,0,0,1,34.88,42.31Z" class="color1" style="fill:white"></path>
</svg>