<svg id="Capa_1" data-name="Capa 1" xmlns="http://www.w3.org/2000/svg" width="51.65967" height="14.40832" viewBox="0 0 51.65967 14.40832">
          <g style="fill: white">
            <path
              d="M54.45459,29.36963l-.37061-.90576.79-.51319L52.54932,22.273l-1.49659.61328.29444,1.0127-1.12793.46191-.86817-2.12061,6.957-2.84863.86816,2.12012-1.12793.46191-.50049-.92822-1.50195.61475,2.32471,5.67724.918-.18554.37061.90527Z"
              transform="translate(-49.35107 -16.125)"
            />
            <path
              d="M59.51074,27.41846l-.27246-.93994.76709-.40528L58.88477,22.207l-.93262.0874-.27393-.9458,2.437-.70605,1.44336,4.98047.85938-.06641.27246.93994Zm-1.38867-7.63184L57.72559,18.419l1.60986-.46631.396,1.36718Z"
              transform="translate(-49.35107 -16.125)"
            />
            <path
              d="M62.93408,26.17432l-.13183-.96924.81836-.28858-.54249-3.98877-.94091-.0498-.13282-.9751,2.39795-.32617.18262.8208a2.12411,2.12411,0,0,1,.66553-.80273,2.22782,2.22782,0,0,1,1.02881-.39112,1.95085,1.95085,0,0,1,1.07617.12842,1.66268,1.66268,0,0,1,.76758.73242,2.22926,2.22926,0,0,1,.64892-.90429,2.06292,2.06292,0,0,1,1.06055-.43995,1.85122,1.85122,0,0,1,1.56152.43555,2.96381,2.96381,0,0,1,.80274,1.86279l.36474,2.68262.86573.05957.13183.96973-3.21094.436-.13183-.96923L70.959,23.919l-.36523-2.68848a1.63514,1.63514,0,0,0-.38281-.98877.8867.8867,0,0,0-.75342-.19287,1.04616,1.04616,0,0,0-.68262.353,1.33757,1.33757,0,0,0-.30664.72168l.418,3.07714.75537.07471.13184.96973-3.05957.41552-.13184-.96923.708-.27393-.36572-2.688A1.62265,1.62265,0,0,0,66.54,20.75a.8918.8918,0,0,0-.76367-.20117,1.32451,1.32451,0,0,0-.64063.24707,1.20547,1.20547,0,0,0-.38037.50683l.46192,3.39649.79.07031.13184.96924Z"
              transform="translate(-49.35107 -16.125)"
            />
            <path
              d="M76.80957,25.15479a3.03169,3.03169,0,0,1-1.56836-.44971,2.73922,2.73922,0,0,1-1.0083-1.13916,3.434,3.434,0,0,1-.31934-1.625l.00733-.23438a3.71983,3.71983,0,0,1,.40869-1.65185,2.81878,2.81878,0,0,1,1.02783-1.11182,2.65364,2.65364,0,0,1,1.49707-.36963,2.83549,2.83549,0,0,1,1.43067.38379,2.19291,2.19291,0,0,1,.86035,1.00586,3.56035,3.56035,0,0,1,.25683,1.54981l-.02832.896-3.79443-.11719-.01318.03467a2.12817,2.12817,0,0,0,.18652.80567,1.3236,1.3236,0,0,0,.4873.56347,1.50434,1.50434,0,0,0,.79.22364,3.00289,3.00289,0,0,0,.90235-.10108,3.24214,3.24214,0,0,0,.7998-.34473l.43164,1.01563a3.26386,3.26386,0,0,1-.99218.49707A4.004,4.004,0,0,1,76.80957,25.15479Zm-1.17871-3.95215,2.249.06933.00391-.15234a1.92635,1.92635,0,0,0-.08984-.69434.92228.92228,0,0,0-.33692-.46484,1.09646,1.09646,0,0,0-.61621-.18018.96743.96743,0,0,0-.59961.166,1.24343,1.24343,0,0,0-.4082.49463,2.61638,2.61638,0,0,0-.21924.73193Z"
              transform="translate(-49.35107 -16.125)"
            />
            <path
              d="M79.80078,25.20117l.124-.9707.86524-.06641.86523-6.771-.8955-.292.125-.97607,2.52246.32227-1.01368,7.92187.81446.28174-.124.97021Z"
              transform="translate(-49.35107 -16.125)"
            />
            <path
              d="M83.50391,25.69385l.19629-.959.86718-.00146.80762-3.94385-.86621-.35644.19726-.96485,2.48536.50879-1.03907,5.08057.791.34131-.19629.95849ZM85.82617,18.292l.28516-1.39453,1.6416.33594-.28516,1.395Z"
              transform="translate(-49.35107 -16.125)"
            />
            <path
              d="M87.08984,26.34277l.30176-.93066.85645.09326,1.24121-3.82959L88.669,21.2251l.30371-.93653,2.30175.74659-.209.89306a2.29148,2.29148,0,0,1,.97852-.4834,2.08245,2.08245,0,0,1,1.09472.07178,1.89844,1.89844,0,0,1,1.23828,1.03565,2.78826,2.78826,0,0,1-.07226,1.96L93.4375,27.1875l.74805.42773-.30176.93067-3.07715-.99756.30274-.93066.78906.07128.86621-2.66992a1.35831,1.35831,0,0,0,.03906-.98486,1.04352,1.04352,0,0,0-.668-.5127,1.33244,1.33244,0,0,0-.69922-.04785,1.36046,1.36046,0,0,0-.60351.30323l-1.04688,3.22705.64258.39306-.30176.93115Z"
              transform="translate(-49.35107 -16.125)"
            />
            <path
              d="M96.77344,30.11377a3.03228,3.03228,0,0,1-1.252-1.04639,2.73614,2.73614,0,0,1-.46093-1.4497,3.43183,3.43183,0,0,1,.36523-1.61524l.10156-.21142a3.731,3.731,0,0,1,1.042-1.34522,2.82545,2.82545,0,0,1,1.38964-.60059,2.65309,2.65309,0,0,1,1.51954.26758,2.83742,2.83742,0,0,1,1.15234.93018,2.194,2.194,0,0,1,.37988,1.26758,3.5597,3.5597,0,0,1-.39258,1.521l-.38769.8086-3.42285-1.64307-.02637.02637a2.12529,2.12529,0,0,0-.15527.8125,1.324,1.324,0,0,0,.21679.71191,1.50972,1.50972,0,0,0,.63184.52442,3.01768,3.01768,0,0,0,.86719.27294,3.24111,3.24111,0,0,0,.87011.00831l-.0166,1.10351a3.25615,3.25615,0,0,1-1.10742.05322A4.018,4.018,0,0,1,96.77344,30.11377Zm.52148-4.0918,2.02832.97364.06641-.13721a1.95613,1.95613,0,0,0,.19824-.67139.9264.9264,0,0,0-.12012-.56152,1.09833,1.09833,0,0,0-.49023-.41406.969.969,0,0,0-.61621-.09082,1.24418,1.24418,0,0,0-.57324.28662,2.59946,2.59946,0,0,0-.4961.58105Z"
              transform="translate(-49.35107 -16.125)"
            />
          </g>
        </svg>