<svg id="Capa_1" data-name="Capa 1" xmlns="http://www.w3.org/2000/svg" xmlns:xlink="http://www.w3.org/1999/xlink" width="447.6068" height="511.70037" viewBox="0 0 447.6068 511.70037">
  <defs>
    <style>
      .cls-1 {
        fill: none;
      }

      .cls-2 {
        clip-path: url(#clip-path);
      }

      .cls-3 {
        fill: #f86d31;
      }
    </style>
    <clipPath id="clip-path" transform="translate(-32.50591 -0.30142)">
      <rect class="cls-1" x="32.44327" y="0.30485" width="447.73326" height="511.69515"/>
    </clipPath>
  </defs>
  <g class="cls-2">
    <path class="cls-3" d="M382.28173,401.00389h-3.91486a12.9746,12.9746,0,0,0-13.38629,13.4157,68.09369,68.09369,0,0,1-68.57477,72.39411h-3.28346a24.16162,24.16162,0,0,1-23.99456-24.17362V374.046a49.52852,49.52852,0,0,0,26.01523,7.34042,51.50092,51.50092,0,0,0,51.2731-52.01745,12.62868,12.62868,0,1,0-25.25735,0,26.14321,26.14321,0,1,1-52.15747,0V49.79073a24.13409,24.13409,0,0,1,23.99456-24.17349,72.98736,72.98736,0,0,1,71.98472,63.2817,96.20591,96.20591,0,0,0-52.66238,27.33762,12.64974,12.64974,0,1,0,17.93307,17.84562,69.85811,69.85811,0,0,1,112.56,17.91953,72.96231,72.96231,0,0,1-23.40064,92.57011,12.79,12.79,0,0,0,.50491,21.2626,72.89077,72.89077,0,0,1-37.88629,135.16947ZM219.74887,486.68722a73.1399,73.1399,0,0,1-72.86857-73.02707,12.63527,12.63527,0,0,0-12.62841-12.65626,72.93506,72.93506,0,0,1-45.46406-129.7274,97.81037,97.81037,0,0,0,83.47631-7.08745,12.64856,12.64856,0,0,0-12.62841-21.89529,72.98349,72.98349,0,0,1-68.32232,2.65754h-.88385A72.76165,72.76165,0,0,1,130.589,111.3007h3.91537A12.77782,12.77782,0,0,0,147.76467,97.885a68.09422,68.09422,0,0,1,68.57425-72.26776h3.28346A24.29012,24.29012,0,0,1,243.744,49.79073v88.59436a51.18786,51.18786,0,0,0-77.5413,44.17056,12.62894,12.62894,0,1,0,25.25787,0,26.14172,26.14172,0,1,1,52.28343,0v279.958a24.26023,24.26023,0,0,1-24.12157,24.17362ZM447.06761,254.44355a98.198,98.198,0,0,0-56.7032-167.82268A97.99413,97.99413,0,0,0,292.99586.30485a48.82528,48.82528,0,0,0-36.623,16.70619A49.33511,49.33511,0,0,0,219.62238.30485h-3.28346a93.23631,93.23631,0,0,0-93.57966,85.9363A98.39948,98.39948,0,0,0,65.55115,257.86078a98.32482,98.32482,0,0,0,56.7032,167.82294,98.24733,98.24733,0,0,0,97.368,86.316,49.33536,49.33536,0,0,0,36.7505-16.70645,48.82553,48.82553,0,0,0,36.623,16.70645h3.28346a93.35391,93.35391,0,0,0,68.32232-29.10948A92.10646,92.10646,0,0,0,389.859,426.06344a98.40032,98.40032,0,0,0,57.20863-171.61989Z" transform="translate(-32.50591 -0.30142)"/>
  </g>
</svg>
