<svg xmlns="http://www.w3.org/2000/svg" width="430" height="430" style="width:100%;height:100%;transform:translate3d(0,0,0);content-visibility:visible" viewBox="0 0 430 430"><defs><clipPath id="a"><path d="M0 0h430v430H0z"/></clipPath><clipPath id="c"><path d="M0 0h430v430H0z"/></clipPath><clipPath id="b"><path d="M0 0h430v430H0z"/></clipPath></defs><g clip-path="url(#a)"><g clip-path="url(#b)" style="display:block"><path fill="#636D78" d="M133.435 109.748v47.37a3 3 0 0 1-3 3h-260.87a3 3 0 0 1-3-3v-47.37a3 3 0 0 1 3-3h21.27v-143.74c0-9.05 7.33-16.38 16.37-16.38a16.3 16.3 0 0 0 11.58-4.8c2.96-2.96 4.8-7.05 4.8-11.57v-12.98c0-42.02 33.51-76.91 75.52-77.39 21.46-.25 40.91 8.36 54.94 22.37 13.83 13.84 22.38 32.94 22.38 54.04v13.504c0 8.991 7.349 16.842 16.34 16.826a16.32 16.32 0 0 1 11.61 4.8 16.3 16.3 0 0 1 4.8 11.58v143.74h21.26a3 3 0 0 1 3 3" class="tertiary" style="display:block" transform="translate(214.998 215)"/><path fill="#EBE6EE" d="M53.375-59.03V59.03a3 3 0 0 1-3 3h-100.75a3 3 0 0 1-3-3V-59.03a3 3 0 0 1 3-3h100.75a3 3 0 0 1 3 3" class="secondary" style="display:block" transform="translate(214.998 230.028)"/><g opacity=".5" style="mix-blend-mode:multiply;display:block"><path fill="#636D78" d="M348.437 324.748v47.37a3 3 0 0 1-3 3h-260.8a3 3 0 0 1-3-3v-47.37a3 3 0 0 1 3-3h21.27v-143.74c0-9.05 7.33-16.38 16.37-16.38a16.3 16.3 0 0 0 11.58-4.8c2.96-2.96 4.8-7.05 4.8-11.57v-12.98c0-42.02 33.51-76.91 75.52-77.39 13.55-.16 26.29 3.22 37.38 9.25a77 77 0 0 0-15.82-1.45c-42.01.48-75.52 35.37-75.52 77.39v12.98c0 4.52-1.84 8.61-4.8 11.57a16.3 16.3 0 0 1-11.651 4.8c-9.075-.038-16.299 7.67-16.299 16.745v135.575h217.97a3 3 0 0 1 3 3" class="tertiary" opacity="1"/></g><g opacity=".5" style="mix-blend-mode:multiply;display:block"><path fill="#EBE6EE" d="M185.013 167.998v124.06h-20.39a3 3 0 0 1-3-3v-118.06a3 3 0 0 1 3-3z" class="secondary" opacity="1"/></g><path fill="none" stroke="#393346" stroke-linecap="round" stroke-linejoin="round" stroke-width="7" d="M-28.177 0h56.354" class="primary" style="display:block" transform="translate(215 203.697)"/><path fill="none" stroke="#393346" stroke-linecap="round" stroke-linejoin="round" stroke-width="7" d="M-28.177 0h56.354" class="primary" style="display:block" transform="translate(215 256.364)"/><path fill="none" stroke="#393346" stroke-linecap="round" stroke-linejoin="round" stroke-width="7" d="M-11.51 0h23.02" class="primary" style="display:block" transform="translate(198.334 230.03)"/><path fill="none" stroke="#393346" stroke-linecap="round" stroke-linejoin="round" stroke-width="7" d="M-5.166 0H5.166" class="primary" style="display:block" transform="translate(238.01 230.03)"/><path fill="none" stroke="#393346" stroke-linecap="round" stroke-linejoin="round" stroke-width="7" d="M535.757 104.331 560.5 110.5m18.343-17.714L560.5 110.5" class="primary" style="display:block"/></g><g clip-path="url(#c)" style="display:none"><path class="tertiary" style="display:none"/><path class="secondary" style="display:none"/><path class="tertiary" style="mix-blend-mode:multiply;display:none"/><path class="secondary" style="mix-blend-mode:multiply;display:none"/><g fill="none" style="display:none"><path class="primary"/><path class="primary"/><path class="primary"/><path class="primary"/></g></g></g></svg>