<?xml version="1.0" encoding="UTF-8" standalone="no"?>

<!-- Created with Inkscape (http://www.inkscape.org/) -->


<svg
   xmlns:dc="http://purl.org/dc/elements/1.1/"
   xmlns:cc="http://creativecommons.org/ns#"
   xmlns:rdf="http://www.w3.org/1999/02/22-rdf-syntax-ns#"
   xmlns:svg="http://www.w3.org/2000/svg"
   xmlns="http://www.w3.org/2000/svg"
   xmlns:sodipodi="http://sodipodi.sourceforge.net/DTD/sodipodi-0.dtd"
   xmlns:inkscape="http://www.inkscape.org/namespaces/inkscape"
   width="500"
   height="500"
   id="svg2"
   version="1.1"
   inkscape:version="0.47 r22583"
>


  <rect

     style="fill:#ffffff"

     width="500"

     height="500"

     x="0"

     y="0"

     id="tela" />

  <path

     sodipodi:type="arc"

     style="fill:#da121a;stroke:#000000;stroke-width:1;"

     sodipodi:cx="250"

     sodipodi:cy="250"

     sodipodi:rx="170"

     sodipodi:ry="170"

     d="m 420,250 a 170,170 0 1 1 -340,0 170,170 0 1 1 340,0 z"


     id="arco_rojo" />

  <path


     sodipodi:type="arc"

     style="fill:#fcdd09;stroke:#000000;stroke-width:1"

     sodipodi:rx="160"

     sodipodi:ry="160"

     sodipodi:cy="250"

     sodipodi:cx="250"

     d="m 410,250 a 160,160 0 1 1 -320,0 160,160 0 1 1 320,0 z"

     id="arco_amarillo" />

  <path


     sodipodi:type="arc"

     style="fill:#078930;stroke:#000000;stroke-width:1"

     sodipodi:rx="150"

     sodipodi:ry="150"

     sodipodi:cy="250"

     sodipodi:cx="250"

     d="m 400,250 a 150,150 0 1 1 -300,0 150,150 0 1 1 300,0 z"

     id="arco_verde" />

  <path

     d="m 390,250 a 140,140 0 1 1 -280,0 140,140 0 1 1 280,0 z"

     sodipodi:rx="140"

     sodipodi:ry="140"

     sodipodi:cy="250"

     sodipodi:cx="250"

     style="fill:#ffffff;fill-opacity:1;stroke:#000000;stroke-opacity:1"

     sodipodi:type="arc"

     id="circulo_blanco" />

  <path

     d="m 429.31505,265.68803 a 180,180 0 0 1 -358.630096,0"

     sodipodi:ry="180"

     sodipodi:rx="180"

     sodipodi:cy="250"

     sodipodi:cx="250"

     style="fill:#ffffff;fill-opacity:1;stroke:none"

     sodipodi:type="arc"

     sodipodi:start="0.087266463"

     sodipodi:end="3.0543262"

     sodipodi:open="true"

     id="path19" />

  <path
     style="fill:#fbbb00;fill-opacity:1;stroke:#000000;stroke-width:1;stroke-miterlimit:4;stroke-opacity:1;stroke-dasharray:none"
     d="m 45,100 c -25.812251,0 -17.99109,45.92726 -12.84375,62.96875 L 40.625,190.625 c 2.932552,9.57678 5.9375,16.56779 9.84375,21.46875 3.90625,4.90096 5.78125,8.15079 5.78125,9.78125 0,1.63047 -2.865522,9.28099 -6.4375,15.09375 -3.571978,5.81276 -4.769752,6.87575 -7.15625,10.3125 -2.821639,4.06339 -4.228228,5.28681 -8.46875,12.1875 C 29.946978,266.36944 25,274.35928 25,284.375 c 0,10.01572 4.946978,18.00555 9.1875,24.90625 4.240522,6.9007 5.647111,8.12411 8.46875,12.1875 2.386498,3.43675 3.584272,4.49974 7.15625,10.3125 3.571978,5.81276 6.4375,13.46328 6.4375,15.09375 0,1.63047 -2.865522,9.28099 -6.4375,15.09375 -3.571978,5.81276 -4.769752,6.87575 -7.15625,10.3125 -2.821639,4.06339 -4.228228,5.2868 -8.46875,12.1875 C 29.946978,391.36945 25,399.35928 25,409.375 c 0,10.01572 4.946978,18.00556 9.1875,24.90625 4.240522,6.90069 5.388442,8.31652 8.46875,12.1875 C 44.18614,448.39134 47.542988,450 50,450 c 2.504361,0 3.921158,-0.50136 5.843747,-2.03125 1.92259,-1.52989 3.203542,-3.84182 3.481223,-6.28309 0.277681,-2.44127 -0.45133,-4.98182 -1.98122,-6.90441 -2.605276,-3.27401 -3.584272,-4.49974 -7.15625,-10.3125 C 46.615522,418.65599 43.75,411.00547 43.75,409.375 c 0,-1.63046 2.865522,-9.28099 6.4375,-15.09375 3.571978,-5.81276 4.769752,-6.87575 7.15625,-10.3125 2.821639,-4.06339 4.228228,-5.28681 8.46875,-12.1875 C 70.053022,364.88056 75,356.89072 75,346.875 c 0,-10.01572 -4.946978,-18.00556 -9.1875,-24.90625 -4.240522,-6.90069 -5.647111,-8.12411 -8.46875,-12.1875 -2.386498,-3.43675 -3.584272,-4.49974 -7.15625,-10.3125 C 46.615522,293.65599 43.75,286.00546 43.75,284.375 c 0,-1.63047 2.865522,-9.28099 6.4375,-15.09375 3.571978,-5.81276 4.769752,-6.87575 7.15625,-10.3125 2.821639,-4.06339 4.228228,-5.28681 8.46875,-12.1875 C 70.053022,239.88056 75,231.89072 75,221.875 75,211.85928 69.111721,205.2674 65.15625,200.40625 55.618874,188.68511 54.57397,174.74516 59.375,160.84375 61.285828,155.53933 73.6714,112.7947 63.241453,110 52.811506,107.2053 59.018008,131.65239 52.851204,130 43.191946,127.41181 61.751034,100 45,100 z"
     sodipodi:nodetypes="ccssssssssssssssssssssssssssssssssssssczss"
     id="path15" />

  <path
     sodipodi:type="arc"
     style="fill:#ffffff;fill-opacity:1;stroke:#000000;stroke-opacity:1"
     sodipodi:cy="130"
     sodipodi:rx="5"
     sodipodi:ry="5"
     d="m 40,130 a 5,5 0 1 1 -10,0 5,5 0 1 1 10,0 z"
     sodipodi:cx="35"
     id="path21" />
  <path
     sodipodi:nodetypes="ccssssssssssssssssssssssssssssssssssssczss"
     d="m 455,100 c 25.81225,0 17.99109,45.92726 12.84375,62.96875 L 459.375,190.625 c -2.93255,9.57678 -5.9375,16.56779 -9.84375,21.46875 -3.90625,4.90096 -5.78125,8.15079 -5.78125,9.78125 0,1.63047 2.86552,9.28099 6.4375,15.09375 3.57198,5.81276 4.76975,6.87575 7.15625,10.3125 2.82164,4.06339 4.22823,5.28681 8.46875,12.1875 4.24052,6.90069 9.1875,14.89053 9.1875,24.90625 0,10.01572 -4.94698,18.00555 -9.1875,24.90625 -4.24052,6.9007 -5.64711,8.12411 -8.46875,12.1875 -2.3865,3.43675 -3.58427,4.49974 -7.15625,10.3125 -3.57198,5.81276 -6.4375,13.46328 -6.4375,15.09375 0,1.63047 2.86552,9.28099 6.4375,15.09375 3.57198,5.81276 4.76975,6.87575 7.15625,10.3125 2.82164,4.06339 4.22823,5.2868 8.46875,12.1875 4.24052,6.9007 9.1875,14.89053 9.1875,24.90625 0,10.01572 -4.94698,18.00556 -9.1875,24.90625 -4.24052,6.90069 -5.38844,8.31652 -8.46875,12.1875 C 455.81386,448.39134 452.45701,450 450,450 c -2.50436,0 -3.92116,-0.50136 -5.84375,-2.03125 -1.92259,-1.52989 -3.20354,-3.84182 -3.48122,-6.28309 -0.27768,-2.44127 0.45133,-4.98182 1.98122,-6.90441 2.60528,-3.27401 3.58427,-4.49974 7.15625,-10.3125 3.57198,-5.81276 6.4375,-13.46328 6.4375,-15.09375 0,-1.63046 -2.86552,-9.28099 -6.4375,-15.09375 -3.57198,-5.81276 -4.76975,-6.87575 -7.15625,-10.3125 -2.82164,-4.06339 -4.22823,-5.28681 -8.46875,-12.1875 C 429.94698,364.88056 425,356.89072 425,346.875 c 0,-10.01572 4.94698,-18.00556 9.1875,-24.90625 4.24052,-6.90069 5.64711,-8.12411 8.46875,-12.1875 2.3865,-3.43675 3.58427,-4.49974 7.15625,-10.3125 3.57198,-5.81276 6.4375,-13.46329 6.4375,-15.09375 0,-1.63047 -2.86552,-9.28099 -6.4375,-15.09375 -3.57198,-5.81276 -4.76975,-6.87575 -7.15625,-10.3125 -2.82164,-4.06339 -4.22823,-5.28681 -8.46875,-12.1875 C 429.94698,239.88056 425,231.89072 425,221.875 c 0,-10.01572 5.88828,-16.6076 9.84375,-21.46875 9.53738,-11.72114 10.58228,-25.66109 5.78125,-39.5625 -1.91083,-5.30442 -14.2964,-48.04905 -3.86645,-50.84375 10.42994,-2.7947 4.22344,21.65239 10.39025,20 9.65925,-2.58819 -8.89983,-30 7.8512,-30 z"
     style="fill:#fbbb00;fill-opacity:1;stroke:#000000;stroke-width:1;stroke-miterlimit:4;stroke-opacity:1;stroke-dasharray:none"
     id="path23" />

  <path
     sodipodi:cx="35"
     d="m 40,130 a 5,5 0 1 1 -10,0 5,5 0 1 1 10,0 z"
     sodipodi:ry="5"
     sodipodi:rx="5"
     sodipodi:cy="130"
     style="fill:#ffffff;fill-opacity:1;stroke:#000000;stroke-opacity:1"
     sodipodi:type="arc"
     transform="matrix(-1,0,0,1,500,0)"
     id="path25" />
  <g
     id="g2906">

    <rect
       id="rect27"
       y="220"
       x="220"
       height="50"
       width="60"
       style="fill:#da121a;fill-opacity:1;stroke:#000000;stroke-width:1;stroke-linecap:round;stroke-linejoin:round;stroke-miterlimit:4;stroke-opacity:1;stroke-dasharray:none;stroke-dashoffset:0" />

    <path
       id="path3687"
       d="m 250,143.71875 c -20.16396,0 -38.42674,3.56648 -51.78125,9.40625 -6.67726,2.91989 -12.11635,6.39214 -15.96875,10.375 -3.8524,3.98286 -6.125,8.54156 -6.125,13.375 0,4.83344 2.2726,9.39214 6.125,13.375 3.8524,3.98286 9.29149,7.45511 15.96875,10.375 13.35451,5.83977 31.61729,9.40625 51.78125,9.40625 20.16396,0 38.42674,-3.56648 51.78125,-9.40625 6.67726,-2.91989 12.1476,-6.39214 16,-10.375 3.8524,-3.98286 6.09375,-8.54156 6.09375,-13.375 0,-4.83344 -2.24135,-9.39214 -6.09375,-13.375 -3.8524,-3.98286 -9.32274,-7.45511 -16,-10.375 C 288.42674,147.28523 270.16396,143.71875 250,143.71875 z m 0,3 c 19.80947,0 37.75247,3.54091 50.59375,9.15625 6.42064,2.80767 11.55857,6.12846 15.03125,9.71875 3.47268,3.59029 5.25,7.37473 5.25,11.28125 0,3.90652 -1.77732,7.69096 -5.25,11.28125 -3.47268,3.59029 -8.61061,6.91108 -15.03125,9.71875 -12.84128,5.61534 -30.78428,9.15625 -50.59375,9.15625 -19.80947,0 -37.72122,-3.54091 -50.5625,-9.15625 -6.42064,-2.80767 -11.55857,-6.12846 -15.03125,-9.71875 -3.47268,-3.59029 -5.28125,-7.37473 -5.28125,-11.28125 0,-3.90652 1.80857,-7.69096 5.28125,-11.28125 3.47268,-3.59029 8.61061,-6.91108 15.03125,-9.71875 12.84128,-5.61534 30.75303,-9.15625 50.5625,-9.15625 z"
       style="font-size:medium;font-style:normal;font-variant:normal;font-weight:normal;font-stretch:normal;text-indent:0;text-align:start;text-decoration:none;line-height:normal;letter-spacing:normal;word-spacing:normal;text-transform:none;direction:ltr;block-progression:tb;writing-mode:lr-tb;text-anchor:start;color:#000000;fill:#fbbb00;fill-opacity:1;stroke:#000000;stroke-width:1;stroke-miterlimit:4;stroke-opacity:1;stroke-dasharray:none;marker:none;visibility:visible;display:inline;overflow:visible;enable-background:accumulate;font-family:Bitstream Vera Sans;-inkscape-font-specification:Bitstream Vera Sans" />

    <path
       id="path3651"
       d="m 224.18878,230.87638 c 0,4.15689 0,8.31377 0,12.47065 0,5.02291 0,10.0458 0,15.0687 0,1.38562 0,2.77126 0,4.15688 0,0.27172 0.0645,1.94182 0,2.07844 -0.10339,0.21909 -0.38705,0.30053 -0.49044,0.51961 -0.0731,0.15492 0,0.34641 0,0.51961 0,0.3683 0.0634,2.98332 0,3.11766 -0.60605,1.28417 -0.49045,-0.17935 -0.49045,1.03923"
       style="fill:none;stroke:#000000;stroke-width:1.02876723px;stroke-linecap:butt;stroke-linejoin:miter;stroke-opacity:1" />
    <path
       style="fill:none;stroke:#000000;stroke-width:1.02876723px;stroke-linecap:butt;stroke-linejoin:miter;stroke-opacity:1"
       d="m 232.18419,230.87638 c 0,4.15689 0,8.31377 0,12.47065 0,5.02291 0,10.0458 0,15.0687 0,1.38562 0,2.77126 0,4.15688 0,0.27172 0.0645,1.94182 0,2.07844 -0.10339,0.21909 -0.38705,0.30053 -0.49045,0.51961 -0.0731,0.15492 0,0.34641 0,0.51961 0,0.3683 0.0634,2.98332 0,3.11766 -0.60604,1.28417 -0.49044,-0.17935 -0.49044,1.03923"
       id="path3653" />

    <path
       id="path3655"
       d="m 239.49536,230.87638 c 0,4.15689 0,8.31377 0,12.47065 0,5.02291 0,10.0458 0,15.0687 0,1.38562 0,2.77126 0,4.15688 0,0.27172 0.0645,1.94182 0,2.07844 -0.10338,0.21909 -0.38705,0.30053 -0.49044,0.51961 -0.0731,0.15492 0,0.34641 0,0.51961 0,0.3683 0.0634,2.98332 0,3.11766 -0.60604,1.28417 -0.49045,-0.17935 -0.49045,1.03923"
       style="fill:none;stroke:#000000;stroke-width:1.02876723px;stroke-linecap:butt;stroke-linejoin:miter;stroke-opacity:1" />

    <path
       style="fill:none;stroke:#000000;stroke-width:1.02876723px;stroke-linecap:butt;stroke-linejoin:miter;stroke-opacity:1"
       d="m 237.49641,230.87638 c 0,4.15689 0,8.31377 0,12.47065 0,5.02291 0,10.0458 0,15.0687 0,1.38562 0,2.77126 0,4.15688 0,0.27172 0.0645,1.94182 0,2.07844 -0.10339,0.21909 -0.38705,0.30053 -0.49045,0.51961 -0.0731,0.15492 0,0.34641 0,0.51961 0,0.3683 0.0634,2.98332 0,3.11766 -0.60604,1.28417 -0.49044,-0.17935 -0.49044,1.03923"
       id="path3657" />

    <path
       id="path3659"
       d="m 263.4824,230.87638 c 0,4.15689 0,8.31377 0,12.47065 0,5.02291 0,10.0458 0,15.0687 0,1.38562 0,2.77126 0,4.15688 0,0.27172 0.0645,1.94182 0,2.07844 -0.10338,0.21909 -0.38704,0.30053 -0.49044,0.51961 -0.0731,0.15492 0,0.34641 0,0.51961 0,0.3683 0.0634,2.98332 0,3.11766 -0.60604,1.28417 -0.49044,-0.17935 -0.49044,1.03923"
       style="fill:none;stroke:#000000;stroke-width:1.02876723px;stroke-linecap:butt;stroke-linejoin:miter;stroke-opacity:1" />

    <path
       style="fill:none;stroke:#000000;stroke-width:1.02876723px;stroke-linecap:butt;stroke-linejoin:miter;stroke-opacity:1"
       d="m 254.80235,230.87638 c 0,4.15689 0,8.31377 0,12.47065 0,5.02291 0,10.0458 0,15.0687 0,1.38562 0,2.77126 0,4.15688 0,0.27172 0.0645,1.94182 0,2.07844 -0.10338,0.21909 -0.38704,0.30053 -0.49044,0.51961 -0.0731,0.15492 0,0.34641 0,0.51961 0,0.3683 0.0634,2.98332 0,3.11766 -0.60604,1.28417 -0.49044,-0.17935 -0.49044,1.03923"
       id="path3661" />

    <path
       style="fill:none;stroke:#000000;stroke-width:1.02876723px;stroke-linecap:butt;stroke-linejoin:miter;stroke-opacity:1"
       d="m 229.50059,230.87638 c 0,4.15689 0,8.31377 0,12.47065 0,5.02291 0,10.0458 0,15.0687 0,1.38562 0,2.77126 0,4.15688 0,0.27172 0.0645,1.94182 0,2.07844 -0.10339,0.21909 -0.38705,0.30053 -0.49044,0.51961 -0.0731,0.15492 0,0.34641 0,0.51961 0,0.3683 0.0634,2.98332 0,3.11766 -0.60605,1.28417 -0.49045,-0.17935 -0.49045,1.03923"
       id="path3663" />

    <path
       id="path3665"
       d="m 243.49286,230.87638 c 0,4.15689 0,8.31377 0,12.47065 0,5.02291 0,10.0458 0,15.0687 0,1.38562 0,2.77126 0,4.15688 0,0.27172 0.0645,1.94182 0,2.07844 -0.10339,0.21909 -0.38705,0.30053 -0.49044,0.51961 -0.0731,0.15492 0,0.34641 0,0.51961 0,0.3683 0.0634,2.98332 0,3.11766 -0.60605,1.28417 -0.49045,-0.17935 -0.49045,1.03923"
       style="fill:none;stroke:#000000;stroke-width:1.02876723px;stroke-linecap:butt;stroke-linejoin:miter;stroke-opacity:1" />

    <path
       style="fill:none;stroke:#000000;stroke-width:1.02876723px;stroke-linecap:butt;stroke-linejoin:miter;stroke-opacity:1"
       d="m 244.80717,230.87638 c 0,4.15689 0,8.31377 0,12.47065 0,5.02291 0,10.0458 0,15.0687 0,1.38562 0,2.77126 0,4.15688 0,0.27172 0.0645,1.94182 0,2.07844 -0.10338,0.21909 -0.38704,0.30053 -0.49044,0.51961 -0.0731,0.15492 0,0.34641 0,0.51961 0,0.3683 0.0634,2.98332 0,3.11766 -0.60604,1.28417 -0.49044,-0.17935 -0.49044,1.03923"
       id="path3667" />

    <path
       id="path3669"
       d="m 250.80404,230.87638 c 0,4.15689 0,8.31377 0,12.47065 0,5.02291 0,10.0458 0,15.0687 0,1.38562 0,2.77126 0,4.15688 0,0.27172 0.0645,1.94182 0,2.07844 -0.10339,0.21909 -0.38705,0.30053 -0.49045,0.51961 -0.0731,0.15492 0,0.34641 0,0.51961 0,0.3683 0.0634,2.98332 0,3.11766 -0.60604,1.28417 -0.49044,-0.17935 -0.49044,1.03923"
       style="fill:none;stroke:#000000;stroke-width:1.02876723px;stroke-linecap:butt;stroke-linejoin:miter;stroke-opacity:1" />

    <path
       style="fill:none;stroke:#000000;stroke-width:1.02876723px;stroke-linecap:butt;stroke-linejoin:miter;stroke-opacity:1"
       d="m 266.79526,230.87638 c 0,4.15689 0,8.31377 0,12.47065 0,5.02291 0,10.0458 0,15.0687 0,1.38562 0,2.77126 0,4.15688 0,0.27172 0.0645,1.94182 0,2.07844 -0.10339,0.21909 -0.38705,0.30053 -0.49044,0.51961 -0.0731,0.15492 0,0.34641 0,0.51961 0,0.3683 0.0634,2.98332 0,3.11766 -0.60605,1.28417 -0.49045,-0.17935 -0.49045,1.03923"
       id="path3671" />

    <path
       id="path3673"
       d="m 260.11417,230.87638 c 0,4.15689 0,8.31377 0,12.47065 0,5.02291 0,10.0458 0,15.0687 0,1.38562 0,2.77126 0,4.15688 0,0.27172 0.0645,1.94182 0,2.07844 -0.10339,0.21909 -0.38705,0.30053 -0.49045,0.51961 -0.0731,0.15492 0,0.34641 0,0.51961 0,0.3683 0.0634,2.98332 0,3.11766 -0.60604,1.28417 -0.49044,-0.17935 -0.49044,1.03923"
       style="fill:none;stroke:#000000;stroke-width:1.02876723px;stroke-linecap:butt;stroke-linejoin:miter;stroke-opacity:1" />

    <path
       id="path3675"
       d="m 261.48386,230.87684 c 0,4.15689 0,8.31377 0,12.47065 0,5.0229 0,10.04579 0,15.0687 0,1.38562 0,2.77125 0,4.15688 0,0.27171 0.0645,1.94182 0,2.07844 -0.10339,0.21909 -0.38705,0.30053 -0.49044,0.51961 -0.0731,0.15492 0,0.34641 0,0.51961 0,0.3683 0.0634,2.98331 0,3.11766 -0.60605,1.28416 -0.49045,-0.17935 -0.49045,1.03923"
       style="fill:none;stroke:#000000;stroke-width:1.02876723px;stroke-linecap:butt;stroke-linejoin:miter;stroke-opacity:1" />

    <path
       style="fill:none;stroke:#000000;stroke-width:1.02876723px;stroke-linecap:butt;stroke-linejoin:miter;stroke-opacity:1"
       d="m 227.50123,230.87684 c 0,4.15689 0,8.31377 0,12.47065 0,5.0229 0,10.04579 0,15.0687 0,1.38562 0,2.77125 0,4.15688 0,0.27171 0.0645,1.94182 0,2.07844 -0.10339,0.21909 -0.38705,0.30053 -0.49045,0.51961 -0.0731,0.15492 0,0.34641 0,0.51961 0,0.3683 0.0634,2.98331 0,3.11766 -0.60604,1.28416 -0.49044,-0.17935 -0.49044,1.03923"
       id="path3677" />

    <path
       id="path3679"
       d="m 222.81909,230.87684 c 0,4.15689 0,8.31377 0,12.47065 0,5.0229 0,10.04579 0,15.0687 0,1.38562 0,2.77125 0,4.15688 0,0.27171 0.0645,1.94182 0,2.07844 -0.10339,0.21909 -0.38705,0.30053 -0.49045,0.51961 -0.0731,0.15492 0,0.34641 0,0.51961 0,0.3683 0.0634,2.98331 0,3.11766 -0.60604,1.28416 -0.49044,-0.17935 -0.49044,1.03923"
       style="fill:none;stroke:#000000;stroke-width:1.02876723px;stroke-linecap:butt;stroke-linejoin:miter;stroke-opacity:1" />

    <path
       style="fill:none;stroke:#000000;stroke-width:1.02876723px;stroke-linecap:butt;stroke-linejoin:miter;stroke-opacity:1"
       d="m 274.79149,230.87684 c 0,4.15689 0,8.31377 0,12.47065 0,5.0229 0,10.04579 0,15.0687 0,1.38562 0,2.77125 0,4.15688 0,0.27171 0.0645,1.94182 0,2.07844 -0.10339,0.21909 -0.38705,0.30053 -0.49045,0.51961 -0.0731,0.15492 0,0.34641 0,0.51961 0,0.3683 0.0634,2.98331 0,3.11766 -0.60604,1.28416 -0.49044,-0.17935 -0.49044,1.03923"
       id="path3681" />

    <path
       id="path3683"
       d="m 276.79003,230.87684 c 0,4.15689 0,8.31377 0,12.47065 0,5.0229 0,10.04579 0,15.0687 0,1.38562 0,2.77125 0,4.15688 0,0.27171 0.0645,1.94182 0,2.07844 -0.10338,0.21909 -0.38705,0.30053 -0.49044,0.51961 -0.0731,0.15492 0,0.34641 0,0.51961 0,0.3683 0.0634,2.98331 0,3.11766 -0.60605,1.28416 -0.49045,-0.17935 -0.49045,1.03923"
       style="fill:none;stroke:#000000;stroke-width:1.02876723px;stroke-linecap:butt;stroke-linejoin:miter;stroke-opacity:1" />


    <path
       style="fill:none;stroke:#000000;stroke-width:1.02876723px;stroke-linecap:butt;stroke-linejoin:miter;stroke-opacity:1"
       d="m 270.10894,230.87684 c 0,4.15689 0,8.31377 0,12.47065 0,5.0229 0,10.04579 0,15.0687 0,1.38562 0,2.77125 0,4.15688 0,0.27171 0.0645,1.94182 0,2.07844 -0.10339,0.21909 -0.38705,0.30053 -0.49045,0.51961 -0.0731,0.15492 0,0.34641 0,0.51961 0,0.3683 0.0634,2.98331 0,3.11766 -0.60604,1.28416 -0.49044,-0.17935 -0.49044,1.03923"
       id="path3685" />


    <g
       inkscape:transform-center-y="-56.532895"
       inkscape:transform-center-x="-14.716739"
       transform="matrix(0.26658609,0,0,0.26658609,177.88508,14.855028)"
       style="fill:#da121a;stroke:#000000;stroke-width:2.5227077;stroke-miterlimit:4;stroke-opacity:1;stroke-dasharray:none;display:inline"
       id="g3734">

      <path
         d="m 283.80777,587.95131 c 7.00695,-1.98256 7.95454,1.55913 21.02843,-5.94757 0.16933,-2.50679 -2.7692,-1.95366 -6.46973,-2.50897 6.29913,-1.87267 11.23396,-2.42493 17.0072,-7.27704 1.0333,-3.37044 4.75393,-7.78976 7.67,-11.89507 -1.61007,-2.97806 -1.34255,-4.21343 -6.90178,-2.82987 4.91201,-3.92572 13.20151,-4.7981 14.73603,-11.77712 l 5.0748,-9.51285 c -0.78389,-3.2867 -3.63632,-1.64533 -6.24966,-0.57366 3.77481,-2.97973 8.44068,-4.00424 11.32441,-8.93917 3.40132,-4.1511 6.09656,-10.11126 8.71478,-16.26877 -1.9318,-3.27117 -4.32682,-1.49575 -6.75977,0.69246 14.46731,-16.43057 13.70829,-11.73312 16.88228,-29.43665 -2.7984,-2.20724 -25.67334,12.7034 -28.10522,13.36378 5.17198,-7.87656 32.68913,-23.70215 32.72523,-28.85224 9.76246,-30.37265 3.38015,-4.66126 10.91141,-39.28143 2.37829,-6.34109 -5.18784,1.89612 -8.19452,3.44934 4.29898,-6.78301 9.53188,-8.27524 12.89696,-20.34903 l 3.42179,-14.39128 c 1.09277,-6.08736 -3.32203,-1.59189 -5.68104,-1.04667 2.95355,-6.6833 8.63687,-8.95024 8.68274,-20.2107 l 2.52359,-16.04928 c 1.58334,-3.05942 -37.59928,16.13748 -40.2598,15.03854 2.23815,-1.35161 36.98201,-17.16416 40.46622,-34.4517 l -1.45157,-18.51501 c 0.29136,-6.35555 -2.86586,0.71333 -5.1175,4.25701 0.48867,-6.81518 3.87388,-5.68647 0.11589,-24.14823 l -2.54099,-18.08979 -4.12369,4.8734 c 3.50582,-9.08602 0.2491,-16.94561 -2.44031,-24.90805 l -13.41466,-16.22496 c -2.32307,5.69964 -4.45812,16.23229 -19.16893,26.07972 3.03185,-2.22262 14.3917,-19.77145 11.76549,-29.02812 -2.638,-9.2982 -6.00691,-17.13533 -13.75851,-21.81442 -0.47968,2.30956 2.52378,4.95356 1.4139,7.48247 -11.83385,-22.24183 -52.56352,-23.69907 -48.63813,-17.42464 -7.96921,2.12015 -18.41243,-2.25736 -21.84384,11.78065 -5.38126,8.84664 -2.53538,5.1228 0.83943,11.80946 0.50296,3.76861 -3.69752,3.17827 -4.88776,-1.03235 -3.36934,4.30987 -7.43393,27.89566 1.06437,24.8894 -2.2118,0.57146 -5.451,-0.88421 -6.3691,0.67166 -3.51764,5.96129 3.01294,19.73765 6.85162,20.13762 l -6.1554,-0.17206 c -5.28595,1.79062 -3.07032,25.88422 2.12174,28.63663 -5.50833,-1.21111 -1.67901,1.39684 -5.51578,1.97999 0.5475,7.16183 -0.21789,13.28082 2.12318,19.56836 4.91168,7.75027 -6.37664,6.96326 5.76952,20.15273 -3.34584,-1.4443 1.33698,-0.2601 -5.94443,-1.13444 3.98742,10.82897 -6.32131,8.58578 7.71182,27.54016 -1.85505,-1.2324 -4.27837,0.60902 -6.69961,-1.44048 3.66236,27.42343 4.16876,24.88187 5.75195,30.6435 -5.03728,7.34859 26.67136,30.30019 32.28683,34.69809 -18.39963,-8.76721 -32.13776,-16.13901 -36.22781,-26.06536 -0.10048,4.88476 -1.59225,9.75549 0.50326,14.6624 -2.09159,4.38684 6.19099,12.00256 8.83168,17.70615 -2.08705,-1.9606 -8.76011,-9.71927 -11.13616,-8.53158 l 0.0427,13.69695 c 3.59109,20.30888 -4.23658,4.07247 8.18073,28.02291 -2.40065,-1.67103 -4.3963,-5.18882 -7.57301,-3.32109 0.17996,12.4738 -1.54406,12.53716 4.85307,27.23024 -2.8506,-2.2937 -3.39216,-1.08754 -4.63942,-0.95102 -2.50841,3.14213 -1.2657,7.39931 -0.53094,11.5055 -2.20196,5.21568 4.10031,8.43828 6.19171,12.64775 -1.49121,-0.91896 -3.01732,-1.45798 -4.68724,-0.43026 -0.4933,3.63106 7.10758,8.00512 10.97455,12.03644 -6.14623,-2.9552 -9.32484,-2.34292 -4.88353,7.42963 -1.48442,3.65788 0.4219,7.82921 7.2333,12.7434 -2.20322,2.51586 -4.13109,-0.95248 -4.73502,0.0905 -3.78063,-3.12156 -1.5683,4.81962 -0.90833,9.89528 l 3.97013,8.24231 c -0.35264,5.07961 6.23366,7.45097 9.35049,11.17646 z"
         style="fill:#da121a;fill-rule:evenodd;stroke:#000000;stroke-width:2.5227077;stroke-linecap:round;stroke-linejoin:round;stroke-miterlimit:4;stroke-opacity:1;stroke-dasharray:none"
         id="path3736" />

      <path
         d="m 345.61738,453.35587 c -13.47527,3.5984 -22.6931,10.79936 -29.68544,19.88338"
         style="fill:#da121a;stroke:#000000;stroke-width:2.5227077;stroke-linecap:round;stroke-linejoin:round;stroke-miterlimit:4;stroke-opacity:1;stroke-dasharray:none"
         id="path3738" />

      <path
         d="m 331.76307,495.18046 c -10.30394,5.93633 -18.11166,6.8338 -26.17358,18.60151"
         style="fill:#da121a;stroke:#000000;stroke-width:2.5227077;stroke-linecap:round;stroke-linejoin:round;stroke-miterlimit:4;stroke-opacity:1;stroke-dasharray:none"
         id="path3740" />
      <path
         d="m 314.91839,533.11652 c -5.15258,2.0899 -11.01145,-0.38702 -14.97436,9.3951"
         style="fill:#da121a;stroke:#000000;stroke-width:2.5227077;stroke-linecap:round;stroke-linejoin:round;stroke-miterlimit:4;stroke-opacity:1;stroke-dasharray:none"
         id="path3742" />

      <path
         d="m 349.03522,412.0765 c -9.25341,2.93968 -18.83831,4.6687 -25.05627,18.69544"
         style="fill:#da121a;stroke:#000000;stroke-width:2.5227077;stroke-linecap:round;stroke-linejoin:round;stroke-miterlimit:4;stroke-opacity:1;stroke-dasharray:none"
         id="path3744" />

      <path
         d="m 348.56792,373.45022 c -11.75119,3.98769 -17.82456,11.16509 -23.104,20.62895"
         style="fill:#da121a;stroke:#000000;stroke-width:2.5227077;stroke-linecap:round;stroke-linejoin:round;stroke-miterlimit:4;stroke-opacity:1;stroke-dasharray:none"
         id="path3746" />

      <path
         d="m 355.78754,312.08826 c -12.09714,5.63042 -29.29151,37.00322 -30.03988,48.84838"
         style="fill:#da121a;stroke:#000000;stroke-width:2.5227077;stroke-linecap:round;stroke-linejoin:round;stroke-miterlimit:4;stroke-opacity:1;stroke-dasharray:none"
         id="path3748" />

      <path
         d="m 340.62614,272.80711 c -8.83745,5.98525 -17.12971,37.26319 -14.88144,50.56602"
         style="fill:#da121a;stroke:#000000;stroke-width:2.5227077;stroke-linecap:round;stroke-linejoin:round;stroke-miterlimit:4;stroke-opacity:1;stroke-dasharray:none"
         id="path3750" />

      <path
         d="m 291.28288,551.7635 c 0.28324,-10.91634 -6.55645,-22.19897 -12.15277,-29.49459"
         style="fill:#da121a;stroke:#000000;stroke-width:2.5227077;stroke-linecap:round;stroke-linejoin:round;stroke-miterlimit:4;stroke-opacity:1;stroke-dasharray:none"
         id="path3752" />

      <path
         d="m 300.77469,513.89881 c -1.84559,-12.43103 -4.49311,-27.1032 -10.80702,-35.19595"
         style="fill:#da121a;stroke:#000000;stroke-width:2.5227077;stroke-linecap:round;stroke-linejoin:round;stroke-miterlimit:4;stroke-opacity:1;stroke-dasharray:none"
         id="path3754" />

      <path
         d="m 314.73291,470.20333 c -3.37093,-11.28414 -4.95034,-22.39135 -16.14231,-30.44249"
         style="fill:#da121a;stroke:#000000;stroke-width:2.5227077;stroke-linecap:round;stroke-linejoin:round;stroke-miterlimit:4;stroke-opacity:1;stroke-dasharray:none"
         id="path3756" />
      <path
         d="m 319.18096,427.18034 c -1.62039,-11.63397 -8.95205,-17.72293 -14.90133,-25.154"
         style="fill:#da121a;stroke:#000000;stroke-width:2.5227077;stroke-linecap:round;stroke-linejoin:round;stroke-miterlimit:4;stroke-opacity:1;stroke-dasharray:none"
         id="path3758" />

      <path
         d="M 321.63117,389.94225 C 316.70881,377.83404 309.76904,375.56703 303.72258,368.9422"
         style="fill:#da121a;stroke:#000000;stroke-width:2.5227077;stroke-linecap:round;stroke-linejoin:round;stroke-miterlimit:4;stroke-opacity:1;stroke-dasharray:none"
         id="path3760" />

      <path
         d="m 325.74596,358.31865 c -10.42777,-16.46953 -21.14491,-18.63493 -31.7506,-26.31062"
         style="fill:#da121a;stroke:#000000;stroke-width:2.5227077;stroke-linecap:round;stroke-linejoin:round;stroke-miterlimit:4;stroke-opacity:1;stroke-dasharray:none"
         id="path3762" />

      <path
         d="m 323.35597,321.68335 c -6.45911,-12.48307 -19.77092,-17.06463 -34.1968,-23.93561"
         style="fill:#da121a;stroke:#000000;stroke-width:2.5227077;stroke-linecap:round;stroke-linejoin:round;stroke-miterlimit:4;stroke-opacity:1;stroke-dasharray:none"
         id="path3764" />

      <path
         d="m 280.93583,615.08727 c -4.05548,10.33362 -9.37354,19.09012 -14.3828,13.37678 43.29416,-142.73626 86.12202,-277.52545 33.99657,-395.64491 63.07081,100.4311 6.53416,295.19176 -19.61377,382.26813 z"
         style="fill:#da121a;fill-rule:evenodd;stroke:#000000;stroke-width:2.5227077;stroke-linecap:round;stroke-linejoin:round;stroke-miterlimit:4;stroke-opacity:1;stroke-dasharray:none"
         id="path3766" />

    </g>

    <g
       id="g3768"
       style="fill:#da121a;stroke:#000000;stroke-width:2.5227077;stroke-miterlimit:4;stroke-opacity:1;stroke-dasharray:none;display:inline"
       transform="matrix(0.23087033,-0.13329304,0.13329304,0.23087033,103.32329,73.181217)"
       inkscape:transform-center-x="25.549737"
       inkscape:transform-center-y="-52.186707">

      <path
         id="path3770"
         style="fill:#da121a;fill-rule:evenodd;stroke:#000000;stroke-width:2.5227077;stroke-linecap:round;stroke-linejoin:round;stroke-miterlimit:4;stroke-opacity:1;stroke-dasharray:none"
         d="m 283.80777,587.95131 c 7.00695,-1.98256 7.95454,1.55913 21.02843,-5.94757 0.16933,-2.50679 -2.7692,-1.95366 -6.46973,-2.50897 6.29913,-1.87267 11.23396,-2.42493 17.0072,-7.27704 1.0333,-3.37044 4.75393,-7.78976 7.67,-11.89507 -1.61007,-2.97806 -1.34255,-4.21343 -6.90178,-2.82987 4.91201,-3.92572 13.20151,-4.7981 14.73603,-11.77712 l 5.0748,-9.51285 c -0.78389,-3.2867 -3.63632,-1.64533 -6.24966,-0.57366 3.77481,-2.97973 8.44068,-4.00424 11.32441,-8.93917 3.40132,-4.1511 6.09656,-10.11126 8.71478,-16.26877 -1.9318,-3.27117 -4.32682,-1.49575 -6.75977,0.69246 14.46731,-16.43057 13.70829,-11.73312 16.88228,-29.43665 -2.7984,-2.20724 -25.67334,12.7034 -28.10522,13.36378 5.17198,-7.87656 32.68913,-23.70215 32.72523,-28.85224 9.76246,-30.37265 3.38015,-4.66126 10.91141,-39.28143 2.37829,-6.34109 -5.18784,1.89612 -8.19452,3.44934 4.29898,-6.78301 9.53188,-8.27524 12.89696,-20.34903 l 3.42179,-14.39128 c 1.09277,-6.08736 -3.32203,-1.59189 -5.68104,-1.04667 2.95355,-6.6833 8.63687,-8.95024 8.68274,-20.2107 l 2.52359,-16.04928 c 1.58334,-3.05942 -37.59928,16.13748 -40.2598,15.03854 2.23815,-1.35161 36.98201,-17.16416 40.46622,-34.4517 l -1.45157,-18.51501 c 0.29136,-6.35555 -2.86586,0.71333 -5.1175,4.25701 0.48867,-6.81518 3.87388,-5.68647 0.11589,-24.14823 l -2.54099,-18.08979 -4.12369,4.8734 c 3.50582,-9.08602 0.2491,-16.94561 -2.44031,-24.90805 l -13.41466,-16.22496 c -2.32307,5.69964 -4.45812,16.23229 -19.16893,26.07972 3.03185,-2.22262 14.3917,-19.77145 11.76549,-29.02812 -2.638,-9.2982 -6.00691,-17.13533 -13.75851,-21.81442 -0.47968,2.30956 2.52378,4.95356 1.4139,7.48247 -11.83385,-22.24183 -52.56352,-23.69907 -48.63813,-17.42464 -7.96921,2.12015 -18.41243,-2.25736 -21.84384,11.78065 -5.38126,8.84664 -2.53538,5.1228 0.83943,11.80946 0.50296,3.76861 -3.69752,3.17827 -4.88776,-1.03235 -3.36934,4.30987 -7.43393,27.89566 1.06437,24.8894 -2.2118,0.57146 -5.451,-0.88421 -6.3691,0.67166 -3.51764,5.96129 3.01294,19.73765 6.85162,20.13762 l -6.1554,-0.17206 c -5.28595,1.79062 -3.07032,25.88422 2.12174,28.63663 -5.50833,-1.21111 -1.67901,1.39684 -5.51578,1.97999 0.5475,7.16183 -0.21789,13.28082 2.12318,19.56836 4.91168,7.75027 -6.37664,6.96326 5.76952,20.15273 -3.34584,-1.4443 1.33698,-0.2601 -5.94443,-1.13444 3.98742,10.82897 -6.32131,8.58578 7.71182,27.54016 -1.85505,-1.2324 -4.27837,0.60902 -6.69961,-1.44048 3.66236,27.42343 4.16876,24.88187 5.75195,30.6435 -5.03728,7.34859 26.67136,30.30019 32.28683,34.69809 -18.39963,-8.76721 -32.13776,-16.13901 -36.22781,-26.06536 -0.10048,4.88476 -1.59225,9.75549 0.50326,14.6624 -2.09159,4.38684 6.19099,12.00256 8.83168,17.70615 -2.08705,-1.9606 -8.76011,-9.71927 -11.13616,-8.53158 l 0.0427,13.69695 c 3.59109,20.30888 -4.23658,4.07247 8.18073,28.02291 -2.40065,-1.67103 -4.3963,-5.18882 -7.57301,-3.32109 0.17996,12.4738 -1.54406,12.53716 4.85307,27.23024 -2.8506,-2.2937 -3.39216,-1.08754 -4.63942,-0.95102 -2.50841,3.14213 -1.2657,7.39931 -0.53094,11.5055 -2.20196,5.21568 4.10031,8.43828 6.19171,12.64775 -1.49121,-0.91896 -3.01732,-1.45798 -4.68724,-0.43026 -0.4933,3.63106 7.10758,8.00512 10.97455,12.03644 -6.14623,-2.9552 -9.32484,-2.34292 -4.88353,7.42963 -1.48442,3.65788 0.4219,7.82921 7.2333,12.7434 -2.20322,2.51586 -4.13109,-0.95248 -4.73502,0.0905 -3.78063,-3.12156 -1.5683,4.81962 -0.90833,9.89528 l 3.97013,8.24231 c -0.35264,5.07961 6.23366,7.45097 9.35049,11.17646 z" />

      <path
         id="path3772"
         style="fill:#da121a;stroke:#000000;stroke-width:2.5227077;stroke-linecap:round;stroke-linejoin:round;stroke-miterlimit:4;stroke-opacity:1;stroke-dasharray:none"
         d="m 345.61738,453.35587 c -13.47527,3.5984 -22.6931,10.79936 -29.68544,19.88338" />

      <path
         id="path3774"
         style="fill:#da121a;stroke:#000000;stroke-width:2.5227077;stroke-linecap:round;stroke-linejoin:round;stroke-miterlimit:4;stroke-opacity:1;stroke-dasharray:none"
         d="m 331.76307,495.18046 c -10.30394,5.93633 -18.11166,6.8338 -26.17358,18.60151" />

      <path
         id="path3776"
         style="fill:#da121a;stroke:#000000;stroke-width:2.5227077;stroke-linecap:round;stroke-linejoin:round;stroke-miterlimit:4;stroke-opacity:1;stroke-dasharray:none"
         d="m 314.91839,533.11652 c -5.15258,2.0899 -11.01145,-0.38702 -14.97436,9.3951" />

      <path
         id="path3778"
         style="fill:#da121a;stroke:#000000;stroke-width:2.5227077;stroke-linecap:round;stroke-linejoin:round;stroke-miterlimit:4;stroke-opacity:1;stroke-dasharray:none"
         d="m 349.03522,412.0765 c -9.25341,2.93968 -18.83831,4.6687 -25.05627,18.69544" />

      <path
         id="path3780"
         style="fill:#da121a;stroke:#000000;stroke-width:2.5227077;stroke-linecap:round;stroke-linejoin:round;stroke-miterlimit:4;stroke-opacity:1;stroke-dasharray:none"
         d="m 348.56792,373.45022 c -11.75119,3.98769 -17.82456,11.16509 -23.104,20.62895" />

      <path
         id="path3782"
         style="fill:#da121a;stroke:#000000;stroke-width:2.5227077;stroke-linecap:round;stroke-linejoin:round;stroke-miterlimit:4;stroke-opacity:1;stroke-dasharray:none"
         d="m 355.78754,312.08826 c -12.09714,5.63042 -29.29151,37.00322 -30.03988,48.84838" />
      <path
         id="path3784"
         style="fill:#da121a;stroke:#000000;stroke-width:2.5227077;stroke-linecap:round;stroke-linejoin:round;stroke-miterlimit:4;stroke-opacity:1;stroke-dasharray:none"
         d="m 340.62614,272.80711 c -8.83745,5.98525 -17.12971,37.26319 -14.88144,50.56602" />

      <path
         id="path3786"
         style="fill:#da121a;stroke:#000000;stroke-width:2.5227077;stroke-linecap:round;stroke-linejoin:round;stroke-miterlimit:4;stroke-opacity:1;stroke-dasharray:none"
         d="m 291.28288,551.7635 c 0.28324,-10.91634 -6.55645,-22.19897 -12.15277,-29.49459" />
      <path
         id="path3788"
         style="fill:#da121a;stroke:#000000;stroke-width:2.5227077;stroke-linecap:round;stroke-linejoin:round;stroke-miterlimit:4;stroke-opacity:1;stroke-dasharray:none"
         d="m 300.77469,513.89881 c -1.84559,-12.43103 -4.49311,-27.1032 -10.80702,-35.19595" />

      <path
         id="path3790"
         style="fill:#da121a;stroke:#000000;stroke-width:2.5227077;stroke-linecap:round;stroke-linejoin:round;stroke-miterlimit:4;stroke-opacity:1;stroke-dasharray:none"
         d="m 314.73291,470.20333 c -3.37093,-11.28414 -4.95034,-22.39135 -16.14231,-30.44249" />
      <path
         id="path3792"
         style="fill:#da121a;stroke:#000000;stroke-width:2.5227077;stroke-linecap:round;stroke-linejoin:round;stroke-miterlimit:4;stroke-opacity:1;stroke-dasharray:none"
         d="m 319.18096,427.18034 c -1.62039,-11.63397 -8.95205,-17.72293 -14.90133,-25.154" />

      <path
         id="path3794"
         style="fill:#da121a;stroke:#000000;stroke-width:2.5227077;stroke-linecap:round;stroke-linejoin:round;stroke-miterlimit:4;stroke-opacity:1;stroke-dasharray:none"
         d="M 321.63117,389.94225 C 316.70881,377.83404 309.76904,375.56703 303.72258,368.9422" />
      <path
         id="path3796"
         style="fill:#da121a;stroke:#000000;stroke-width:2.5227077;stroke-linecap:round;stroke-linejoin:round;stroke-miterlimit:4;stroke-opacity:1;stroke-dasharray:none"
         d="m 325.74596,358.31865 c -10.42777,-16.46953 -21.14491,-18.63493 -31.7506,-26.31062" />
      <path
         id="path3798"
         style="fill:#da121a;stroke:#000000;stroke-width:2.5227077;stroke-linecap:round;stroke-linejoin:round;stroke-miterlimit:4;stroke-opacity:1;stroke-dasharray:none"
         d="m 323.35597,321.68335 c -6.45911,-12.48307 -19.77092,-17.06463 -34.1968,-23.93561" />

      <path
         id="path3800"
         style="fill:#da121a;fill-rule:evenodd;stroke:#000000;stroke-width:2.5227077;stroke-linecap:round;stroke-linejoin:round;stroke-miterlimit:4;stroke-opacity:1;stroke-dasharray:none"
         d="m 280.93583,615.08727 c -4.05548,10.33362 -9.37354,19.09012 -14.3828,13.37678 43.29416,-142.73626 86.12202,-277.52545 33.99657,-395.64491 63.07081,100.4311 6.53416,295.19176 -19.61377,382.26813 z" />

    </g>

    <g
       inkscape:transform-center-y="-68.149225"
       inkscape:transform-center-x="9.9001484"
       id="g4107"
       style="fill:#da121a;stroke:#000000;stroke-width:2.5227077;stroke-miterlimit:4;stroke-opacity:1;stroke-dasharray:none;display:inline"
       transform="matrix(0.31370918,-0.08405812,0.08405812,0.31370918,112.40958,7.6689073)">

      <path
         id="path4004"
         style="fill:#da121a;fill-rule:evenodd;stroke:#000000;stroke-width:2.5227077;stroke-linecap:round;stroke-linejoin:round;stroke-miterlimit:4;stroke-opacity:1;stroke-dasharray:none"
         d="m 283.80777,587.95131 c 7.00695,-1.98256 7.95454,1.55913 21.02843,-5.94757 0.16933,-2.50679 -2.7692,-1.95366 -6.46973,-2.50897 6.29913,-1.87267 11.23396,-2.42493 17.0072,-7.27704 1.0333,-3.37044 4.75393,-7.78976 7.67,-11.89507 -1.61007,-2.97806 -1.34255,-4.21343 -6.90178,-2.82987 4.91201,-3.92572 13.20151,-4.7981 14.73603,-11.77712 l 5.0748,-9.51285 c -0.78389,-3.2867 -3.63632,-1.64533 -6.24966,-0.57366 3.77481,-2.97973 8.44068,-4.00424 11.32441,-8.93917 3.40132,-4.1511 6.09656,-10.11126 8.71478,-16.26877 -1.9318,-3.27117 -4.32682,-1.49575 -6.75977,0.69246 14.46731,-16.43057 13.70829,-11.73312 16.88228,-29.43665 -2.7984,-2.20724 -25.67334,12.7034 -28.10522,13.36378 5.17198,-7.87656 32.68913,-23.70215 32.72523,-28.85224 9.76246,-30.37265 3.38015,-4.66126 10.91141,-39.28143 2.37829,-6.34109 -5.18784,1.89612 -8.19452,3.44934 4.29898,-6.78301 9.53188,-8.27524 12.89696,-20.34903 l 3.42179,-14.39128 c 1.09277,-6.08736 -3.32203,-1.59189 -5.68104,-1.04667 2.95355,-6.6833 8.63687,-8.95024 8.68274,-20.2107 l 2.52359,-16.04928 c 1.58334,-3.05942 -37.59928,16.13748 -40.2598,15.03854 2.23815,-1.35161 36.98201,-17.16416 40.46622,-34.4517 l -1.45157,-18.51501 c 0.29136,-6.35555 -2.86586,0.71333 -5.1175,4.25701 0.48867,-6.81518 3.87388,-5.68647 0.11589,-24.14823 l -2.54099,-18.08979 -4.12369,4.8734 c 3.50582,-9.08602 0.2491,-16.94561 -2.44031,-24.90805 l -13.41466,-16.22496 c -2.32307,5.69964 -4.45812,16.23229 -19.16893,26.07972 3.03185,-2.22262 14.3917,-19.77145 11.76549,-29.02812 -2.638,-9.2982 -6.00691,-17.13533 -13.75851,-21.81442 -0.47968,2.30956 2.52378,4.95356 1.4139,7.48247 -11.83385,-22.24183 -52.56352,-23.69907 -48.63813,-17.42464 -7.96921,2.12015 -18.41243,-2.25736 -21.84384,11.78065 -5.38126,8.84664 -2.53538,5.1228 0.83943,11.80946 0.50296,3.76861 -3.69752,3.17827 -4.88776,-1.03235 -3.36934,4.30987 -7.43393,27.89566 1.06437,24.8894 -2.2118,0.57146 -5.451,-0.88421 -6.3691,0.67166 -3.51764,5.96129 3.01294,19.73765 6.85162,20.13762 l -6.1554,-0.17206 c -5.28595,1.79062 -3.07032,25.88422 2.12174,28.63663 -5.50833,-1.21111 -1.67901,1.39684 -5.51578,1.97999 0.5475,7.16183 -0.21789,13.28082 2.12318,19.56836 4.91168,7.75027 -6.37664,6.96326 5.76952,20.15273 -3.34584,-1.4443 1.33698,-0.2601 -5.94443,-1.13444 3.98742,10.82897 -6.32131,8.58578 7.71182,27.54016 -1.85505,-1.2324 -4.27837,0.60902 -6.69961,-1.44048 3.66236,27.42343 4.16876,24.88187 5.75195,30.6435 -5.03728,7.34859 26.67136,30.30019 32.28683,34.69809 -18.39963,-8.76721 -32.13776,-16.13901 -36.22781,-26.06536 -0.10048,4.88476 -1.59225,9.75549 0.50326,14.6624 -2.09159,4.38684 6.19099,12.00256 8.83168,17.70615 -2.08705,-1.9606 -8.76011,-9.71927 -11.13616,-8.53158 l 0.0427,13.69695 c 3.59109,20.30888 -4.23658,4.07247 8.18073,28.02291 -2.40065,-1.67103 -4.3963,-5.18882 -7.57301,-3.32109 0.17996,12.4738 -1.54406,12.53716 4.85307,27.23024 -2.8506,-2.2937 -3.39216,-1.08754 -4.63942,-0.95102 -2.50841,3.14213 -1.2657,7.39931 -0.53094,11.5055 -2.20196,5.21568 4.10031,8.43828 6.19171,12.64775 -1.49121,-0.91896 -3.01732,-1.45798 -4.68724,-0.43026 -0.4933,3.63106 7.10758,8.00512 10.97455,12.03644 -6.14623,-2.9552 -9.32484,-2.34292 -4.88353,7.42963 -1.48442,3.65788 0.4219,7.82921 7.2333,12.7434 -2.20322,2.51586 -4.13109,-0.95248 -4.73502,0.0905 -3.78063,-3.12156 -1.5683,4.81962 -0.90833,9.89528 l 3.97013,8.24231 c -0.35264,5.07961 6.23366,7.45097 9.35049,11.17646 z" />

      <path
         id="path4006"
         style="fill:#da121a;stroke:#000000;stroke-width:2.5227077;stroke-linecap:round;stroke-linejoin:round;stroke-miterlimit:4;stroke-opacity:1;stroke-dasharray:none"
         d="m 345.61738,453.35587 c -13.47527,3.5984 -22.6931,10.79936 -29.68544,19.88338" />

      <path
         id="path4008"
         style="fill:#da121a;stroke:#000000;stroke-width:2.5227077;stroke-linecap:round;stroke-linejoin:round;stroke-miterlimit:4;stroke-opacity:1;stroke-dasharray:none"
         d="m 331.76307,495.18046 c -10.30394,5.93633 -18.11166,6.8338 -26.17358,18.60151" />

      <path
         id="path4010"
         style="fill:#da121a;stroke:#000000;stroke-width:2.5227077;stroke-linecap:round;stroke-linejoin:round;stroke-miterlimit:4;stroke-opacity:1;stroke-dasharray:none"
         d="m 314.91839,533.11652 c -5.15258,2.0899 -11.01145,-0.38702 -14.97436,9.3951" />

      <path
         id="path4012"
         style="fill:#da121a;stroke:#000000;stroke-width:2.5227077;stroke-linecap:round;stroke-linejoin:round;stroke-miterlimit:4;stroke-opacity:1;stroke-dasharray:none"
         d="m 349.03522,412.0765 c -9.25341,2.93968 -18.83831,4.6687 -25.05627,18.69544" />
      <path
         id="path4014"
         style="fill:#da121a;stroke:#000000;stroke-width:2.5227077;stroke-linecap:round;stroke-linejoin:round;stroke-miterlimit:4;stroke-opacity:1;stroke-dasharray:none"
         d="m 348.56792,373.45022 c -11.75119,3.98769 -17.82456,11.16509 -23.104,20.62895" />

      <path
         id="path4016"
         style="fill:#da121a;stroke:#000000;stroke-width:2.5227077;stroke-linecap:round;stroke-linejoin:round;stroke-miterlimit:4;stroke-opacity:1;stroke-dasharray:none"
         d="m 355.78754,312.08826 c -12.09714,5.63042 -29.29151,37.00322 -30.03988,48.84838" />
      <path
         id="path4018"
         style="fill:#da121a;stroke:#000000;stroke-width:2.5227077;stroke-linecap:round;stroke-linejoin:round;stroke-miterlimit:4;stroke-opacity:1;stroke-dasharray:none"
         d="m 340.62614,272.80711 c -8.83745,5.98525 -17.12971,37.26319 -14.88144,50.56602" />

      <path
         id="path4020"
         style="fill:#da121a;stroke:#000000;stroke-width:2.5227077;stroke-linecap:round;stroke-linejoin:round;stroke-miterlimit:4;stroke-opacity:1;stroke-dasharray:none"
         d="m 291.28288,551.7635 c 0.28324,-10.91634 -6.55645,-22.19897 -12.15277,-29.49459" />

      <path
         id="path4022"
         style="fill:#da121a;stroke:#000000;stroke-width:2.5227077;stroke-linecap:round;stroke-linejoin:round;stroke-miterlimit:4;stroke-opacity:1;stroke-dasharray:none"
         d="m 300.77469,513.89881 c -1.84559,-12.43103 -4.49311,-27.1032 -10.80702,-35.19595" />

      <path
         id="path4024"
         style="fill:#da121a;stroke:#000000;stroke-width:2.5227077;stroke-linecap:round;stroke-linejoin:round;stroke-miterlimit:4;stroke-opacity:1;stroke-dasharray:none"
         d="m 314.73291,470.20333 c -3.37093,-11.28414 -4.95034,-22.39135 -16.14231,-30.44249" />

      <path
         id="path4026"
         style="fill:#da121a;stroke:#000000;stroke-width:2.5227077;stroke-linecap:round;stroke-linejoin:round;stroke-miterlimit:4;stroke-opacity:1;stroke-dasharray:none"
         d="m 319.18096,427.18034 c -1.62039,-11.63397 -8.95205,-17.72293 -14.90133,-25.154" />

      <path
         id="path4028"
         style="fill:#da121a;stroke:#000000;stroke-width:2.5227077;stroke-linecap:round;stroke-linejoin:round;stroke-miterlimit:4;stroke-opacity:1;stroke-dasharray:none"
         d="M 321.63117,389.94225 C 316.70881,377.83404 309.76904,375.56703 303.72258,368.9422" />

      <path
         id="path4030"
         style="fill:#da121a;stroke:#000000;stroke-width:2.5227077;stroke-linecap:round;stroke-linejoin:round;stroke-miterlimit:4;stroke-opacity:1;stroke-dasharray:none"
         d="m 325.74596,358.31865 c -10.42777,-16.46953 -21.14491,-18.63493 -31.7506,-26.31062" />

      <path
         id="path4032"
         style="fill:#da121a;stroke:#000000;stroke-width:2.5227077;stroke-linecap:round;stroke-linejoin:round;stroke-miterlimit:4;stroke-opacity:1;stroke-dasharray:none"
         d="m 323.35597,321.68335 c -6.45911,-12.48307 -19.77092,-17.06463 -34.1968,-23.93561" />

      <path
         id="path4034"
         style="fill:#da121a;fill-rule:evenodd;stroke:#000000;stroke-width:2.5227077;stroke-linecap:round;stroke-linejoin:round;stroke-miterlimit:4;stroke-opacity:1;stroke-dasharray:none"
         d="m 280.93583,615.08727 c -4.05548,10.33362 -9.37354,19.09012 -14.3828,13.37678 43.29416,-142.73626 86.12202,-277.52545 33.99657,-395.64491 63.07081,100.4311 6.53416,295.19176 -19.61377,382.26813 z" />

    </g>

    <rect
       ry="10"
       rx="10"
       y="175"
       x="210"
       height="50"
       width="80"
       id="rect3645"
       style="fill:#fbbb00;fill-opacity:1;stroke:#000000;stroke-width:1;stroke-linecap:round;stroke-linejoin:round;stroke-miterlimit:4;stroke-opacity:1;stroke-dasharray:none;stroke-dashoffset:0" />

    <rect
       ry="5"
       rx="5"
       y="185"
       x="220"
       height="30"
       width="60"
       style="fill:#da121a;fill-opacity:1;stroke:#000000;stroke-width:1;stroke-linecap:round;stroke-linejoin:round;stroke-miterlimit:4;stroke-opacity:1;stroke-dasharray:none;stroke-dashoffset:0"
       id="rect2980" />

  </g>

</svg>
