<svg xmlns="http://www.w3.org/2000/svg" viewBox="0 0 39.62 46.71">
  <g class="color1" style="fill: white;">
    <path d="M7.87,16.44a5,5,0,1,0-5-5A5,5,0,0,0,7.87,16.44Zm0-8a3,3,0,1,1-3,3A3,3,0,0,1,7.87,8.4Z"></path>
    <path d="M31.75,16.44a5,5,0,1,0-5-5A5,5,0,0,0,31.75,16.44Zm0-8a3,3,0,1,1-3,3A3,3,0,0,1,31.75,8.4Z"></path>
    <path d="M37.87,20.41A7.83,7.83,0,0,0,28,18.47a9.8,9.8,0,0,0-.63-.88,9.67,9.67,0,0,0-15,0,9.81,9.81,0,0,0-.63.88A7.85,7.85,0,0,0,.18,27L3,39.83a5,5,0,0,0,9.83,0l.31-1.45.76,3.52a6.09,6.09,0,0,0,11.9,0l.76-3.52.31,1.45a5,5,0,0,0,9.83,0L39.44,27A7.83,7.83,0,0,0,37.87,20.41ZM12.06,33.69l-1.24,5.72a3,3,0,0,1-5.92,0L2.13,26.58a5.85,5.85,0,0,1,8.63-6.32,9.62,9.62,0,0,0-.4,5.44l1.72,8Zm25.42-7.1L34.71,39.41a3,3,0,0,1-5.92,0l-1.24-5.72v0l1.72-8a9.62,9.62,0,0,0-.4-5.44,5.85,5.85,0,0,1,8.63,6.32Z"></path>
    <circle cx="19.81" cy="6.07" r="6.07"></circle>
  </g>
</svg>