<?xml version="1.0" encoding="utf-8"?>
<!-- Generator: Adobe Illustrator 24.3.0, SVG Export Plug-In . SVG Version: 6.00 Build 0)  -->
<svg version="1.1" id="Capa_2" xmlns="http://www.w3.org/2000/svg" xmlns:xlink="http://www.w3.org/1999/xlink" x="0px" y="0px"
	 viewBox="0 0 1080 1080" style="enable-background:new 0 0 1080 1080;" xml:space="preserve">
<style type="text/css">
	.st0{fill:#ED1C24;}
</style>
<g>
	<path class="st0" d="M350.7,900.1c0-0.1-0.1-0.1-0.1-0.2c-0.8,0.2-1.6,0.4-2.4,0.7C348.9,900.3,349.8,900.2,350.7,900.1z"/>
	<path class="st0" d="M477,242.4c-11.5,8.6-26,9.2-42.7,9.8c0,6.4,0.5,13.8,2,22.3c3.5,19,10.8,32.6,20,49.7
		c6.9,12.8,13.4,24.9,25.8,37.8c12.6,13.1,20.2,21,31.1,22.7c6.8,1.1,10.6-0.8,18.1-4.7c6.7-3.5,16-8.2,30.9-11.8
		c7.2-1.8,26.5-6.5,50.2-4.3c42.4,3.8,45.7,4.1,45.8,4.2l0.5,0c2.6,0.3,5.1,0.5,7.1,0.6c0.3-2.7,0.5-6.1,0.7-10.3
		c0.7-12.5,0-21.7,0-21.8c-6.4-76.6-2.3-125.8-2.1-127.9v0c0.5-5.3,1-10.3,1.5-14.8c0.1-0.8,0.2-1.7,0.3-2.5
		c-0.4-0.9-0.8-1.9-1.2-2.8c-1.4-3.1-2.7-6.4-5.5-10.3c-5.7-8.3-12.5-12.7-24.9-20.8c-8.3-5.4-16.1-10.5-27-13.6
		c-6-1.7-8.8-1.7-19.2-1.7c-4.2,0-9.3,0-16.2-0.1c-12.1-0.2-20.9-0.6-27.4-0.9c-13.9-0.7-15.4-0.6-17.5,1.3
		c-3.1,2.5-4.3,5.8-5.8,9.9c-2.2,6-5,13.5-14.4,18c-4.2,2-8,2.7-10.8,3.1c-0.8,0.1-1.7,0.3-2.4,0.4c0.2,0.7,0.4,1.7,0.7,2.5
		c0.7,2.3,1.5,5.1,2.1,8.9c1.8,11.4,0.3,23.2-4.6,35.1C489.1,227.4,485.6,235.9,477,242.4z"/>
	<path class="st0" d="M321.4,182.1c-7.1,5.5-11.4,16.8-9.7,25.9c0.5,2.6,1.2,3.5,2.8,5.8c2,2.7,4.6,6.5,7.3,13.8
		c3.5,9.8,4,17.8,4.6,27c1,15.7,1.5,24.3-2.6,34.4c-3.2,7.9-7.3,11.6-10.5,14.5c-2.7,2.4-4.5,4.1-6,8.2c-3.1,8.2-2.4,19,1.7,27.1
		c3,5.8,7.1,8.8,11.4,12c5.7,4.2,12.1,8.9,14.2,19c0.9,4.2,0.4,6.7-0.5,10.9c-0.4,1.9-0.9,4.6-1.5,8.4c-3.1,19.3-4.7,29-2.4,35.8
		c4.6,13.5,22.2,19.4,30.6,22.3c5.8,2,23.3,7.9,29.8,1.7c2.3-2.2,2.9-9,3.9-20.1c0.5-5.8,0.4-8.9,0.3-15.1
		c-0.1-3.8-0.2-8.5-0.3-15.4c-0.1-7.4,0-11.8,0.1-15.3c0.1-4.2,0.1-7.3-0.1-13.6c-0.4-11-0.6-16.5-2-23.8c-0.5-3-1.1-5.2-1.7-7.3
		c-0.4-0.7-0.8-1.4-1.2-2c0.1-0.1,0.3-0.3,0.4-0.5c-0.5-1.3-0.9-2.7-1.5-4.1c-1.2-3.2-2.5-6.8-4.2-12.3c-5-17-8-27.2-6.5-40.4
		c0.4-3.4,4.5-33.2,23.8-39.5c4.1-1.3,10.2-1.6,23.6-2.2c2.7-0.1,4.6-0.2,6-0.2l1.5,0c15.2-0.5,27.3-0.9,35.2-6.8
		c5.3-4,7.5-9.3,10-15.5c3.8-9.4,5.1-18.5,3.7-27.1c-0.4-2.8-1.1-5.1-1.7-7.1c-1.3-4.3-2.7-9.3,0.6-14.6c3.5-5.7,9-6.6,13.1-7.3
		c2.3-0.4,4.4-0.7,6.6-1.8c3.8-1.9,4.9-4.5,6.9-9.8c1.9-4.9,4.2-11.1,10.3-16.2c6.8-5.7,12.6-5.4,27.8-4.7
		c6.4,0.3,15.1,0.7,26.9,0.9c6.7,0.1,11.8,0.1,15.9,0.1c10.9,0,15.4,0,23.4,2.3c13.1,3.7,22.2,9.7,31.1,15.5
		c13.1,8.5,21.7,14.1,29.1,24.9c3.5,5.2,5.4,9.4,6.9,12.9c2,4.6,2.7,6.1,5.5,7.8c3.6,2.2,9.3,3.7,13.5,1.7c4.4-2.2,6-8.2,7.9-17.3
		c0.2-0.8,0.3-1.6,0.5-2.4c1-4.6,4-18.8-3.1-29.6c-2.1-3.2-4.1-4.6-6.9-6.5c-3.9-2.7-8.7-6.1-14-14.3c-1.7-2.6-2.7-4.6-3.7-6.6
		c-1.1-2.3-2.2-4.4-4.5-7.8c-3.1-4.5-6.6-8.7-10.5-12.5c-5.7-2.6-10.1-4.7-13.1-6.3c-1.4-0.8-2.9-1.6-4.1-2.6l0,0
		c-6-5.2-8.5-11.4-12.5-21.6c-1.9-4.8-2.7-7.9-3.4-10.2c-0.7-2.7-0.9-3.3-1.9-4.7c-3.3-4.5-8.6-6.3-12.9-7.7
		c-17.6-5.8-33.9-0.3-34.6,0c-8.9,3.1-13.6,7.4-18.2,11.6c-5.8,5.3-11.7,10.8-23.2,11.6c-10,0.7-18.1-2.6-28.3-6.8
		c-8.6-3.5-13.2-6.8-16.8-9.4c-3.1-2.2-5.2-3.7-9.4-4.9c-0.7-0.2-17.5-4.9-28.9,3.1c-5.5,3.9-7.4,9.1-9.5,15
		c-2.4,6.7-5.3,15.1-14.9,19c-7.4,3-13.2,0.9-18.3-0.9c-3.7-1.3-7.6-2.7-13.3-2.7c-0.1,0-0.2,0-0.2,0c-10.2,0.1-24.4,4.4-31.4,13.6
		c-3.4,4.5-3.9,8.4-5.2,20c-0.9,8.9-2.2,21-5.9,39.3c-1,4.7-2.4,11.7-7.9,18c-5.9,6.7-12.5,8.2-17.8,9.4
		C327.7,178.9,324.7,179.6,321.4,182.1z"/>
	<path class="st0" d="M655.7,74.9c0.1,0,0.1,0.1,0.2,0.1l0.2,0.2C655.9,75.1,655.8,75,655.7,74.9z"/>
	<path class="st0" d="M355.1,785.8l0.1-0.1c48-23,74.4-35.6,80.3-39.1c9.7-5.7,12.5-7.6,19.9-12.8c7.3-5.2,19.6-13.8,48.3-32.6
		c10.2-6.7,18.7-12.3,25.6-16.7c24.9-16.2,32.5-21.1,43.9-32.2c6.2-6.1,10.2-10.5,14-14.9c5.9-6.7,11-12.5,22-21
		c2.7-2,5.1-3.8,7.2-5.3c7.4-5.3,10-7.4,10.7-10.9l0-0.1c0-0.7-0.5-5.5-11.8-28.3c-4.1-8.2-7.6-15.3-9.1-16.8
		c-0.8-0.8-1.6-1.6-2.5-2.3c-4.9,0.8-10.1,0.6-15.2,0.4c-5.1-0.2-7.8-0.9-10-1.4c-1.9-0.4-3.1-0.7-6.1-0.7c-3.9,0.1-8.6,1.3-19,3.9
		c-2.7,0.7-4.9,1.3-6.6,1.8c-5.9,4.2-12.8,7.9-23.1,6.7c-11.2-1.3-24.3-7.8-33.4-16.6c-1.9-1.8-3.4-3.6-4.8-5.2
		c-3.1-3.5-5.3-6-9.6-7.9c-5.1-2.3-7.6-2.8-8.7-2.8c-0.1,1.8,0.5,5.6,0.9,8.4c1.4,8.8,3.3,20.9-0.6,35.2
		c-4.1,14.9-11.4,23.8-16.8,28.5c-13.2,11.7-28.3,11.9-47.4,12.1c-2.3,0-4.7,0.1-7.2,0.1c-0.4,0-41.4,1-85.8,10.2
		c-30.2,6.3-42.9,9.3-54.3,20.8c-1.9,1.9-18.5,19.3-18.6,44.5c-0.1,15.6,11,31.6,35.9,66.1c29.2,40.4,37.5,42,41,42.7
		C322.2,801.3,333.1,796.4,355.1,785.8z"/>
	<path class="st0" d="M703,397.4c1.1-1.7,2-3.2,3.2-6.1c4.5-11.2,5.2-21.2,2-29.9c-1.2-3.4-4.6-12.4-11.2-14c-3-0.7-7.4-0.2-9.5,2
		c-1.7,1.8-1.6,5-1.3,9.9c0.4,6.1,0.8,13.6-5.1,19.4c-6.2,6.1-14.2,5.3-24.2,4.2l-0.5,0c-0.1,0-3.9-0.4-45.6-4.1
		c-21.2-1.9-38.1,2.2-45.3,4c-13.2,3.2-21.1,7.3-27.6,10.6c-8.4,4.3-15.6,8-27.3,6.1c-15.8-2.5-25.7-12.8-39.5-27.1
		c-13.8-14.3-21.1-27.9-28.2-41.1c-9.4-17.6-17.6-32.8-21.5-54.1c-1.7-9.3-2.2-17.5-2.3-24.4c-6.7,0.3-11.3,0.6-13,1.2
		c-7,2.2-12.2,15.6-13.5,27c-1.2,10.1,1.2,18.2,6,34.3c1.5,5,2.7,8.4,3.8,11.4c0.7,2,1.4,3.8,2.1,5.8c3.5,6.3,6.8,14.1,8.8,25
		c2.1,11.1,2.2,21.4,2.2,24.2c0,10.4-1.4,19-2.4,25.9c-1.6,10.4-2.2,15.6,0.7,19.2c0.1,0.2,0.2,0.3,0.3,0.3c0.1,0.1,0.2,0.1,0.4,0.2
		c1.7,0.9,3.7,2,6.9,4.9c9,8.2,15.4,19.2,18.8,32.8c1.7,6.5,1.8,10.8,1.9,13.9c0.1,3.1,0.1,4.4,1.6,7.3c3.6,6.8,9.7,10.5,11.5,11.5
		c3.5,1.9,5.6,2.1,8.3,2.4c3.3,0.4,7.5,0.8,12.7,4c6,3.7,8.1,7.7,9.9,11.3c1.3,2.6,2.6,5.1,6,8.5c3.2,3.2,10.2,6.7,23,13.1
		c15.1,7.6,17.8,7.5,19.3,7.5c0.8,0,0.8,0,3.3-0.7c0.6-0.2,1.2-0.4,2-0.6c0.4-0.3,0.8-0.6,1.3-1c6.9-5.3,15.6-12,30.8-12.2
		c6.4-0.1,20.9-0.4,33.9,6.5c0.3-0.2,0.6-0.4,0.9-0.6c1.6-1.3,2.1-2.6,2.9-5.3c1.1-3.5,2.7-8.3,8.1-11.8c6-3.9,11.8-3,19.1-1.8
		c1.4,0.2,3,0.5,4.7,0.7c19,2.7,27,3.7,33,0.7c8.2-4.1,11.7-13.5,12.9-16.6c3.7-10.1,2.1-21,1.7-23.1c-0.4-2.1-0.8-3.9-1.3-5.5
		c-1.1-4.1-2.3-8.4-0.6-14.3c1.1-3.9,2.7-6.3,4-8.2c1-1.5,1.7-2.4,2.2-4.4c0.5-1.8,0.4-2.6,0.2-5c-0.2-1.8-0.4-4.1-0.5-7.4
		c-0.1-11.8,3.1-20.9,4.6-25.3C699.8,402.5,701.5,399.8,703,397.4z M631.1,419.5c-6.9-3.4-14.3-5.2-21.9-5.5
		c-12.8-0.5-23,3.7-29.2,7.3l-3.7-6.5h0l-3.7-6.5c8-4.6,20.9-9.9,37.2-9.3c9.7,0.3,19.1,2.7,27.9,7L631.1,419.5z"/>
	<path class="st0" d="M672.6,1012.9c0-5.1-4.1-9.2-9.2-9.2H412.2c-5.1,0-9.2,4.1-9.2,9.2v18.4c0,5.1,4.1,9.2,9.2,9.2h251.2
		c5.1,0,9.2-4.1,9.2-9.2V1012.9z"/>
	<path class="st0" d="M730.6,806.1c2.5-4.6,5.5-10.2,9.2-17.1c10-18.5,15.4-28.7,16.5-30.9c10.4-21.3,16.4-46.2,17.9-73.9l0.1-1.1
		l0.4-1c0.1-0.2,7.3-20.4,12.1-48.5c0.9-5.1,2-15.6,0-28.7c-1.3-8.5-2.3-13.9-5-15.7c-0.2-0.1-0.3-0.2-0.3-0.2
		c-0.6-0.2-3.4,0.1-6.1,0.4c-3.3,0.3-7.8,0.7-14.1,1c-12.7,0.6-21.3,0.3-25.2,0l-0.5,0c-4.4-0.3-7.1,0-9.6,0.3c-1,0.1-2,0.2-3.1,0.3
		c-6.3,22.6-15.3,44.5-26.5,65c-8.9,16.2-17,27.3-27.2,41.4l-0.3,0.4c-25.1,34.4-47.4,57.2-60.7,70.8c-23.1,23.6-36.8,34.3-50.3,43
		c-5,3.3-10.2,6.4-15.5,9.3l-7.2-13.1c4.9-2.7,9.8-5.6,14.5-8.7c12.6-8.2,25.6-18.3,47.7-41c13-13.3,34.9-35.6,59.3-69.2l0.3-0.4
		c10.3-14.2,17.7-24.4,26.2-39.7c10.7-19.5,19.2-40.4,25.2-61.9c-1.8-0.8-4.8-2.1-8-3.1c-10-3.3-17.5-5.6-23.4-5.6
		c-2.4,0-4.5,0.4-6.5,1.2c-1.2,0.5-5.1,5.3-11.5,14.1c-7.7,10.7-10.8,15.7-12.9,19.1c-2,3.3-3.2,5.3-6.4,8.7
		c-7.1,7.6-13.1,10.4-18.4,13c-4.7,2.2-9.1,4.4-15.1,10.1c-4.6,4.4-6.2,7.1-8.3,10.8c-1.8,3.1-3.8,6.5-7.6,11.3
		c-9.2,11.4-17.5,15.9-30,22.6c-5.7,3.1-12.9,6.9-21.8,12.3c-8.2,5-10.8,7-15.7,10.7c-5.4,4.1-12.8,9.7-31.7,22.4
		c-20.5,13.8-31.8,21.4-46.2,29.4c-5.2,2.9-7.5,4-48.2,23.1c-8.5,4-17.1,8.7-25.3,13.3c-13.3,7.4-27,15-41.8,20.2l-2.1,0.7
		c-8.7,3-14.1,5.1-16.5,10c-3.6,7.4,1.5,18.2,3.7,21.7c3.3,5.1,6.6,6.9,13.1,10.4c3.7,2,8.3,4.5,13.8,8.1c11,7.4,15.6,13,19.6,17.9
		c3.1,3.8,5.8,7.1,11.7,11.3c8.4,5.9,23.2,9.2,53.2,15.4c13.4,2.8,18.8,3.6,25.5,4.5c6.8,1,15.3,2.2,34.5,5.8c5.6,1.1,26,4.6,51,6.1
		c10.4,0.6,17.8,0.7,25-3.2c2.7-1.5,4-2.7,5.8-4.5c2.3-2.2,5.3-5,10.9-8c5.1-2.7,10.2-4.4,14.6-5.4l-0.7-0.5
		c7.8-11.6,15.5-23.4,22.7-35c6.1-9.9,10.7-17.7,17-28.5c5.5-9.3,12.3-20.9,22.4-37.9c2.6-4.4,4.8-8,6.2-10.4l12.9,7.7
		c-1.4,2.4-3.6,6-6.2,10.4c-10.1,16.9-16.9,28.5-22.3,37.7c-6.4,10.9-11,18.7-17.2,28.8c-5.3,8.6-10.9,17.3-16.6,25.9
		c4.6,0.2,7.8,1,11,1.8c3.1,0.8,6.6,1.7,12.5,2.4l1.1,0.1c11.2,1.3,20.9,2.4,30.4-1.6c9.9-4.3,15.7-11.4,20-16.5
		c3.6-4.5,6.4-8.8,15.6-29.4c4.2-9.4,6-13.9,7.7-17.9c1.4-3.4,2.6-6.3,4.8-11.2C719,827.6,722,822.2,730.6,806.1z"/>
	<path class="st0" d="M683.6,982.8c5-1.9,8.7-4.7,14.7-9.3c7-5.4,13.6-10.4,19-18.9c8.3-12.9,9.2-26.1,9.2-31.2
		c0-7.8-0.1-19.6-7.4-25.2c-2.3-1.7-6.8-4-9.7-3h0c-1.1,0.4-1.6,1.1-3.9,5.1c-1.7,3-3.7,6.7-7.1,11.1c-3.7,4.7-11.7,13.3-23.5,18.8
		c-15.1,7-29.9,5.5-37.1,4.8c-4.1-0.4-6.3-0.9-8.8-1.5c-2.8-0.7-6.3-1.5-14.4-2.7c-12.2-1.8-15.8-1.6-19.2-0.4
		c-2.5,0.9-3.6,1.8-6.1,3.8c-1.2,1-2.6,2.1-4.5,3.5c-0.5,0.4-12.6,9.1-29.5,13.6c-11.1,3-23,1.3-44.5-1.9c-9.1-1.3-13.1-2.2-17.4-3
		c-4.1-0.8-8.4-1.7-18-3.2c-8-1.2-13.2-1.9-18.7-2.6c-6.6-0.8-13.4-1.7-24.9-3.6c-12.3-2-18.5-3-23.5-4.3
		c-6.9-1.8-11.8-3.5-22.6-7.3c-4.1-1.4-9-3.2-15.3-5.3c-7-2.4-14.8-5.1-17.5-5.1c-0.4,0-0.7,0.1-0.8,0.2c-2.1,1.4-2.6,6.7-2.8,8.9
		c-1.2,12.6,6.4,23,13.1,32.2c5.4,7.4,12.2,16.7,24.2,22.6c10.9,5.3,21,5.4,25.8,5.5c81.3,0.8,126.1,1.2,146.8,0l5.7-0.3
		c13.6-0.8,24.3-1.5,40.3-1.7c29.2-0.5,42.5-0.7,48.8,0.1c2.5,0.3,4.7,0.6,6.9,1C670,984.7,676.1,985.6,683.6,982.8z"/>
	<path class="st0" d="M818.8,747.3c17.5-29.9,20.5-40.2,22-47.5c1.9-9.2,4.2-20.6-1.2-30.1c-0.8-1.4-1-1.6-5.4-5.7
		c-2.3-2.1-5.4-4.9-9.8-9.2c-3.8-3.6-6.9-6.6-9.3-9c-2.3-2.3-4.5-4.4-6.1-5.8c-1.7,4.7-4.1,13.1-5.4,17.7c-4.6,16.4-7,24.7-8.2,30.6
		c-1.6,7.7-2.2,12.3-2.8,16.7c-0.7,5.2-1.4,10.2-3.5,18.9c-2.1,8.5-4.2,14.7-6.4,21.3c-5.9,17.6-8.8,26.5-13.4,33.1
		c-1.2,1.8-2.4,3.3-3.4,4.5c-2.5,3.3-3.4,4.4-3.7,6.7c-0.4,3.1,0.3,6.8,1.5,7.8c1.9,1.6,10.3,0.5,22.4-6.9
		C792.3,786.6,799.5,780.5,818.8,747.3z"/>
</g>
</svg>
