<svg id="Capa_1" data-name="Capa 1" xmlns="http://www.w3.org/2000/svg" viewBox="0 0 58.06 33.29">
<path class="color1" style="fill: rgb(255, 255, 255);" d="M57.92,16.64a1,1,0,0,0-1.38-.33L47.65,1.87A1,1,0,0,0,48,.49,1,1,0,0,0,46.6.16L39,4.82A1,1,0,0,0,38.7,6.2l1.55,2.51A6.13,6.13,0,0,1,37,8.06a10.93,10.93,0,0,0-6.18-.91c-4.68-2.5-7.88-1-10.23.17a6.27,6.27,0,0,1-3.24,1L18.71,5.7a1,1,0,0,0-.4-1.36L10.49.12A1,1,0,0,0,9.13.53a1,1,0,0,0,.41,1.35l6.94,3.75-1.7,3.13L9.16,19.18h0l-.75,1.37L1.48,16.81a1,1,0,0,0-1.36.4,1,1,0,0,0,.4,1.36l7.82,4.22a1,1,0,0,0,.48.12,1,1,0,0,0,.88-.53L10.44,21l2,1.1-.36.66A3.09,3.09,0,0,0,13.39,27h0a3,3,0,0,0,1.46.37,3,3,0,0,0,.79-.11A3.07,3.07,0,0,0,17.09,29a3.16,3.16,0,0,0,1.46.37,3,3,0,0,0,.79-.11,3.1,3.1,0,0,0,1.46,1.72,3,3,0,0,0,2.25.26,3.06,3.06,0,0,0,1.45,1.73h0a3,3,0,0,0,1.45.36,3.1,3.1,0,0,0,2.74-1.63,2.45,2.45,0,0,0,.2-.48l.29.17A2.85,2.85,0,0,0,33,30.2a2.88,2.88,0,0,0,.28-.81l1.13.64a2.8,2.8,0,0,0,2.15.22,2.83,2.83,0,0,0,1.67-1.36,3,3,0,0,0,.3-.93,3.45,3.45,0,0,0,.55.07,2.82,2.82,0,0,0,2.49-1.49,2.75,2.75,0,0,0,.28-.82,2.88,2.88,0,0,0,.77.12,2.84,2.84,0,0,0,2.49-1.49,2.83,2.83,0,0,0,.24-2.06l2.4-1.38.88,1.44a1,1,0,0,0,.62.44.85.85,0,0,0,.23,0,1,1,0,0,0,.52-.15L57.59,18A1,1,0,0,0,57.92,16.64ZM43.37,23.4a.82.82,0,0,1-1.1.34l-1.78-1,0,0-1.2-.67L30.44,17.1l-.12,0-1.49-.83a1,1,0,0,0-1,1.75l10.37,5.79,1.28.72a.81.81,0,0,1,.39.48.79.79,0,0,1-.07.62.82.82,0,0,1-1.1.34l-10-5.62-.13,0-1.47-.83a1,1,0,0,0-1,1.75l10,5.63a.82.82,0,0,1,.33,1.12.77.77,0,0,1-.49.39.85.85,0,0,1-.61,0L27,23.52a.65.65,0,0,0-.21-.07l-1.39-.79a1,1,0,0,0-1,1.73l6.55,3.75a.8.8,0,0,1,.39.49.79.79,0,0,1-.06.62.82.82,0,0,1-1.09.35l-1.45-.85a3.18,3.18,0,0,0-1.28-1.29,3.09,3.09,0,0,0-2.25-.26,3,3,0,0,0-3-2.08,3.1,3.1,0,0,0-3.43-2.95,3.07,3.07,0,0,0-1.58-2.23,3.1,3.1,0,0,0-2.37-.24,3.23,3.23,0,0,0-1.22.73l-2.18-1.18.18-.34,4.76-8.8c1.86.57,3.5-.22,5.1-1,1.88-.9,3.8-1.82,6.54-1-.37.18-.76.39-1.15.63l-8.33,5.13a2.83,2.83,0,0,0-1.27,1.75,2.83,2.83,0,0,0,4.24,3.05l7-4.46,4.32,2.39L43,22.29a.77.77,0,0,1,.39.49A.79.79,0,0,1,43.37,23.4Z"></path>
</svg>