<svg id="Capa_2" data-name="Capa 2" xmlns="http://www.w3.org/2000/svg" viewBox="0 0 41.77 41.76">
<path class="color1" style="fill: white;" d="M24.47,23.75c0,.49-.22,2.05-2.82,2.29h0V21.68C23.56,22.16,24.47,22.61,24.47,23.75Zm-6.57-6h0c0,.94.68,1.38,2.14,1.79V15.67C18.88,15.88,17.9,16.55,17.9,17.79Zm23.87,3.09A20.89,20.89,0,1,1,20.89,0,20.91,20.91,0,0,1,41.77,20.88Zm-2,0A18.89,18.89,0,1,0,20.89,39.76,18.9,18.9,0,0,0,39.77,20.88Zm-2.13,0A16.75,16.75,0,1,1,20.89,4.13,16.76,16.76,0,0,1,37.64,20.88Zm-16.8,9a.82.82,0,0,0,.82-.81V27.67c3.24-.28,4.43-2.23,4.43-3.92,0-2.56-2.39-3.25-4.44-3.75V15.68a2.46,2.46,0,0,1,2,2.28.81.81,0,0,0,1.62,0A4.12,4.12,0,0,0,21.65,14V12.71a.82.82,0,0,0-1.63,0V14c-2.21.29-3.75,1.78-3.75,3.76,0,2.24,1.9,3,3.76,3.49V26a3.25,3.25,0,0,1-2.72-3.33.81.81,0,0,0-1.62,0,4.86,4.86,0,0,0,4.34,5v1.41A.81.81,0,0,0,20.84,29.86Z"></path>
</svg>