<?xml version="1.0" encoding="utf-8"?>
<!-- Generator: Adobe Illustrator 24.3.0, SVG Export Plug-In . SVG Version: 6.00 Build 0)  -->
<svg version="1.1" id="Capa_1" xmlns="http://www.w3.org/2000/svg" xmlns:xlink="http://www.w3.org/1999/xlink" x="0px" y="0px"
	 viewBox="0 0 841.9 595.3" style="enable-background:new 0 0 841.9 595.3;" xml:space="preserve">
<style type="text/css">
	.st0{fill:#009640;}
	.st1{fill:#F9B233;}
	.st2{fill:#3C3C3B;}
	.st3{fill:none;stroke:#F6F6F6;stroke-width:5;stroke-miterlimit:10;stroke-dasharray:5;}
	.st4{fill:#F6F6F6;}
	.st5{fill:#F7D5C6;}
	.st6{fill:#525251;}
	.st7{fill:#B4937F;}
	.st8{fill:#E5B9A0;}
	.st9{fill:#454444;}
	.st10{fill:#FFFFFF;}
	.st11{fill:#B28478;}
	.st12{fill:#858584;}
	.st13{fill:#E73C34;}
	.st14{fill:none;}
	.st15{font-family:'BreeSerif-Regular';}
	.st16{font-size:48px;}
	.st17{fill:#009FE3;}
	.st18{fill:#1A9DD9;}
	.st19{fill:#3764AD;}
	.st20{clip-path:url(#XMLID_8_);fill:#1D71B8;}
	.st21{clip-path:url(#XMLID_9_);fill:#1D71B8;}
	.st22{clip-path:url(#XMLID_10_);fill:#1D71B8;}
	.st23{clip-path:url(#XMLID_11_);fill:#1D71B8;}
	.st24{clip-path:url(#XMLID_12_);fill:#1D71B8;}
	.st25{clip-path:url(#XMLID_13_);fill:#1D71B8;}
</style>
<image style="overflow:visible;" width="1766" height="1250" xlink:href="86CABF6F.png"  transform="matrix(0.4769 0 0 0.4769 0 0)">
</image>
<g id="zona-burgues">
	<path id="zona-verde" class="st0" d="M397.6,200.3c-2.5-9.7,7-20.8,26.1-42.7c17.9-20.5,21.9-20.4,32.4-35.6
		c7.8-11.2,16-23.4,18.2-41.1c0.6-5.3,1.9-16.8-2.4-30.1c-5.5-16.9-15.3-22.1-12.7-27.7c1.8-3.8,13.6-3.9,37.2-4
		c33.7,0,41.7,0,41.7,0c17.1,0.1,21.2,0.1,28.2,0.1c12.9,0,18.1-0.2,29.5-0.3c13.7-0.1,26.1-0.1,50.9-0.1
		c24.5,0.1,36.7,0.1,42.7,0.3c16.4,0.5,21.6,1.1,36.7,1.1c8.1,0,11.4-0.3,23.7-0.3c10.6,0,9.8,0.2,22.7,0.2c4.1,0,12.4,0,22.8,0.3
		c13.9,0.4,15.4,0.9,16.8,2.1c2.7,2.2,3.2,5.3,4,25.8c0.5,13.1,0.6,19.4,0.6,19.4c0.2,14,0.2,24.4,0.2,24.9c0,16.4,0,29.8,0.3,43
		c0.3,17.2,0.7,17.5,1.3,41.7c0.6,25.1,0.3,31-1.6,38.8c-2.1,8.8-4.8,20.1-13.5,28.5c-11.3,11-26.9,11.6-38.8,11.9
		c-59.1,1.5-88.6-1.6-88.6-1.6c-46.2-4.7-69.3-7.1-91-7.9c-49.7-1.8-55.8,3-86.2-3.2c-14.1-2.8-30.5-9-63.3-21.4
		C406,211.3,399.4,207.2,397.6,200.3z"/>
	
		<image style="overflow:visible;" width="627" height="398" xlink:href="../../../../Downloads/image-removebg-preview (33).png"  transform="matrix(0.2239 0 0 0.2239 561.444 80.1955)">
	</image>
	
		<image style="overflow:visible;" width="370" height="386" xlink:href="../../../../Downloads/sticker-png-london-city-axonometric-projection-isometric-projection-building-drawing-architecture-house-isometric-video-game-graphics-thumbnail-removebg-preview.png"  transform="matrix(0.2103 0 0 0.2103 734.4169 1.0766)">
	</image>
</g>
<g id="zona-industrial-2">
	<path id="zona-amarilla-2" class="st1" d="M370,302.3c0.8-16.4,3-29,4-34c1.8-9.3,1.2-10.1,1.8-13.1c1.7-8.2,4-13.9,6.7-20.3
		c4.3-10.3,6.5-15.5,10.1-16.8c1-0.4,3.1-0.9,14.3,2.6c8.9,2.8,13.6,4.9,13.6,4.9c15.9,7.1,34.5,14.3,43.9,17.6
		c8.9,3.2,16.2,5.8,26.7,8.1c15.9,3.5,28.1,4,32.8,4.1c10.9,0.2,18.6-0.7,22.8-1.1c24.1-2.4,43.6,1.9,59.9,3.7
		c54.1,6,114.9,10.8,171.7,9.5c21.7-0.3,37.8,10.5,34.8,36.4c0,7.6-1.7,14.5-5.9,20.1c-4,5.4-9.1,7.8-13.9,10
		c-8.1,3.8-12.2,3.4-25.7,6.1c-5.3,1.1-15.9,3.2-26.3,6.9c-8.3,2.9-13.7,5.9-16.5,7.2c-11.9,5.8-26.1,8.9-51.1,10.5
		c-27.7,1.8-35.3-0.2-92.2-1.2c-44.4-0.8-53.5,0.2-58.4,0.9c-6.3,0.8-18.2,2.6-35.2,3.3c-9.8,0.4-17.9,0.4-23.3,0.2
		c-8.8-0.1-17.6-0.1-26.3-0.2c-4.5,0-8.4-0.1-11.4-0.2c-1.4,0-8.6-0.1-18-0.8c-17.8-1.4-17.2-0.6-20.4-1.8c-3.3-1.2-9.8-3.6-14-9.7
		c-3.1-4.3-3.5-13.2-4.3-30.9C369.8,322.1,369.2,318.1,370,302.3z"/>
	
		<image style="overflow:visible;" width="500" height="500" xlink:href="../../../../Downloads/tower-bridge-in-london-icon-isom-removebg-preview.png"  transform="matrix(0.2015 0 0 0.2015 521.9255 193.3261)">
	</image>
	
		<image style="overflow:visible;" width="390" height="280" xlink:href="../../../../Downloads/isometric-industrial-plant-facto-removebg-preview.png"  transform="matrix(0.2728 0 0 0.2728 361.2901 292.7211)">
	</image>
</g>
<g id="zona-industrial-1">
	<path id="zona-amarilla-1" class="st1" d="M163.5,483.5c-3-0.5-23.5-4.8-35.6-22.2c-8.7-12.5-8.2-25.4-7.9-47.5
		c0-3,0.5-4.9,1.2-14.3c1.2-15.4,1.2-19.1,1.9-26c0.6-6.2,1.9-15.3,4.7-26.4c1-5.2,3.6-13.9,11.1-19.5c5.8-4.4,12-4.9,18.2-5.5
		c35.6-3.9,41.5-2,55.1-5.9c7.1-2,17.9-5.3,28-14.6c10.5-9.7,15.1-21.7,15.8-23.7c0.9-2.5,1.6-4.8,2.2-7c2.9-10.4,3.7-18.5,4.1-22.3
		c0,0,1.4-14.4,4.7-30.9c2.3-11.1,3.6-12.7,11.1-36.4c5.6-17.9,9.4-31.6,11.9-40.4c6.4-23,9.8-34.4,10.3-39.6
		c1.2-11.7,3.4-32.3-7.1-51.4c-7.5-13.6-18.8-18.5-16.6-23.7c1.5-3.7,8.3-4.1,21.2-4.7c12.4-0.6,18.4,0.3,32.6,0.8
		c9.4,0.3,19.1,0.7,31.6,0c10.2-0.6,11.4-1.2,28.4-2.5c12.3-0.9,18.6-1.4,23.7-1.1c10,0.6,19.2,1.2,28.6,6.7
		c1.9,1.1,15.1,9.3,20.6,25.3c1.5,4.4,5.7,19.1-7.1,46.7c-11.9,25.6-27.4,38.3-39.6,51.4c-28.9,31.2-39.6,65.2-48.3,91.8
		c-9.9,30.1-21.8,66.3-15.8,109.7c2,14.9,6.5,33.3-0.3,56.7c-1.9,6.6-6.6,22.1-19.8,35.9c-12.6,13.2-26.9,17.2-55.1,26.4
		c0,0-29.6,9.3-67.3,13.5c-11.9,1.3-21.3,1.6-27.4,1.6C173,484.4,168.2,484.4,163.5,483.5z"/>
	
		<image style="overflow:visible;" width="528" height="472" xlink:href="../../../../Downloads/image-removebg-preview (30).png"  transform="matrix(0.1557 0 0 0.1557 206.0115 288.6204)">
	</image>
	
		<image style="overflow:visible;" width="360" height="414" xlink:href="../../../../Downloads/arquitectura-isometrica-fabrica-removebg-preview.png"  transform="matrix(0.2377 0 0 0.2377 304.888 -4.3233)">
	</image>
	<g id="tren">
		<defs>
			<path id="SVGID_1_" d="M280.4,113.7c18.2,6,29,14.3,41.6,22.9c6.8,4.7,27.8,18.7,50.9,30.6c28.7,14.7,42.7,16.6,46.3,29.3
				c2,7,0.3,16.1-5.1,20.8c-10.1,8.8-30.4,0.1-48-7.6c-35.4-15.6-34.8-25.5-70-44.2c-27.7-14.7-45-17.5-48.4-32.3
				c-1.6-6.9,0-15.9,5.6-20.4C256.2,110.5,262.3,107.8,280.4,113.7z"/>
		</defs>
		<clipPath id="SVGID_2_">
			<use xlink:href="#SVGID_1_"  style="overflow:visible;"/>
		</clipPath>
		<g transform="matrix(1 0 0 1 0 7.629395e-06)" style="clip-path:url(#SVGID_2_);">
			
				<image style="overflow:visible;" width="612" height="315" xlink:href="../../../../Downloads/istockphoto-1647099700-612x612-removebg-preview.png"  transform="matrix(0.3577 0 0 0.3577 253.2778 107.0639)">
			</image>
		</g>
	</g>
</g>
<g id="zona-obrera-2_1_">
	<path id="zona-obrera-2" class="st2" d="M809.9,352.2c-10.3-9.1-29.6-4.8-43.3-1.8c-7.2,1.6-12.9,3.8-24.3,8.2
		c-17.3,6.7-19.5,9.4-32,13.1c-11.1,3.3-20.3,4.3-25.3,4.9c-10,1.1-17.7,1-25.3,0.9c-3,0-10.4-0.4-25.3-1.2
		c-8.1-0.4-12.3-0.6-16.7-0.9c-8.8-0.6-10.8-0.8-17.4-1.2c-4.9-0.3-7.9-0.3-16.2-0.5c-5.7-0.1-14.5-0.4-25.8-0.7
		c-3.3-0.4-7.9-0.7-13.3-0.1c-18.6,2.1-37.1,13.9-45.6,29.3c-15.3,27.6,6.4,52.5-8.4,66.5c-5,4.6-9.8,4.1-36.9,5.8
		c-38.7,2.4-21,2.9-52.7,4.2c-65.6,2.7-75.8-2.3-120.3,2.1c-25,2.5-17.5,3.7-49.6,7.4c-60.9,7.1-87.1,2.8-98.5,20.4
		c-6.9,10.7-6.9,27.2-6.8,30.4c0.2,12.7,4.1,22.2,5,24.1c11.3,24.4,77.7,19.8,159.8,17.4c65.8-1.9,53.7,0.2,148.2-2.1
		c44-1.1,64.9-2,106.5-2.1c32.9-0.1,53.8-0.1,83.6,0.7c26.8,0.7,44.8,1.9,75.7,1.5c24.1-0.3,22.4-1,35.3-0.6
		c3.7,0.1,24.6,0.9,43.9-1.1c3.6-0.4,12.4-1.4,19.6-7.4c2.4-2,4-4.1,4.6-4.9c2-2.7,4.6-7.4,5.8-16.1c1-7.1-0.3-10.3-0.9-20.3
		c-0.1-2-0.2-3.8,0.3-20.8c0.4-15.1,0.9-27,1.1-32.2c0.7-18.6,1-27.9,1.1-30.3c0.2-9.3,0.1-16.4-0.3-33.8
		C814.3,358.9,813.6,355.5,809.9,352.2z"/>
	
		<image style="overflow:visible;" width="426" height="585" xlink:href="../../../../Downloads/depositphotos_453220022-stock-il-removebg-preview.png"  transform="matrix(0.2153 0 0 0.2153 551.2592 411.4002)">
	</image>
</g>
<g id="zona-obrera-1_1_">
	<path id="zona-obrera-1" class="st2" d="M26,490.1c-5.5-7.3-7.1-16.2-8.4-23.7c-2.2-12.6-0.6-21.6,0.5-32.2
		c0-0.3,0.4-15.5,1.1-45.9c0.4-17,0.6-36.6,1.1-76c0.3-27.9,0.3-28,0.5-48c0.4-26.6,1-40.7,1.1-61.2c0.1-30.1-1.1-28.9-0.4-50
		c0.4-12.4,1-15.4,1.6-33.6c0.7-19.7,1-29.6,0.8-35.2C23.2,68.7,21.6,60.7,25,48c1.5-5.6,2.4-9.2,4.7-12.7
		c8.7-13.2,28.6-13.2,61.7-14.2c49.1-1.5,33.6-2.3,70.8-2.8c43.7-0.5,54.5,0.7,66.5,3.6c17.1,4.1,32.9,8.1,44.7,21.8
		c8.2,9.6,12.2,22.2,14.2,42.7c0.8,8.1,0.8,15.1,0.2,21.7c-3.1,32.9-16.1,55.4-25.5,88.3c-11.2,39-12.6,76.7-28.5,92.3
		c-8.7,8.5-17.8,12.1-17.8,12.1c-6,2.4-12.2,3.4-19.1,4.5c-3.3,0.5-6.5,1.2-12,1.5c-17.7,1-26.6,1.5-30.6,2.3
		c-3.4,0.8-14.2,3-22.5,9.9c-12.3,10.2-14.1,25.3-18.2,49.8c-2,12-4.5,29.2-2.6,50.6c1,11.7,1.2,23.5,2.9,35.1
		c0.8,5.8,1.7,10.6,0.5,17.1c0,0-1.9,11.6-10.3,20.6C84.9,512.8,41.6,510.6,26,490.1z"/>
	
		<image style="overflow:visible;" width="426" height="585" xlink:href="../../../../Downloads/depositphotos_453220022-stock-il-removebg-preview.png"  transform="matrix(0.2235 0 0 0.2235 89.5664 66.6458)">
	</image>
</g>
<path id="camino-lineal" class="st3" d="M68.5,532.6c-1.6-18.4-3.7-47.6-3.7-83.9c0-36.3,2-44.6,2.1-85.4
	c0.1-32.9-1.2-33.2-2.6-90.1c-1.3-57.2-0.5-80.3,0.2-95.1c2.3-45.8,3.7-69.1,14-84c17.5-25.2,50.9-40.3,84.1-37.8
	c21.6,1.6,60.3,11.1,69.9,37.7c6.6,18.5-6.7,28.7-27.3,84.5c-15.8,42.7-21.9,74.3-24,86.2c-6.3,35.8-10.7,61.2-1.6,91.3
	c4.4,14.5,17.2,56.5,48.7,62.6c27.7,5.4,55-19.9,67.4-40.2c11.5-18.9,7.2-28.7,14.9-79.3c5.6-36.9,12.8-63.9,18.4-84.9
	c10.2-38.1,16.3-61.3,31.2-89.6c17.5-33.2,29.3-55.7,54-67.6c19.4-9.3,27.6-3,96.2,0c24.9,1.1,48,1.1,94.1,1.1
	c69.7,0,74.5-2.2,93,2.8c20.5,5.5,64.2,17.4,79.5,56.2c11,27.8,6.2,66.7-16.6,84.4c-7.5,5.8-19.3,11.3-96.3,0
	c-39.1-5.7-61.2-10.8-104.2-18c-78-13-89.3-10.2-99-5.1c-31.4,16.5-53.2,61.9-39.7,94.7c11.5,28,44.8,37.1,71.5,44.4
	c36.4,9.9,66.9,6.7,105.2,2.2c73.7-8.6,83.5-23.8,110.8-13.5c41.5,15.8,57.6,65.7,63.7,84.7c8,24.7,23.2,72.2-4.4,107.1
	c-24.5,30.9-75.4,42.8-95.4,25c-22.2-19.9,9.7-62.6-13.7-91.8c-23.5-29.2-91-29.2-115.3,0.5c-24.6,30,8.6,73.6-15.3,97
	c-16.6,16.2-39.1,1.7-109.2-1.5c-38.2-1.8-30.2,2.7-130.5,6.3c-49.8,1.8-58,1-108.7,2.8c-48.3,1.7-87.3,4.1-112,5.8"/>
<image style="overflow:visible;" width="512" height="512" id="casilla-inicio" xlink:href="../../../../Downloads/217853.png"  transform="matrix(0.1198 0 0 0.1198 38.4724 510.9473)">
</image>
<g id="zona-obrera-etiqueta_1_">
	<path class="st2" d="M464.1,402.2H374c-3,0-5.4-2.4-5.4-5.4v-14.2c0-3,2.4-5.4,5.4-5.4h90.1c3,0,5.4,2.4,5.4,5.4v14.2
		C469.5,399.7,467.1,402.2,464.1,402.2z"/>
	<g>
		<g>
			<path class="st4" d="M374.7,393.7v-1.1l4.2-6.2h-2.6l-0.1,1.1h-1.3l0.1-2.5h6.2v1.1l-4.3,6.2h3l0.1-1.1h1.3l-0.1,2.5H374.7z"/>
			<path class="st4" d="M385.1,393.8c-0.6,0-1.2-0.1-1.6-0.4c-0.5-0.3-0.8-0.7-1.1-1.2c-0.2-0.5-0.4-1.1-0.4-1.7v-0.1
				c0-0.6,0.1-1.2,0.4-1.7c0.2-0.5,0.6-0.9,1-1.2c0.5-0.3,1-0.4,1.6-0.4c0.6,0,1.2,0.1,1.6,0.4c0.5,0.3,0.8,0.7,1,1.2
				c0.2,0.5,0.4,1.1,0.4,1.7v0.1c0,0.6-0.1,1.2-0.4,1.7c-0.2,0.5-0.6,0.9-1,1.2C386.3,393.7,385.7,393.8,385.1,393.8z M385.1,392.5
				c0.3,0,0.5-0.1,0.7-0.2c0.2-0.2,0.3-0.4,0.4-0.7c0.1-0.3,0.1-0.6,0.1-1v-0.1c0-0.4,0-0.7-0.1-1c-0.1-0.3-0.2-0.5-0.4-0.7
				c-0.2-0.2-0.4-0.2-0.7-0.2c-0.3,0-0.5,0.1-0.7,0.2c-0.2,0.2-0.3,0.4-0.4,0.7c-0.1,0.3-0.1,0.6-0.1,1v0.1c0,0.4,0,0.7,0.1,1
				c0.1,0.3,0.2,0.5,0.4,0.7C384.5,392.4,384.8,392.5,385.1,392.5z"/>
			<path class="st4" d="M388.8,393.7v-1l0.8-0.2v-4l-0.9-0.2v-1.1h2.6l0.1,0.9c0.2-0.3,0.5-0.6,0.8-0.8c0.3-0.2,0.7-0.3,1.1-0.3
				c0.6,0,1.1,0.2,1.5,0.6c0.4,0.4,0.5,1.1,0.5,1.9v2.8l0.8,0.2v1h-3.3v-1l0.7-0.2v-2.8c0-0.4-0.1-0.7-0.3-0.9
				c-0.2-0.2-0.4-0.3-0.8-0.3c-0.3,0-0.5,0.1-0.7,0.2c-0.2,0.1-0.3,0.3-0.5,0.5v3.4l0.7,0.2v1H388.8z"/>
			<path class="st4" d="M398.9,393.8c-0.6,0-1.2-0.2-1.5-0.5s-0.6-0.8-0.6-1.4c0-0.6,0.2-1.1,0.7-1.5c0.5-0.4,1.2-0.6,2.2-0.6h0.9
				v-0.5c0-0.3-0.1-0.6-0.3-0.8s-0.5-0.3-0.8-0.3c-0.2,0-0.4,0-0.5,0.1c-0.1,0-0.3,0.1-0.4,0.2l-0.1,0.9h-1.3l0-1.7
				c0.3-0.2,0.7-0.3,1.1-0.5s0.8-0.2,1.3-0.2c0.8,0,1.5,0.2,2,0.6c0.5,0.4,0.7,1,0.7,1.7v2.7c0,0.1,0,0.2,0,0.3c0,0.1,0,0.2,0,0.2
				l0.7,0.1v1h-2.2c0-0.1-0.1-0.2-0.1-0.4c0-0.1-0.1-0.3-0.1-0.4c-0.2,0.3-0.5,0.5-0.7,0.6S399.3,393.8,398.9,393.8z M399.3,392.5
				c0.2,0,0.5-0.1,0.7-0.2c0.2-0.1,0.4-0.3,0.5-0.4v-1h-0.9c-0.4,0-0.7,0.1-0.9,0.3c-0.2,0.2-0.3,0.4-0.3,0.6c0,0.2,0.1,0.4,0.2,0.5
				C398.9,392.5,399.1,392.5,399.3,392.5z"/>
			<path class="st4" d="M409.7,393.8c-0.6,0-1.2-0.1-1.6-0.4c-0.5-0.3-0.8-0.7-1.1-1.2s-0.4-1.1-0.4-1.7v-0.1c0-0.6,0.1-1.2,0.4-1.7
				s0.6-0.9,1-1.2c0.5-0.3,1-0.4,1.6-0.4c0.6,0,1.2,0.1,1.6,0.4c0.5,0.3,0.8,0.7,1,1.2c0.2,0.5,0.4,1.1,0.4,1.7v0.1
				c0,0.6-0.1,1.2-0.4,1.7c-0.2,0.5-0.6,0.9-1,1.2C410.9,393.7,410.3,393.8,409.7,393.8z M409.7,392.5c0.3,0,0.5-0.1,0.7-0.2
				s0.3-0.4,0.4-0.7c0.1-0.3,0.1-0.6,0.1-1v-0.1c0-0.4,0-0.7-0.1-1c-0.1-0.3-0.2-0.5-0.4-0.7s-0.4-0.2-0.8-0.2
				c-0.3,0-0.5,0.1-0.7,0.2c-0.2,0.2-0.3,0.4-0.4,0.7c-0.1,0.3-0.1,0.6-0.1,1v0.1c0,0.4,0,0.7,0.1,1c0.1,0.3,0.2,0.5,0.4,0.7
				C409.1,392.4,409.4,392.5,409.7,392.5z"/>
			<path class="st4" d="M417.3,393.8c-0.4,0-0.7-0.1-1-0.2c-0.3-0.2-0.5-0.4-0.7-0.7l-0.1,0.8h-1.5v-8.1l-0.9-0.2v-1.1h2.7v3.5
				c0.2-0.3,0.4-0.5,0.7-0.6c0.3-0.1,0.6-0.2,1-0.2c0.5,0,1,0.1,1.3,0.4c0.4,0.3,0.6,0.7,0.8,1.2c0.2,0.5,0.3,1.1,0.3,1.8v0.1
				c0,0.6-0.1,1.2-0.3,1.7c-0.2,0.5-0.5,0.8-0.8,1.1C418.3,393.7,417.8,393.8,417.3,393.8z M416.8,392.5c0.4,0,0.8-0.2,1-0.5
				s0.3-0.8,0.3-1.3v-0.1c0-0.4,0-0.8-0.1-1.1c-0.1-0.3-0.2-0.5-0.4-0.7c-0.2-0.2-0.4-0.3-0.7-0.3c-0.3,0-0.5,0.1-0.7,0.2
				s-0.3,0.3-0.4,0.5v2.7c0.1,0.2,0.3,0.3,0.5,0.5C416.3,392.4,416.5,392.5,416.8,392.5z"/>
			<path class="st4" d="M420.7,393.7v-1l0.8-0.2v-4l-0.9-0.2v-1.1h2.6l0.1,0.8l0,0.1c0.2-0.4,0.4-0.6,0.6-0.8
				c0.2-0.2,0.5-0.3,0.8-0.3c0.1,0,0.2,0,0.3,0c0.1,0,0.2,0,0.3,0.1l-0.2,1.6l-0.9,0c-0.2,0-0.4,0-0.6,0.1s-0.3,0.2-0.4,0.4v3.2
				l0.8,0.2v1H420.7z"/>
			<path class="st4" d="M429,393.8c-0.6,0-1.2-0.1-1.6-0.4c-0.5-0.3-0.8-0.6-1.1-1.1c-0.3-0.5-0.4-1-0.4-1.6v-0.2
				c0-0.6,0.1-1.2,0.4-1.7s0.6-0.9,1-1.2s1-0.4,1.5-0.4c0.6,0,1.1,0.1,1.5,0.3c0.4,0.2,0.7,0.6,0.9,1c0.2,0.4,0.3,1,0.3,1.6v1h-3.8
				l0,0c0,0.3,0.1,0.5,0.2,0.8c0.1,0.2,0.3,0.4,0.5,0.5c0.2,0.1,0.5,0.2,0.8,0.2c0.3,0,0.6,0,0.9-0.1c0.3-0.1,0.5-0.2,0.8-0.4
				l0.5,1.1c-0.3,0.2-0.6,0.4-1,0.5C429.9,393.8,429.5,393.8,429,393.8z M427.7,389.8h2.2v-0.2c0-0.3,0-0.5-0.1-0.7
				c-0.1-0.2-0.2-0.3-0.3-0.4s-0.4-0.2-0.6-0.2c-0.2,0-0.4,0.1-0.6,0.2c-0.2,0.1-0.3,0.3-0.4,0.5
				C427.8,389.3,427.7,389.5,427.7,389.8L427.7,389.8z"/>
			<path class="st4" d="M432.4,393.7v-1l0.8-0.2v-4l-0.9-0.2v-1.1h2.6l0.1,0.8l0,0.1c0.2-0.4,0.4-0.6,0.6-0.8
				c0.2-0.2,0.5-0.3,0.8-0.3c0.1,0,0.2,0,0.3,0c0.1,0,0.2,0,0.3,0.1l-0.2,1.6l-0.9,0c-0.2,0-0.4,0-0.6,0.1s-0.3,0.2-0.4,0.4v3.2
				l0.8,0.2v1H432.4z"/>
			<path class="st4" d="M439.8,393.8c-0.6,0-1.2-0.2-1.5-0.5c-0.4-0.3-0.6-0.8-0.6-1.4c0-0.6,0.2-1.1,0.7-1.5
				c0.5-0.4,1.2-0.6,2.2-0.6h0.9v-0.5c0-0.3-0.1-0.6-0.3-0.8s-0.5-0.3-0.8-0.3c-0.2,0-0.4,0-0.5,0.1s-0.3,0.1-0.4,0.2l-0.1,0.9H438
				l0-1.7c0.3-0.2,0.7-0.3,1.1-0.5c0.4-0.1,0.8-0.2,1.3-0.2c0.8,0,1.5,0.2,2,0.6c0.5,0.4,0.7,1,0.7,1.7v2.7c0,0.1,0,0.2,0,0.3
				c0,0.1,0,0.2,0,0.2l0.7,0.1v1h-2.2c0-0.1-0.1-0.2-0.1-0.4c0-0.1-0.1-0.3-0.1-0.4c-0.2,0.3-0.5,0.5-0.7,0.6
				S440.1,393.8,439.8,393.8z M440.2,392.5c0.2,0,0.5-0.1,0.7-0.2c0.2-0.1,0.4-0.3,0.5-0.4v-1h-0.9c-0.4,0-0.7,0.1-0.9,0.3
				c-0.2,0.2-0.3,0.4-0.3,0.6c0,0.2,0.1,0.4,0.2,0.5C439.8,392.5,440,392.5,440.2,392.5z"/>
		</g>
	</g>
	<g>
		<g>
			<polygon class="st5" points="451.3,380.6 451.3,400.1 460.1,405.1 460.1,385.7 			"/>
			<polygon class="st6" points="460.1,385.7 474.3,377.5 465.4,372.4 451.3,380.6 			"/>
			<polygon class="st5" points="460.1,384.9 473,377.5 465.4,373.2 452.6,380.6 			"/>
			<polygon class="st7" points="474.3,377.5 474.3,397 460.1,405.1 460.1,385.7 			"/>
			<g>
				<path class="st6" d="M465.4,371.2l-14.2,8.2l8.9,5.1l14.1-8.2L465.4,371.2z M452.6,379.4l12.8-7.4l7.5,4.3l-12.8,7.4
					L452.6,379.4z"/>
				<path class="st6" d="M465.4,372.4l-14.2,8.2l8.9,5.1l14.1-8.2L465.4,372.4z M452.6,380.6l12.8-7.4l7.5,4.3l-12.8,7.4
					L452.6,380.6z"/>
				<polygon class="st5" points="451.3,379.4 451.3,381.2 460.1,395.7 460.1,384.5 				"/>
				<polygon class="st7" points="460.1,384.5 460.1,395.6 474.3,378 474.3,376.3 				"/>
				<polygon class="st8" points="465.4,372 465.4,373.2 471.9,376.9 473,376.3 				"/>
				<polygon class="st7" points="452.6,379.4 465.4,372 465.4,373.2 453.6,380 				"/>
			</g>
		</g>
		<g>
			<polygon class="st8" points="461.5,375.7 461.5,376.6 464.7,378.4 464.7,377.5 			"/>
			<polygon class="st9" points="464.7,377.5 467.9,375.7 464.7,373.9 461.5,375.7 			"/>
			<polygon class="st7" points="467.9,375.7 467.9,376.6 464.7,378.4 464.7,377.5 			"/>
			<g>
				<polyline class="st5" points="464.7,377.1 467.2,375.7 464.7,374.3 				"/>
				<polyline class="st7" points="464.7,377.1 462.2,375.7 464.7,374.3 				"/>
				<path class="st6" d="M464.7,374l-2.9,1.7l2.9,1.7l2.9-1.7L464.7,374z M462.7,375.7l2-1.2l2,1.2l-2,1.2L462.7,375.7z"/>
			</g>
		</g>
		<g>
			<polygon class="st8" points="472,374.7 472,376.9 470,378 470,375.8 			"/>
			<polygon class="st9" points="470,375.8 468.1,374.7 470,373.6 472,374.7 			"/>
			<polygon class="st7" points="468.1,374.7 468.1,376.9 470,378 470,375.8 			"/>
		</g>
		<polygon class="st7" points="469.5,375.7 469.5,377.7 468.7,377.2 468.7,377.2 468.7,377.2 468.6,377.2 468.6,375.2 		"/>
		<polygon class="st9" points="469.5,375.9 469.5,377.7 468.7,377.2 468.7,375.4 		"/>
		<g>
			<polygon class="st10" points="461,387.1 461,389.5 468.2,385.6 468.2,383.3 			"/>
			<g>
				<polygon class="st11" points="461.3,387.2 461,387 468.1,382.9 468.4,383.1 				"/>
				<polygon class="st7" points="461,387 461,389.6 461.3,389.8 461.3,387.2 				"/>
				<polygon class="st11" points="468.1,385.5 468.4,385.7 468.4,383.1 468.1,383.3 				"/>
				<polygon class="st11" points="468.1,385.5 461.3,389.4 461.3,389.8 468.4,385.7 				"/>
				<path class="st5" d="M461.3,387.2v2.5l7.1-4.1v-2.5L461.3,387.2z M461.4,387.3l6.9-4v2.3l-6.9,4V387.3z"/>
				<path class="st8" d="M468.4,383.1"/>
			</g>
		</g>
		<g>
			<polygon class="st10" points="461.2,391 461.2,393.4 468.4,389.5 468.4,387.1 			"/>
			<g>
				<polygon class="st11" points="461.5,391.1 461.1,390.9 468.2,386.8 468.6,387 				"/>
				<polygon class="st7" points="461.1,390.9 461.1,393.4 461.5,393.6 461.5,391.1 				"/>
				<polygon class="st11" points="468.2,389.3 468.6,389.5 468.6,387 468.2,387.2 				"/>
				<polygon class="st11" points="468.2,389.3 461.5,393.2 461.5,393.6 468.6,389.5 				"/>
				<path class="st5" d="M461.5,391.1v2.5l7.1-4.1V387L461.5,391.1z M461.6,391.2l6.9-4v2.3l-6.9,4V391.2z"/>
				<path class="st8" d="M468.6,387"/>
			</g>
		</g>
		<g>
			<polygon class="st10" points="461.6,395.2 461.6,397.5 468.8,393.7 468.8,391.3 			"/>
			<g>
				<polygon class="st11" points="461.9,395.2 461.6,395 468.7,390.9 469,391.2 				"/>
				<polygon class="st7" points="461.6,395 461.6,397.6 462,397.8 462,395.2 				"/>
				<polygon class="st11" points="468.7,393.5 469.1,393.7 469.1,391.2 468.7,391.4 				"/>
				<polygon class="st11" points="468.7,393.5 462,397.4 462,397.8 469.1,393.7 				"/>
				<path class="st5" d="M462,395.2v2.5l7.1-4.1v-2.5L462,395.2z M462.1,395.3l6.9-4v2.3l-6.9,4V395.3z"/>
				<path class="st8" d="M469.1,391.2"/>
			</g>
		</g>
		<g>
			<g>
				<polygon class="st9" points="453.6,401.4 453.6,401.4 453.6,401.4 454.5,401.9 454.8,402.1 456.3,402.9 456.3,399.8 
					455.4,399.3 455.4,399.3 455.1,399.1 454.4,398.7 454.4,398.7 454.2,398.6 453.6,398.3 453.6,399.2 454.2,398.9 454.2,400 
					453.6,400.3 				"/>
				<polygon class="st8" points="453.6,401.4 454.2,401 454.2,398.6 453.6,398.3 				"/>
				<polygon class="st5" points="453.6,401.4 456.3,402.9 456.3,402.3 454.1,401 				"/>
			</g>
			<path class="st9" d="M454.9,399"/>
			<polygon class="st6" points="454.1,401 454.5,401.2 455.1,401.6 455.1,399.1 454.4,398.7 454.2,398.6 454.2,398.9 454.2,400 			
				"/>
			<polygon class="st12" points="454.2,400 455.1,399.5 455.4,399.3 455.1,399.1 454.4,398.7 454.2,398.9 			"/>
			<polygon class="st12" points="454.4,401.2 456.3,400.1 456.3,401.2 455.4,401.8 			"/>
		</g>
		<g>
			<polygon class="st10" points="458.7,387.3 458.7,389.4 456.6,388.5 456.6,386.4 			"/>
			<g>
				<polygon class="st11" points="458.3,387.4 458.8,387.2 456.8,386 456.3,386.3 				"/>
				<polygon class="st7" points="458.8,387.2 458.8,389.5 458.3,389.7 458.3,387.4 				"/>
				<polygon class="st11" points="456.7,388.3 456.3,388.6 456.3,386.3 456.7,386.5 				"/>
				<polygon class="st11" points="456.7,388.3 458.3,389.2 458.3,389.7 456.3,388.6 				"/>
				<path class="st5" d="M456.3,386.3v2.3l2,1.2v-2.3L456.3,386.3z M458.2,389.5l-1.7-1v-2l1.7,1V389.5z"/>
				<path class="st8" d="M456.3,386.3"/>
			</g>
		</g>
		<g>
			<polygon class="st10" points="455.1,385.6 455.1,387.7 452.9,386.9 452.9,384.8 			"/>
			<g>
				<polygon class="st11" points="454.6,385.7 455.1,385.5 453.1,384.3 452.6,384.6 				"/>
				<polygon class="st7" points="455.1,385.5 455.1,387.8 454.6,388 454.6,385.7 				"/>
				<polygon class="st11" points="453.1,386.6 452.6,386.9 452.6,384.6 453.1,384.8 				"/>
				<polygon class="st11" points="453.1,386.6 454.6,387.5 454.6,388 452.6,386.9 				"/>
				<path class="st5" d="M452.6,384.6v2.3l2,1.2v-2.3L452.6,384.6z M454.5,387.8l-1.7-1v-2l1.7,1V387.8z"/>
				<path class="st8" d="M452.6,384.6"/>
			</g>
		</g>
		<g>
			<polygon class="st10" points="458.7,391.5 458.7,393.6 456.6,392.7 456.6,390.6 			"/>
			<g>
				<polygon class="st11" points="458.3,391.6 458.8,391.4 456.8,390.2 456.3,390.5 				"/>
				<polygon class="st7" points="458.8,391.4 458.8,393.7 458.3,393.9 458.3,391.6 				"/>
				<polygon class="st11" points="456.7,392.5 456.3,392.8 456.3,390.5 456.7,390.7 				"/>
				<polygon class="st11" points="456.7,392.5 458.3,393.4 458.3,393.9 456.3,392.8 				"/>
				<path class="st5" d="M456.3,390.5v2.3l2,1.2v-2.3L456.3,390.5z M458.2,393.7l-1.7-1v-2l1.7,1V393.7z"/>
				<path class="st8" d="M456.3,390.5"/>
			</g>
		</g>
		<g>
			<polygon class="st10" points="455.1,389.8 455.1,391.9 452.9,391.1 452.9,388.9 			"/>
			<g>
				<polygon class="st11" points="454.6,389.9 455.1,389.7 453.1,388.5 452.6,388.8 				"/>
				<polygon class="st7" points="455.1,389.7 455.1,392 454.6,392.2 454.6,389.9 				"/>
				<polygon class="st11" points="453.1,390.8 452.6,391.1 452.6,388.8 453.1,389 				"/>
				<polygon class="st11" points="453.1,390.8 454.6,391.7 454.6,392.2 452.6,391.1 				"/>
				<path class="st5" d="M452.6,388.8v2.3l2,1.2v-2.3L452.6,388.8z M454.5,392l-1.7-1v-2l1.7,1V392z"/>
				<path class="st8" d="M452.6,388.8"/>
			</g>
		</g>
		<g>
			<polygon class="st10" points="458.7,395.3 458.7,397.4 456.6,396.6 456.6,394.5 			"/>
			<g>
				<polygon class="st11" points="458.3,395.4 458.8,395.2 456.8,394 456.3,394.3 				"/>
				<polygon class="st7" points="458.8,395.2 458.8,397.5 458.3,397.7 458.3,395.4 				"/>
				<polygon class="st11" points="456.7,396.3 456.3,396.6 456.3,394.3 456.7,394.5 				"/>
				<polygon class="st11" points="456.7,396.3 458.3,397.2 458.3,397.7 456.3,396.6 				"/>
				<path class="st5" d="M456.3,394.3v2.3l2,1.2v-2.3L456.3,394.3z M458.2,397.5l-1.7-1v-2l1.7,1V397.5z"/>
				<path class="st8" d="M456.3,394.3"/>
			</g>
		</g>
		<g>
			<polygon class="st10" points="455.1,393.6 455.1,395.7 452.9,394.9 452.9,392.8 			"/>
			<g>
				<polygon class="st11" points="454.6,393.8 455.1,393.5 453.1,392.3 452.6,392.6 				"/>
				<polygon class="st7" points="455.1,393.5 455.1,395.8 454.6,396.1 454.6,393.8 				"/>
				<polygon class="st11" points="453.1,394.7 452.6,394.9 452.6,392.6 453.1,392.9 				"/>
				<polygon class="st11" points="453.1,394.7 454.6,395.6 454.6,396.1 452.6,394.9 				"/>
				<path class="st5" d="M452.6,392.6v2.3l2,1.2v-2.3L452.6,392.6z M454.5,395.8l-1.7-1v-2l1.7,1V395.8z"/>
				<path class="st8" d="M452.6,392.6"/>
			</g>
		</g>
		<polygon class="st5" points="473.9,397.2 473.9,397.2 470.7,399 470.7,395.4 473.9,393.5 		"/>
		<polygon class="st10" points="473.9,397.2 470.7,395.4 470.7,399 		"/>
	</g>
</g>
<g id="zona-industrial-etiqueta">
	<g>
		<path class="st1" d="M472.8,433.4h-105c-3,0-5.4-2.4-5.4-5.4v-14.2c0-3,2.4-5.4,5.4-5.4h105c3,0,5.4,2.4,5.4,5.4V428
			C478.2,431,475.8,433.4,472.8,433.4z"/>
		<g>
			<g>
				<path class="st4" d="M366.9,425v-1.1l4.2-6.1h-2.6l-0.1,1.1H367l0.1-2.4h6.1v1.1l-4.2,6.1h3l0.1-1.1h1.3l-0.1,2.4H366.9z"/>
				<path class="st4" d="M377,425.1c-0.6,0-1.2-0.1-1.6-0.4s-0.8-0.7-1-1.1s-0.4-1-0.4-1.7v-0.1c0-0.6,0.1-1.2,0.4-1.7
					s0.6-0.9,1-1.1s1-0.4,1.6-0.4c0.6,0,1.2,0.1,1.6,0.4s0.8,0.7,1,1.1s0.4,1,0.4,1.7v0.1c0,0.6-0.1,1.2-0.4,1.7s-0.6,0.9-1,1.1
					S377.7,425.1,377,425.1z M377,423.8c0.3,0,0.5-0.1,0.7-0.2s0.3-0.4,0.4-0.7s0.1-0.6,0.1-1v-0.1c0-0.4,0-0.7-0.1-1
					s-0.2-0.5-0.4-0.7s-0.4-0.2-0.7-0.2c-0.3,0-0.5,0.1-0.7,0.2s-0.3,0.4-0.4,0.7s-0.1,0.6-0.1,1v0.1c0,0.4,0,0.7,0.1,1
					s0.2,0.5,0.4,0.7S376.7,423.8,377,423.8z"/>
				<path class="st4" d="M380.7,425v-1l0.8-0.2v-3.9l-0.9-0.2v-1h2.5l0.1,0.9c0.2-0.3,0.5-0.6,0.8-0.8s0.7-0.3,1.1-0.3
					c0.6,0,1.1,0.2,1.5,0.6s0.5,1,0.5,1.9v2.8l0.8,0.2v1h-3.3v-1l0.7-0.2V421c0-0.4-0.1-0.7-0.3-0.9s-0.4-0.3-0.8-0.3
					c-0.2,0-0.5,0.1-0.6,0.2s-0.3,0.3-0.5,0.4v3.3l0.7,0.2v1H380.7z"/>
				<path class="st4" d="M390.6,425.1c-0.6,0-1.1-0.2-1.5-0.5s-0.6-0.8-0.6-1.4c0-0.6,0.2-1.1,0.7-1.5s1.2-0.6,2.1-0.6h0.8v-0.5
					c0-0.3-0.1-0.6-0.3-0.7s-0.4-0.3-0.8-0.3c-0.2,0-0.3,0-0.5,0.1s-0.3,0.1-0.4,0.2l-0.1,0.8h-1.2l0-1.6c0.3-0.2,0.7-0.3,1.1-0.5
					s0.8-0.2,1.3-0.2c0.8,0,1.5,0.2,2,0.6s0.7,0.9,0.7,1.6v2.6c0,0.1,0,0.2,0,0.3s0,0.2,0,0.2l0.7,0.1v1h-2.1c0-0.1-0.1-0.2-0.1-0.4
					s-0.1-0.2-0.1-0.4c-0.2,0.3-0.4,0.5-0.7,0.6S390.9,425.1,390.6,425.1z M391,423.8c0.2,0,0.5-0.1,0.7-0.2s0.4-0.2,0.5-0.4v-1
					h-0.8c-0.4,0-0.7,0.1-0.9,0.3s-0.3,0.4-0.3,0.6c0,0.2,0.1,0.4,0.2,0.5S390.8,423.8,391,423.8z"/>
				<path class="st4" d="M398.1,425v-1l0.8-0.2v-3.9l-0.9-0.2v-1h2.6v5.1l0.8,0.2v1H398.1z M398.9,417.3v-1.5h1.8v1.5H398.9z"/>
				<path class="st4" d="M401.9,425v-1l0.8-0.2v-3.9l-0.9-0.2v-1h2.5l0.1,0.9c0.2-0.3,0.5-0.6,0.8-0.8s0.7-0.3,1.1-0.3
					c0.6,0,1.1,0.2,1.5,0.6s0.5,1,0.5,1.9v2.8l0.8,0.2v1h-3.3v-1l0.7-0.2V421c0-0.4-0.1-0.7-0.3-0.9s-0.4-0.3-0.8-0.3
					c-0.2,0-0.5,0.1-0.6,0.2s-0.3,0.3-0.5,0.4v3.3l0.7,0.2v1H401.9z"/>
				<path class="st4" d="M412.1,425.1c-0.5,0-0.9-0.1-1.3-0.4s-0.6-0.6-0.8-1.1s-0.3-1-0.3-1.6v-0.1c0-0.7,0.1-1.3,0.3-1.8
					s0.5-0.9,0.8-1.2s0.8-0.4,1.3-0.4c0.3,0,0.7,0.1,0.9,0.2s0.5,0.3,0.7,0.6V417l-0.9-0.2v-1h0.9h1.7v7.9l0.8,0.2v1h-2.3l-0.1-0.8
					c-0.2,0.3-0.4,0.5-0.7,0.7S412.5,425.1,412.1,425.1z M412.6,423.8c0.2,0,0.4-0.1,0.6-0.2s0.3-0.2,0.5-0.4v-2.7
					c-0.1-0.2-0.3-0.4-0.4-0.5s-0.4-0.2-0.6-0.2c-0.3,0-0.5,0.1-0.7,0.3s-0.3,0.4-0.4,0.7s-0.1,0.7-0.1,1v0.1c0,0.6,0.1,1,0.3,1.3
					S412.2,423.8,412.6,423.8z"/>
				<path class="st4" d="M419.5,425.1c-0.7,0-1.2-0.2-1.6-0.6s-0.6-1.1-0.6-2v-2.6l-0.7-0.2v-1h0.7h1.7v3.9c0,0.5,0.1,0.8,0.2,1
					s0.4,0.3,0.7,0.3c0.3,0,0.5,0,0.7-0.1s0.4-0.2,0.5-0.4v-3.4l-0.8-0.2v-1h0.8h1.7v5.1l0.8,0.2v1h-2.3l-0.1-0.8
					c-0.2,0.3-0.4,0.5-0.8,0.7S419.8,425.1,419.5,425.1z"/>
				<path class="st4" d="M427,425.1c-0.5,0-0.9,0-1.3-0.1s-0.8-0.2-1.2-0.4l0-1.8h1.2l0.2,0.9c0.1,0.1,0.3,0.1,0.4,0.2
					s0.3,0.1,0.5,0.1c0.4,0,0.7-0.1,0.8-0.2s0.2-0.3,0.2-0.5c0-0.2-0.1-0.3-0.2-0.5s-0.5-0.3-1-0.4c-0.8-0.2-1.3-0.4-1.7-0.7
					s-0.5-0.7-0.5-1.3c0-0.4,0.1-0.7,0.3-1s0.4-0.5,0.8-0.7s0.8-0.3,1.4-0.3c0.5,0,0.9,0,1.3,0.1s0.7,0.2,1,0.4l0,1.7h-1.2l-0.2-0.8
					c-0.1-0.1-0.2-0.1-0.4-0.2s-0.3-0.1-0.5-0.1c-0.3,0-0.5,0.1-0.7,0.2s-0.2,0.3-0.2,0.5c0,0.1,0,0.2,0.1,0.3s0.2,0.2,0.3,0.3
					s0.4,0.2,0.7,0.2c0.8,0.2,1.4,0.4,1.7,0.7s0.5,0.7,0.5,1.3c0,0.6-0.2,1.1-0.6,1.4S427.8,425.1,427,425.1z"/>
				<path class="st4" d="M432.8,425.1c-0.6,0-1-0.2-1.4-0.5s-0.5-0.8-0.5-1.5v-3.2h-0.9v-1.2h0.9v-1.6h1.7v1.6h1.2v1.2h-1.2v3.2
					c0,0.2,0.1,0.4,0.2,0.5s0.2,0.2,0.4,0.2c0.1,0,0.2,0,0.3,0s0.2,0,0.3,0l0.1,1.2c-0.2,0.1-0.4,0.1-0.6,0.1S433,425.1,432.8,425.1
					z"/>
				<path class="st4" d="M434.7,425v-1l0.8-0.2v-3.9l-0.9-0.2v-1h2.5l0.1,0.8l0,0.1c0.2-0.3,0.3-0.6,0.6-0.8s0.5-0.3,0.8-0.3
					c0.1,0,0.2,0,0.3,0s0.2,0,0.3,0.1l-0.2,1.6l-0.8,0c-0.2,0-0.4,0-0.6,0.1s-0.3,0.2-0.4,0.4v3.1l0.8,0.2v1H434.7z"/>
				<path class="st4" d="M439.7,425v-1l0.8-0.2v-3.9l-0.9-0.2v-1h2.6v5.1l0.8,0.2v1H439.7z M440.5,417.3v-1.5h1.8v1.5H440.5z"/>
				<path class="st4" d="M445.8,425.1c-0.6,0-1.1-0.2-1.5-0.5s-0.6-0.8-0.6-1.4c0-0.6,0.2-1.1,0.7-1.5s1.2-0.6,2.1-0.6h0.8v-0.5
					c0-0.3-0.1-0.6-0.3-0.7s-0.4-0.3-0.8-0.3c-0.2,0-0.3,0-0.5,0.1s-0.3,0.1-0.4,0.2l-0.1,0.8h-1.2l0-1.6c0.3-0.2,0.7-0.3,1.1-0.5
					s0.8-0.2,1.3-0.2c0.8,0,1.5,0.2,2,0.6s0.7,0.9,0.7,1.6v2.6c0,0.1,0,0.2,0,0.3s0,0.2,0,0.2l0.7,0.1v1h-2.1c0-0.1-0.1-0.2-0.1-0.4
					s-0.1-0.2-0.1-0.4c-0.2,0.3-0.4,0.5-0.7,0.6S446.2,425.1,445.8,425.1z M446.2,423.8c0.2,0,0.5-0.1,0.7-0.2s0.4-0.2,0.5-0.4v-1
					h-0.8c-0.4,0-0.7,0.1-0.9,0.3s-0.3,0.4-0.3,0.6c0,0.2,0.1,0.4,0.2,0.5S446,423.8,446.2,423.8z"/>
				<path class="st4" d="M450.3,425v-1l0.8-0.2V417l-0.9-0.2v-1h2.6v7.9l0.8,0.2v1H450.3z"/>
			</g>
		</g>
	</g>
	
		<image style="overflow:visible;" width="360" height="414" xlink:href="../../../../Downloads/arquitectura-isometrica-fabrica-removebg-preview.png"  transform="matrix(0.1171 0 0 0.1171 452.5705 390.2756)">
	</image>
</g>
<g id="zona-burgues-etiqueta">
	<g>
		<path class="st0" d="M476.7,465H363.6c-3,0-5.4-2.4-5.4-5.4v-14.2c0-3,2.4-5.4,5.4-5.4h113.1c3,0,5.4,2.4,5.4,5.4v14.2
			C482.1,462.6,479.7,465,476.7,465z"/>
		<g>
			<g>
				<path class="st4" d="M364.2,456.6v-1l0.9-0.2v-6.2l-0.9-0.2v-1.1h0.9h2.9c0.8,0,1.5,0.2,2.1,0.5c0.6,0.4,1.1,0.9,1.4,1.5
					c0.3,0.6,0.5,1.4,0.5,2.2v0.2c0,0.8-0.2,1.6-0.5,2.2c-0.3,0.6-0.8,1.1-1.4,1.5c-0.6,0.4-1.3,0.5-2,0.5H364.2z M366.9,455.2h1.1
					c0.5,0,0.9-0.1,1.2-0.4c0.3-0.3,0.6-0.6,0.8-1c0.2-0.4,0.3-0.9,0.3-1.5v-0.2c0-0.6-0.1-1.1-0.3-1.5s-0.4-0.8-0.8-1
					c-0.3-0.2-0.7-0.4-1.2-0.4h-1.1V455.2z"/>
				<path class="st4" d="M372.7,456.6v-1l0.8-0.2v-4l-0.9-0.2v-1.1h2.7v5.2l0.8,0.2v1H372.7z M373.5,448.7v-1.5h1.8v1.5H373.5z"/>
				<path class="st4" d="M379.5,456.7c-0.5,0-0.9,0-1.3-0.1c-0.4-0.1-0.8-0.2-1.2-0.4l0-1.8h1.2l0.2,0.9c0.1,0.1,0.3,0.1,0.4,0.2
					c0.2,0,0.3,0.1,0.6,0.1c0.4,0,0.7-0.1,0.8-0.2c0.2-0.1,0.2-0.3,0.2-0.5c0-0.2-0.1-0.3-0.3-0.5s-0.5-0.3-1-0.4
					c-0.8-0.2-1.3-0.4-1.7-0.7s-0.5-0.8-0.5-1.3c0-0.4,0.1-0.7,0.3-1s0.5-0.5,0.8-0.7s0.8-0.3,1.4-0.3c0.5,0,0.9,0,1.3,0.1
					c0.4,0.1,0.7,0.2,1,0.4l0,1.8h-1.2l-0.2-0.8c-0.1-0.1-0.2-0.1-0.4-0.2c-0.1,0-0.3-0.1-0.5-0.1c-0.3,0-0.5,0.1-0.7,0.2
					c-0.2,0.1-0.2,0.3-0.2,0.5c0,0.1,0,0.2,0.1,0.3c0.1,0.1,0.2,0.2,0.3,0.3c0.2,0.1,0.4,0.2,0.7,0.2c0.8,0.2,1.4,0.4,1.8,0.7
					c0.4,0.3,0.5,0.7,0.5,1.3c0,0.6-0.2,1.1-0.7,1.5C381,456.5,380.4,456.7,379.5,456.7z"/>
				<path class="st4" d="M385.4,456.7c-0.6,0-1.1-0.2-1.4-0.5c-0.3-0.3-0.5-0.9-0.5-1.6v-3.3h-0.9v-1.2h0.9v-1.6h1.7v1.6h1.2v1.2
					h-1.2v3.3c0,0.3,0.1,0.4,0.2,0.5c0.1,0.1,0.2,0.2,0.4,0.2c0.1,0,0.2,0,0.3,0s0.2,0,0.3,0l0.1,1.3c-0.2,0.1-0.4,0.1-0.6,0.1
					C385.9,456.7,385.6,456.7,385.4,456.7z"/>
				<path class="st4" d="M387.4,456.6v-1l0.8-0.2v-4l-0.9-0.2v-1.1h2.6l0.1,0.8l0,0.1c0.2-0.4,0.4-0.6,0.6-0.8
					c0.2-0.2,0.5-0.3,0.8-0.3c0.1,0,0.2,0,0.3,0s0.2,0,0.3,0.1l-0.2,1.6l-0.9,0c-0.2,0-0.4,0-0.6,0.1s-0.3,0.2-0.4,0.4v3.2l0.8,0.2
					v1H387.4z"/>
				<path class="st4" d="M392.5,456.6v-1l0.8-0.2v-4l-0.9-0.2v-1.1h2.7v5.2l0.8,0.2v1H392.5z M393.3,448.7v-1.5h1.8v1.5H393.3z"/>
				<path class="st4" d="M399.1,456.7c-0.6,0-1.1-0.2-1.4-0.5c-0.3-0.3-0.5-0.9-0.5-1.6v-3.3h-0.9v-1.2h0.9v-1.6h1.7v1.6h1.2v1.2
					h-1.2v3.3c0,0.3,0.1,0.4,0.2,0.5s0.2,0.2,0.4,0.2c0.1,0,0.2,0,0.3,0s0.2,0,0.3,0l0.1,1.3c-0.2,0.1-0.4,0.1-0.6,0.1
					C399.5,456.7,399.3,456.7,399.1,456.7z"/>
				<path class="st4" d="M404,456.7c-0.6,0-1.2-0.1-1.6-0.4c-0.5-0.3-0.8-0.7-1.1-1.2s-0.4-1.1-0.4-1.7v-0.1c0-0.6,0.1-1.2,0.4-1.7
					s0.6-0.9,1-1.2c0.5-0.3,1-0.4,1.6-0.4c0.6,0,1.2,0.1,1.6,0.4c0.5,0.3,0.8,0.7,1,1.2c0.2,0.5,0.4,1.1,0.4,1.7v0.1
					c0,0.6-0.1,1.2-0.4,1.7c-0.2,0.5-0.6,0.9-1,1.2C405.2,456.5,404.6,456.7,404,456.7z M404,455.3c0.3,0,0.5-0.1,0.7-0.2
					s0.3-0.4,0.4-0.7c0.1-0.3,0.1-0.6,0.1-1v-0.1c0-0.4,0-0.7-0.1-1c-0.1-0.3-0.2-0.5-0.4-0.7s-0.4-0.2-0.8-0.2
					c-0.3,0-0.5,0.1-0.7,0.2c-0.2,0.2-0.3,0.4-0.4,0.7c-0.1,0.3-0.1,0.6-0.1,1v0.1c0,0.4,0,0.7,0.1,1c0.1,0.3,0.2,0.5,0.4,0.7
					C403.5,455.3,403.7,455.3,404,455.3z"/>
				<path class="st4" d="M414.6,456.7c-0.4,0-0.7-0.1-1-0.2c-0.3-0.2-0.5-0.4-0.7-0.7l-0.1,0.8h-1.5v-8.1l-0.9-0.2v-1.1h2.7v3.5
					c0.2-0.3,0.4-0.5,0.7-0.6c0.3-0.1,0.6-0.2,1-0.2c0.5,0,1,0.1,1.3,0.4c0.4,0.3,0.6,0.7,0.8,1.2c0.2,0.5,0.3,1.1,0.3,1.8v0.1
					c0,0.6-0.1,1.2-0.3,1.7c-0.2,0.5-0.5,0.8-0.8,1.1C415.6,456.6,415.1,456.7,414.6,456.7z M414.1,455.3c0.4,0,0.8-0.2,1-0.5
					s0.3-0.8,0.3-1.3v-0.1c0-0.4,0-0.8-0.1-1.1c-0.1-0.3-0.2-0.5-0.4-0.7c-0.2-0.2-0.4-0.3-0.7-0.3c-0.3,0-0.5,0.1-0.7,0.2
					s-0.3,0.3-0.4,0.5v2.7c0.1,0.2,0.3,0.3,0.5,0.5C413.6,455.3,413.8,455.3,414.1,455.3z"/>
				<path class="st4" d="M420.6,456.7c-0.7,0-1.2-0.2-1.6-0.6c-0.4-0.4-0.6-1.1-0.6-2v-2.7l-0.7-0.2v-1.1h0.7h1.7v3.9
					c0,0.5,0.1,0.8,0.2,1s0.4,0.3,0.7,0.3c0.3,0,0.5-0.1,0.7-0.2c0.2-0.1,0.4-0.2,0.5-0.4v-3.4l-0.8-0.2v-1.1h0.8h1.7v5.2l0.8,0.2v1
					h-2.3l-0.1-0.8c-0.2,0.3-0.5,0.5-0.8,0.7C421.4,456.6,421,456.7,420.6,456.7z"/>
				<path class="st4" d="M425.6,456.6v-1l0.8-0.2v-4l-0.9-0.2v-1.1h2.6l0.1,0.8l0,0.1c0.2-0.4,0.4-0.6,0.6-0.8
					c0.2-0.2,0.5-0.3,0.8-0.3c0.1,0,0.2,0,0.3,0c0.1,0,0.2,0,0.3,0.1l-0.2,1.6l-0.9,0c-0.2,0-0.4,0-0.6,0.1s-0.3,0.2-0.4,0.4v3.2
					l0.8,0.2v1H425.6z"/>
				<path class="st4" d="M433.7,459.2c-0.3,0-0.7,0-1.1-0.1c-0.4-0.1-0.8-0.2-1.1-0.4l0.3-1.2c0.3,0.1,0.6,0.2,0.9,0.3
					s0.6,0.1,0.9,0.1c0.5,0,0.8-0.1,1-0.4c0.2-0.3,0.3-0.6,0.3-1.1v-0.4c-0.2,0.2-0.4,0.4-0.7,0.6c-0.3,0.1-0.6,0.2-0.9,0.2
					c-0.5,0-1-0.1-1.4-0.4c-0.4-0.3-0.7-0.6-0.9-1.1c-0.2-0.5-0.3-1-0.3-1.7v-0.1c0-0.7,0.1-1.3,0.3-1.8c0.2-0.5,0.5-0.9,0.9-1.2
					c0.4-0.3,0.8-0.4,1.3-0.4c0.4,0,0.7,0.1,1,0.2c0.3,0.2,0.5,0.4,0.7,0.7l0.1-0.8h1.5v6.3c0,0.6-0.1,1.1-0.4,1.5
					c-0.2,0.4-0.6,0.7-1,1C434.8,459.1,434.3,459.2,433.7,459.2z M433.8,455.3c0.2,0,0.5,0,0.6-0.1c0.2-0.1,0.3-0.2,0.4-0.4v-2.8
					c-0.1-0.2-0.3-0.3-0.4-0.5c-0.2-0.1-0.4-0.2-0.6-0.2c-0.3,0-0.5,0.1-0.7,0.3c-0.2,0.2-0.3,0.4-0.4,0.7s-0.1,0.7-0.1,1.1v0.1
					c0,0.6,0.1,1,0.3,1.3S433.4,455.3,433.8,455.3z M436.4,451.4l-0.8-1.3h1.7v1.1L436.4,451.4z"/>
				<path class="st4" d="M440.7,456.7c-0.7,0-1.2-0.2-1.6-0.6c-0.4-0.4-0.6-1.1-0.6-2v-2.7l-0.7-0.2v-1.1h0.7h1.7v3.9
					c0,0.5,0.1,0.8,0.2,1s0.4,0.3,0.7,0.3c0.3,0,0.5-0.1,0.7-0.2s0.4-0.2,0.5-0.4v-3.4l-0.8-0.2v-1.1h0.8h1.7v5.2l0.8,0.2v1h-2.3
					l-0.1-0.8c-0.2,0.3-0.5,0.5-0.8,0.7C441.4,456.6,441.1,456.7,440.7,456.7z"/>
				<path class="st4" d="M448.7,456.7c-0.6,0-1.2-0.1-1.6-0.4c-0.5-0.3-0.8-0.6-1.1-1.1c-0.3-0.5-0.4-1-0.4-1.6v-0.2
					c0-0.6,0.1-1.2,0.4-1.7s0.6-0.9,1-1.2s1-0.4,1.5-0.4c0.6,0,1.1,0.1,1.5,0.3c0.4,0.2,0.7,0.6,0.9,1c0.2,0.4,0.3,1,0.3,1.6v1h-3.8
					l0,0c0,0.3,0.1,0.5,0.2,0.8c0.1,0.2,0.3,0.4,0.5,0.5c0.2,0.1,0.5,0.2,0.8,0.2c0.3,0,0.6,0,0.9-0.1c0.3-0.1,0.5-0.2,0.8-0.4
					l0.5,1.1c-0.3,0.2-0.6,0.4-1,0.5C449.7,456.6,449.2,456.7,448.7,456.7z M447.4,452.7h2.2v-0.2c0-0.3,0-0.5-0.1-0.7
					c-0.1-0.2-0.2-0.3-0.3-0.4s-0.4-0.2-0.6-0.2c-0.2,0-0.4,0.1-0.6,0.2c-0.2,0.1-0.3,0.3-0.4,0.5
					C447.5,452.2,447.4,452.4,447.4,452.7L447.4,452.7z M447.4,448.9l1.2-1.6h1.8l0,0l-1.6,1.6H447.4L447.4,448.9z"/>
				<path class="st4" d="M454.8,456.7c-0.5,0-0.9,0-1.3-0.1c-0.4-0.1-0.8-0.2-1.2-0.4l0-1.8h1.2l0.2,0.9c0.1,0.1,0.3,0.1,0.4,0.2
					c0.2,0,0.3,0.1,0.6,0.1c0.4,0,0.7-0.1,0.8-0.2c0.2-0.1,0.2-0.3,0.2-0.5c0-0.2-0.1-0.3-0.3-0.5s-0.5-0.3-1-0.4
					c-0.8-0.2-1.3-0.4-1.7-0.7c-0.4-0.3-0.5-0.8-0.5-1.3c0-0.4,0.1-0.7,0.3-1s0.5-0.5,0.8-0.7c0.4-0.2,0.8-0.3,1.4-0.3
					c0.5,0,0.9,0,1.3,0.1c0.4,0.1,0.7,0.2,1,0.4l0,1.8h-1.2l-0.2-0.8c-0.1-0.1-0.2-0.1-0.4-0.2c-0.1,0-0.3-0.1-0.5-0.1
					c-0.3,0-0.5,0.1-0.7,0.2s-0.2,0.3-0.2,0.5c0,0.1,0,0.2,0.1,0.3c0.1,0.1,0.2,0.2,0.3,0.3c0.2,0.1,0.4,0.2,0.7,0.2
					c0.8,0.2,1.4,0.4,1.8,0.7c0.4,0.3,0.5,0.7,0.5,1.3c0,0.6-0.2,1.1-0.7,1.5C456.3,456.5,455.7,456.7,454.8,456.7z"/>
			</g>
		</g>
	</g>
	
		<image style="overflow:visible;" width="482" height="518" xlink:href="../../../../Downloads/casa-antigua-estilo-victoriano-i-removebg-preview.png"  transform="matrix(7.431082e-02 0 0 7.431082e-02 456.3775 430.0497)">
	</image>
</g>
<g id="casillas-situacion">
	<g>
		<circle class="st13" cx="64.4" cy="452.3" r="30.7"/>
		<rect x="43.9" y="424.8" class="st14" width="40.9" height="50.9"/>
		<text transform="matrix(1 0 0 1 53.9599 470.2101)" class="st4 st15 st16">?</text>
	</g>
	<g>
		<circle class="st13" cx="64.4" cy="273.2" r="30.7"/>
		<rect x="43.9" y="245.7" class="st14" width="40.9" height="50.9"/>
		<text transform="matrix(1 0 0 1 53.9599 291.0864)" class="st4 st15 st16">?</text>
	</g>
	<g>
		<circle class="st13" cx="235.8" cy="94.1" r="30.7"/>
		<rect x="215.4" y="66.5" class="st14" width="40.9" height="50.9"/>
		<text transform="matrix(1 0 0 1 225.4544 111.8911)" class="st4 st15 st16">?</text>
	</g>
	<g>
		<circle class="st13" cx="179.7" cy="262.9" r="30.7"/>
		<rect x="159.2" y="235.2" class="st14" width="40.9" height="50.9"/>
		<text transform="matrix(1 0 0 1 169.2786 280.6509)" class="st4 st15 st16">?</text>
	</g>
	<g>
		<circle class="st13" cx="299" cy="379.5" r="30.7"/>
		<rect x="278.6" y="350.9" class="st14" width="40.9" height="50.9"/>
		<text transform="matrix(1 0 0 1 288.6239 396.3329)" class="st4 st15 st16">?</text>
	</g>
	<g>
		<circle class="st13" cx="364.2" cy="120.6" r="30.7"/>
		<rect x="343.2" y="93.3" class="st14" width="40.9" height="50.9"/>
		<text transform="matrix(1 0 0 1 353.2267 138.6853)" class="st4 st15 st16">?</text>
	</g>
	<g>
		<circle class="st13" cx="512.8" cy="58.3" r="30.7"/>
		<rect x="493.3" y="29.6" class="st14" width="40.9" height="50.9"/>
		<text transform="matrix(1 0 0 1 503.3775 75.0191)" class="st4 st15 st16">?</text>
	</g>
	<g>
		<circle class="st13" cx="777" cy="117.2" r="30.7"/>
		<rect x="756.6" y="88.9" class="st14" width="40.9" height="50.9"/>
		<text transform="matrix(1 0 0 1 766.6412 134.3374)" class="st4 st15 st16">?</text>
	</g>
	<g>
		<circle class="st13" cx="460.9" cy="178.5" r="30.7"/>
		<rect x="440.3" y="149.8" class="st14" width="40.9" height="50.9"/>
		<text transform="matrix(1 0 0 1 450.3813 195.2049)" class="st4 st15 st16">?</text>
	</g>
	<g>
		<circle class="st13" cx="496" cy="317.4" r="30.7"/>
		<rect x="475.5" y="290" class="st14" width="40.9" height="50.9"/>
		<text transform="matrix(1 0 0 1 485.5643 335.4452)" class="st4 st15 st16">?</text>
	</g>
	<g>
		<circle class="st13" cx="715.7" cy="309.5" r="30.7"/>
		<rect x="696.3" y="280" class="st14" width="40.9" height="50.9"/>
		<text transform="matrix(1 0 0 1 706.3226 325.4403)" class="st4 st15 st16">?</text>
	</g>
	<g>
		<circle class="st13" cx="670.5" cy="521" r="30.7"/>
		<rect x="651" y="491.6" class="st14" width="40.9" height="50.9"/>
		<text transform="matrix(1 0 0 1 661.1116 537.0034)" class="st4 st15 st16">?</text>
	</g>
	<g>
		<circle class="st13" cx="421.9" cy="525.6" r="30.7"/>
		<rect x="401.5" y="496.2" class="st14" width="40.9" height="50.9"/>
		<text transform="matrix(1 0 0 1 411.5583 541.6062)" class="st4 st15 st16">?</text>
	</g>
	<g>
		<circle class="st13" cx="179.7" cy="536.3" r="30.7"/>
		<rect x="159.2" y="508.1" class="st14" width="40.9" height="50.9"/>
		<text transform="matrix(1 0 0 1 169.2787 553.5056)" class="st4 st15 st16">?</text>
	</g>
</g>
<g id="casillas-vacias">
	<circle class="st4" cx="64.4" cy="365.8" r="30.7"/>
	<circle class="st4" cx="78.6" cy="94.1" r="30.7"/>
	<circle class="st4" cx="522.4" cy="525.6" r="30.7"/>
	<circle class="st4" cx="549" cy="434.7" r="30.7"/>
	<circle class="st4" cx="767.8" cy="498.1" r="30.7"/>
	<circle class="st4" cx="421.1" cy="273.2" r="30.7"/>
	<circle class="st4" cx="561.8" cy="183.6" r="30.7"/>
	<circle class="st4" cx="760.4" cy="201.6" r="30.7"/>
	<circle class="st4" cx="604.5" cy="58.3" r="30.7"/>
	<circle class="st4" cx="312.4" cy="300.2" r="30.7"/>
	<circle class="st4" cx="179.7" cy="356" r="30.7"/>
	<circle class="st4" cx="205.2" cy="178.5" r="30.7"/>
</g>
<g id="casillas-especiales">
	<g>
		<circle class="st17" cx="163.1" cy="58.3" r="30.7"/>
		
			<image style="overflow:visible;" width="512" height="512" xlink:href="../../../../Downloads/4072251.png"  transform="matrix(0.1011 0 0 0.1011 137.1757 36.7703)">
		</image>
	</g>
	<g>
		<circle class="st18" cx="415.5" cy="58.3" r="30.7"/>
		
			<image style="overflow:visible;" width="512" height="512" xlink:href="../../../../Downloads/4072251.png"  transform="matrix(0.1011 0 0 0.1011 389.2088 36.7703)">
		</image>
	</g>
	<g>
		<circle class="st18" cx="694.7" cy="58.3" r="30.7"/>
		
			<image style="overflow:visible;" width="512" height="512" xlink:href="../../../../Downloads/4072251.png"  transform="matrix(0.1011 0 0 0.1011 668.868 36.7703)">
		</image>
	</g>
	<g>
		<circle class="st18" cx="601" cy="317.4" r="30.7"/>
		
			<image style="overflow:visible;" width="512" height="512" xlink:href="../../../../Downloads/4072251.png"  transform="matrix(0.1011 0 0 0.1011 575.1098 296.274)">
		</image>
	</g>
	<g>
		<circle class="st18" cx="654.4" cy="427.2" r="30.7"/>
		
			<image style="overflow:visible;" width="512" height="512" xlink:href="../../../../Downloads/4072251.png"  transform="matrix(0.1011 0 0 0.1011 628.5164 406.0544)">
		</image>
	</g>
</g>
<g id="casillas-dados">
	<g>
		<circle class="st19" cx="64.4" cy="183.6" r="30.7"/>
		<g>
			<defs>
				<path id="XMLID_7_" d="M75.4,197.5H51.9c-1.2,0-2.1-0.9-2.1-2.1v-23.5c0-1.2,0.9-2.1,2.1-2.1h23.5c1.2,0,2.1,0.9,2.1,2.1v23.5
					C77.5,196.5,76.5,197.5,75.4,197.5z"/>
			</defs>
			<use xlink:href="#XMLID_7_"  style="overflow:visible;fill:#FFFFFF;"/>
			<clipPath id="XMLID_8_">
				<use xlink:href="#XMLID_7_"  style="overflow:visible;"/>
			</clipPath>
			<circle class="st20" cx="56.2" cy="176.4" r="4"/>
			<circle class="st20" cx="63.6" cy="183.6" r="4"/>
			<circle class="st20" cx="63.6" cy="183.6" r="4"/>
			<circle class="st20" cx="71.1" cy="191.3" r="4"/>
		</g>
	</g>
	<g>
		<circle class="st19" cx="229.2" cy="419.9" r="30.7"/>
		<g>
			<defs>
				<path id="XMLID_1_" d="M240.9,433.7h-23.5c-1.2,0-2.1-0.9-2.1-2.1v-23.5c0-1.2,0.9-2.1,2.1-2.1h23.5c1.2,0,2.1,0.9,2.1,2.1v23.5
					C243,432.8,242.1,433.7,240.9,433.7z"/>
			</defs>
			<use xlink:href="#XMLID_1_"  style="overflow:visible;fill:#FFFFFF;"/>
			<clipPath id="XMLID_9_">
				<use xlink:href="#XMLID_1_"  style="overflow:visible;"/>
			</clipPath>
			<circle class="st21" cx="221.7" cy="412.7" r="4"/>
			<circle class="st21" cx="236.6" cy="427.5" r="4"/>
		</g>
	</g>
	<g>
		<circle class="st19" cx="328.6" cy="218.4" r="30.7"/>
		<g>
			<defs>
				<path id="XMLID_4_" d="M341.2,232.7h-24.4c-1.2,0-2.1-0.9-2.1-2.1v-24.4c0-1.2,0.9-2.1,2.1-2.1h24.4c1.2,0,2.1,0.9,2.1,2.1v24.4
					C343.2,231.8,342.3,232.7,341.2,232.7z"/>
			</defs>
			<use xlink:href="#XMLID_4_"  style="overflow:visible;fill:#FFFFFF;"/>
			<clipPath id="XMLID_10_">
				<use xlink:href="#XMLID_4_"  style="overflow:visible;"/>
			</clipPath>
			<circle class="st22" cx="329" cy="218.8" r="4.1"/>
		</g>
	</g>
	<g>
		<circle class="st19" cx="664.1" cy="201.6" r="30.7"/>
		<g>
			<defs>
				<path id="XMLID_2_" d="M676.3,215.9h-24.4c-1.2,0-2.1-0.9-2.1-2.1v-24.4c0-1.2,0.9-2.1,2.1-2.1h24.4c1.2,0,2.1,0.9,2.1,2.1v24.4
					C678.4,215,677.4,215.9,676.3,215.9z"/>
			</defs>
			<use xlink:href="#XMLID_2_"  style="overflow:visible;fill:#FFFFFF;"/>
			<clipPath id="XMLID_11_">
				<use xlink:href="#XMLID_2_"  style="overflow:visible;"/>
			</clipPath>
			<circle class="st23" cx="664.1" cy="202" r="4.1"/>
		</g>
	</g>
	<g>
		<circle class="st19" cx="772.3" cy="391" r="30.7"/>
		<g>
			<defs>
				<path id="XMLID_5_" d="M785.1,404.6h-23.5c-1.2,0-2.1-0.9-2.1-2.1V379c0-1.2,0.9-2.1,2.1-2.1h23.5c1.2,0,2.1,0.9,2.1,2.1v23.5
					C787.2,403.7,786.2,404.6,785.1,404.6z"/>
			</defs>
			<use xlink:href="#XMLID_5_"  style="overflow:visible;fill:#FFFFFF;"/>
			<clipPath id="XMLID_12_">
				<use xlink:href="#XMLID_5_"  style="overflow:visible;"/>
			</clipPath>
			<circle class="st24" cx="765.9" cy="383.6" r="4"/>
			<circle class="st24" cx="780.7" cy="398.4" r="4"/>
		</g>
	</g>
	<g>
		<circle class="st19" cx="288.3" cy="533.5" r="30.7"/>
		<g>
			<defs>
				<path id="XMLID_3_" d="M300,547.4h-23.5c-1.2,0-2.1-0.9-2.1-2.1v-23.5c0-1.2,0.9-2.1,2.1-2.1H300c1.2,0,2.1,0.9,2.1,2.1v23.5
					C302,546.4,301.1,547.4,300,547.4z"/>
			</defs>
			<use xlink:href="#XMLID_3_"  style="overflow:visible;fill:#FFFFFF;"/>
			<clipPath id="XMLID_13_">
				<use xlink:href="#XMLID_3_"  style="overflow:visible;"/>
			</clipPath>
			<circle class="st25" cx="280.8" cy="526.3" r="4"/>
			<circle class="st25" cx="295.6" cy="541.1" r="4"/>
		</g>
	</g>
</g>
</svg>
