<svg xmlns="http://www.w3.org/2000/svg" viewBox="0 0 109.33 109.67">   <g class="color1" style="fill: rgb(255, 255, 255);">       <path class="cls-1" d="m106.22,90.4l-9.96-10.58,4.32-4.07c4.59-4.32,4.81-11.57.49-16.16-2.09-2.22-4.93-3.5-7.98-3.59-3.05-.08-5.96,1.01-8.18,3.1l-2.57,2.42-9.04-9.6,1.97-2.09c9.34-9.93,16.01-22.17,19.27-35.4.3-1.23-.08-2.52-1-3.39-.92-.87-2.23-1.17-3.44-.79-13.02,4.05-24.84,11.44-34.18,21.37l-.87.92-1.03-1.1c-9.49-10.08-21.54-17.41-34.85-21.21-1.19-.34-2.46-.03-3.36.82s-1.28,2.1-1.02,3.31c2.99,13.51,9.59,25.98,19.08,36.06l2.18,2.31-8.64,9.17-2.97-2.8c-2.22-2.09-5.13-3.2-8.18-3.1-3.05.09-5.89,1.37-7.98,3.59-4.32,4.59-4.1,11.84.49,16.16l4.32,4.07-9.96,10.58C1.02,92.62-.09,95.53,0,98.58c.09,3.05,1.37,5.89,3.59,7.98,2.14,2.01,4.91,3.11,7.83,3.11.12,0,.23,0,.35,0,3.05-.09,5.89-1.37,7.98-3.59l9.96-10.58,4.32,4.07c2.22,2.09,5.13,3.21,8.18,3.1,3.05-.09,5.89-1.37,7.98-3.59,2.09-2.22,3.2-5.13,3.1-8.18-.09-3.05-1.37-5.89-3.59-7.98l-2.97-2.8,7.54-8.01,7.89,8.38-2.57,2.42c-2.22,2.09-3.5,4.93-3.59,7.98-.09,3.05,1.01,5.96,3.1,8.18,2.09,2.22,4.93,3.5,7.98,3.59,3.06.11,5.96-1.01,8.18-3.1l4.32-4.07,9.96,10.58c2.09,2.22,4.93,3.5,7.98,3.59.12,0,.23,0,.35,0,2.92,0,5.69-1.1,7.83-3.11,2.22-2.09,3.5-4.93,3.59-7.98.09-3.05-1.01-5.96-3.1-8.18Zm-94.65,12.27c-1.19.04-2.31-.39-3.17-1.2-.86-.81-1.36-1.91-1.39-3.1s.39-2.31,1.2-3.17l3.41-3.62,6.43,6.11-3.38,3.59c-.81.86-1.91,1.36-3.1,1.39Zm33.54-8.39c-.81.86-1.91,1.36-3.1,1.39-1.19.04-2.31-.39-3.17-1.2l-6.87-6.47c-1.41-1.32-3.62-1.26-4.95.15l-4.18,4.44-6.43-6.11,4.15-4.41c.64-.68.98-1.58.95-2.5-.03-.93-.42-1.81-1.1-2.44l-6.87-6.47c-1.78-1.68-1.86-4.49-.19-6.27.81-.86,1.91-1.36,3.1-1.39.05,0,.09,0,.14,0,1.13,0,2.21.43,3.04,1.21l12.65,11.91,7.13,6.71s0,0,0,0l5.52,5.2h0c.86.81,1.36,1.91,1.39,3.1s-.39,2.31-1.2,3.17Zm15.9-57.86c6.97-7.4,15.45-13.26,24.8-17.16-3.34,9.57-8.67,18.38-15.64,25.78l-1.68,1.78-8.64-9.17,1.16-1.23Zm-19.35,38.9l-9.16-8.62,8.35-8.87,8.64,9.17-7.83,8.31Zm25.63.38l-28.32-30.08c-7.16-7.61-12.52-16.72-15.68-26.63,9.7,3.76,18.47,9.65,25.64,17.26l28.32,30.08-4.98,4.69-4.98,4.69Zm12.48,11.36c-.86,0-1.72.32-2.4.95l-6.87,6.47c-.86.81-2,1.25-3.17,1.2-1.18-.04-2.28-.53-3.1-1.39-.81-.86-1.24-1.99-1.2-3.17s.53-2.28,1.39-3.1l5.12-4.82s0,0,0,0l15.05-14.17h0l5.12-4.82c.86-.81,1.99-1.25,3.17-1.2,1.18.04,2.28.53,3.1,1.39,1.68,1.78,1.59,4.59-.19,6.27l-6.87,6.47c-1.41,1.33-1.47,3.54-.15,4.95l4.48,4.76-6.27,6.27-4.66-4.95c-.69-.73-1.62-1.1-2.55-1.1Zm21.18,14.42c-.86.81-1.99,1.25-3.17,1.2-1.18-.04-2.28-.53-3.1-1.39l-2.9-3.08,6.27-6.27,3.08,3.27c.81.86,1.24,1.99,1.2,3.17-.04,1.18-.53,2.28-1.39,3.1Z"></path>       <path class="cls-1" d="m45.21,17.22c.64.57,1.47.89,2.33.89.14,0,.28,0,.42-.03,1-.12,1.89-.66,2.46-1.49l4.97-7.23,5.15,6.42c1.15,1.44,3.23,1.74,4.74.67l10.87-7.64c1.58-1.11,1.96-3.29.85-4.88-1.11-1.58-3.29-1.96-4.88-.85l-8.19,5.75-6.04-7.53C57.21.45,56.14-.03,55.04,0c-1.11.04-2.13.6-2.76,1.51l-5.39,7.84-6.75-6.01c-1.44-1.29-3.66-1.16-4.94.29-1.29,1.44-1.16,3.66.29,4.94l9.72,8.65Z"></path>     </g> </svg>