<?xml version="1.0" encoding="utf-8"?>
<!-- Generator: Adobe Illustrator 24.3.0, SVG Export Plug-In . SVG Version: 6.00 Build 0)  -->
<svg version="1.1" id="Capa_2" xmlns="http://www.w3.org/2000/svg" xmlns:xlink="http://www.w3.org/1999/xlink" x="0px" y="0px"
	 viewBox="0 0 1080 1080" style="enable-background:new 0 0 1080 1080;" xml:space="preserve">
<style type="text/css">
	.st0{fill:#FFFF00;stroke:#cd1c38;stroke-width:15;stroke-miterlimit:10;}
</style>
<path class="st0" d="M660.4,209.4c0,0-4.3,49.7,2.1,126.6c0,0,0.8,9.5,0,22.8c-0.7,12.2-1.2,18.3-4.2,22.8
	c-5.2,7.9-15.9,9.3-33.2,10.4c-42.6,2.8-47.7-1.1-68.5,2.1c-27.6,4.2-27.1,12.4-47.7,12.5c-26.4,0-46.2-13.3-54-18.7
	c-25.3-17.5-36-40.9-43.6-58.1c-7.3-16.6-27-61.3-10.4-112.1c9.1-27.9,25.3-45.5,33.2-54c8-8.6,31.5-33.1,70.6-43.6
	c23.6-6.4,41.7-4.6,68.5-2.1c29.1,2.8,47.9,9.3,62.3,16.6c9.9,5,15.7,8.1,20.8,14.5C667.6,163.9,662.9,180.6,660.4,209.4z"/>
<path class="st0" d="M411.3,223.9c8.6,4.5,0.7,22.1,6.2,51.9c3.7,20.2,11.5,34.7,20.8,51.9c7.3,13.7,14.1,26.1,27,39.4
	c13.2,13.7,22,22.8,35.3,24.9c17.1,2.8,21.3-9.1,51.9-16.6c8.1-2,25.7-6.1,47.7-4.2c42.8,3.9,45.7,4.2,45.7,4.2
	c9.1,1,14.9,1.6,18.7-2.1c7.1-7-1.6-20.7,6.2-29.1c4.4-4.7,11.8-5.3,16.6-4.2c10.6,2.4,15,14.3,16.6,18.7
	c5.8,15.8-0.4,31.2-2.1,35.3c-3.2,8-5.2,7.6-8.3,16.6c-1.4,4.2-4.2,12.3-4.2,22.8c0,7.6,1.5,9.3,0,14.5c-1.8,6.2-4.7,7-6.2,12.5
	c-1.6,5.9,0.7,9,2.1,16.6c0.3,1.9,2.5,14.7-2.1,27c-1.3,3.6-5.7,15.4-16.6,20.8c-8.3,4.1-18,2.7-37.4,0c-10.1-1.4-14.3-2.8-18.7,0
	c-6.4,4.1-3.7,11.1-10.4,16.6c-5.9,4.8-14,4.5-22.8,4.2c-9-0.4-8.9-2.2-16.6-2.1c-4.8,0.1-10.2,1.4-20.8,4.2
	c-13.8,3.5-13.3,4.1-16.6,4.2c-3.2,0.1-7.1-0.4-22.8-8.3c-13.9-7-20.9-10.5-24.9-14.5c-8.9-9-6.5-13.8-14.5-18.7
	c-7.7-4.7-11.4-1.1-20.8-6.2c-1.6-0.9-9.7-5.4-14.5-14.5c-4.3-8.1-0.9-10.3-4.2-22.8c-1.1-4.5-4.9-18.4-16.6-29.1
	c-5.3-4.8-5.7-3-8.3-6.2c-8.4-10.3-0.1-24.1,0-49.8c0-1.4,0-11.7-2.1-22.8c-5.3-28-18.4-32.3-24.9-54c-7.4-25-0.5-54.6,16.6-70.6
	C387.4,233.3,402.7,219.4,411.3,223.9z"/>
<path class="st0" d="M564.9,414.9c5.2-3,17.2-8.9,33.2-8.3c11.2,0.4,19.9,3.8,24.9,6.2"/>
<path class="st0" d="M450.8,524.9c-7.8,5.5,4.6,23.5-2.1,47.7c-1,3.7-4.6,16.1-14.5,24.9c-12.6,11.1-27.9,9.9-49.8,10.4
	c0,0-41.5,0.9-87.2,10.4c-29.7,6.2-44.9,9.5-58.1,22.8c-1.9,1.9-20.6,21.3-20.8,49.8c-0.1,18.4,12.4,36,37.4,70.6
	c29.5,40.9,39.4,44.5,45.7,45.7c10.7,2.1,22.5-3.4,45.7-14.5c49.9-23.9,74.8-35.8,80.9-39.4c20.2-11.8,11.9-8.4,68.5-45.7
	c47-31,55.3-35,70.6-49.8c16.3-15.8,18-22,35.3-35.3c11.9-9.1,19.1-12.3,20.8-20.8c0.4-2.3,0.8-6.5-12.5-33.2
	c-5.4-10.9-8.2-16.4-10.4-18.7c-12.5-12.9-32-12.6-39.4-12.5c-24.9,0.5-28.4,21-47.7,18.7c-8.7-1-20.5-6.3-29.1-14.5
	c-5.7-5.5-8.5-10.9-16.6-14.5C463.6,525.3,455.4,521.6,450.8,524.9z"/>
<path class="st0" d="M706,583c5.3,1.7,8.1-0.7,18.7,0c0.2,0,0.2,0,0.5,0c2.8,0.2,11.1,0.6,24.4,0c18.3-0.9,20.8-2.7,24.9,0
	c5.5,3.7,6.8,10.8,8.3,20.8c2.3,14.5,0.9,26.1,0,31.1c-5,29.2-12.5,49.8-12.5,49.8c-1.9,35.7-10.7,60.5-18.7,76.8
	c-1.1,2.3-6.3,11.9-16.6,31.1c-16.5,30.7-19.4,35.6-24.9,47.7c-4.7,10.5-4.7,11.7-12.5,29.1c-9.3,20.8-12.4,25.9-16.6,31.1
	c-4.5,5.5-11.2,13.7-22.8,18.7c-11.7,5-22.9,3.5-35.3,2.1c-14.6-1.7-15.8-4.6-27-4.2c-4.6,0.2-14.5,0.7-24.9,6.2
	c-8.9,4.7-9.2,8.4-16.6,12.5c-8.9,4.9-17.7,4.8-29.1,4.2c-27.5-1.7-49.5-5.8-51.9-6.2c-38.5-7.2-33.2-4.8-60.2-10.4
	c-30.7-6.4-46.2-9.7-56-16.6c-14.7-10.3-12.4-16.4-31.1-29.1c-14.7-9.9-22.4-10.3-29.1-20.8c-0.6-0.9-10.3-16.5-4.2-29.1
	c4.2-8.5,13.5-11.2,22.8-14.5c23.3-8.2,44-22.7,66.4-33.2c40.5-19,42.8-20.1,47.7-22.8c13.8-7.7,24.6-14.9,45.7-29.1
	c36.2-24.4,30.2-22.6,47.7-33.2c28.1-17,37.6-18.1,49.8-33.2c8.2-10.2,7.2-13.9,16.6-22.8c14-13.4,21.1-9.9,33.2-22.8
	c5.6-5.9,3.6-6.1,18.7-27c10.4-14.3,12.3-15.6,14.5-16.6c9.4-4.2,20.3-0.8,35.3,4.2c5.4,1.8,10.4,4.2,10.4,4.2
	C705.6,582.7,704.8,582.6,706,583z"/>
<path class="st0" d="M587.7,915.1c9.9-14.6,17.6-26.8,22.8-35.3c11.5-18.7,17.8-30.2,39.4-66.4c2.6-4.4,4.8-8,6.2-10.4"/>
<path class="st0" d="M795.3,630.7c3.7-0.9,6.3,2.9,22.8,18.7c13.4,12.8,14.5,12.9,16.6,16.6c6.7,11.6,4.2,24.6,2.1,35.3
	c-1.6,8-4.7,18.7-22.8,49.8c-20.2,34.6-28,41.2-35.3,45.7c-2.5,1.5-22.4,13.6-31.1,6.2c-4.1-3.4-4.7-10.2-4.2-14.5
	c0.8-6,4.1-8.4,8.3-14.5c4-5.7,6.8-14.2,12.5-31.1c2.2-6.4,4.2-12.5,6.2-20.8c3.8-15.3,2.6-17.8,6.2-35.3c1.3-6.2,3.6-14.5,8.3-31.1
	C790.8,634.8,792.3,631.5,795.3,630.7z"/>
<path class="st0" d="M695.7,888.1c7.6-2.5,15.6,3.4,16.6,4.2c10.3,7.8,10.3,22.5,10.4,31.1c0,4.1-0.3,19.8-10.4,35.3
	c-6.2,9.5-13.6,15.2-20.8,20.8c-6.2,4.8-10.5,8.1-16.6,10.4c-11.4,4.3-20,1.7-33.2,0c-5.7-0.7-19.7-0.5-47.7,0
	c-18,0.3-29.6,1.1-45.7,2.1c-20.6,1.2-63.1,0.8-147.4,0c-5.7-0.1-16.9-0.3-29.1-6.2c-13.7-6.7-21.3-17.1-27-24.9
	c-7-9.6-16-21.9-14.5-37.4c0.4-3.8,1.1-11.2,6.2-14.5c4.3-2.8,9.3-1.2,24.9,4.2c22.8,7.9,28.2,10.1,37.4,12.5
	c4.6,1.2,10.7,2.2,22.8,4.2c20.8,3.4,25.8,3.4,43.6,6.2c19.8,3.1,17.8,3.7,35.3,6.2c21.2,3.1,32.1,4.6,41.5,2.1
	c15.7-4.2,27-12.5,27-12.5c5.5-4,7.1-6.4,12.5-8.3c5.1-1.8,10.1-1.9,22.8,0c15.7,2.3,15.2,3.4,22.8,4.2c7,0.7,20,2,33.2-4.2
	c11.3-5.2,18.6-13.9,20.8-16.6C688.9,897,689,890.3,695.7,888.1z"/>
<path class="st0" d="M338.7,149.2c8.5-41.4,4-51.1,12.5-62.3c9-11.9,25.9-16.5,37.4-16.6c15.2-0.1,20,7.8,29.1,4.2
	c12.8-5.2,7.9-22.7,22.8-33.2c14.2-9.9,33.7-4.6,35.3-4.2c10.8,3.1,11.4,8.1,27,14.5c9.8,4,16.7,6.8,24.9,6.2
	c17.1-1.2,17.9-15.4,39.4-22.8c1.3-0.4,19.6-6.6,39.4,0c5.2,1.7,12,4.1,16.6,10.4c3.2,4.4,2.2,6.4,6.2,16.6
	c3.8,9.8,5.8,14.7,10.4,18.7c0,0,1.9,1.6,16.6,8.3c3.3,3.1,7.9,7.9,12.5,14.5c4.5,6.7,4.9,9.2,8.3,14.5
	c8.2,12.9,14.5,11.2,20.8,20.8c8.8,13.4,5.2,30.2,4.2,35.3c-2.1,9.6-3.6,20.6-12.5,24.9c-6.9,3.3-15.3,1.3-20.8-2.1
	c-8.1-5.1-6.9-11.6-14.5-22.8c-6.5-9.5-14-14.4-27-22.8c-8.6-5.6-17.1-11.1-29.1-14.5c-9.7-2.8-13-1.7-37.4-2.1
	c-38.4-0.6-43.1-3.5-49.8,2.1c-10.1,8.4-6.5,21-18.7,27c-7.4,3.6-13.7,1.4-16.6,6.2c-2.4,4,0.6,7.6,2.1,16.6
	c2.4,15.1-2.7,27.5-4.2,31.1c-2.7,6.5-5.5,13.5-12.5,18.7c-9.8,7.4-23.1,7.8-39.4,8.3c-1.8,0.1-3.8,0.1-7.4,0.2
	c-12.3,0.6-18.5,0.8-21.6,1.8c-12.2,3.9-17.5,23.1-18.7,33.2c-1.4,11.6,1.4,20.9,6.2,37.4c3.9,13.1,6.2,15.4,8.3,27
	c1.4,7.8,1.7,13.8,2.1,24.9c0.4,11.7-0.1,12.6,0,29.1c0.1,18.6,0.9,21.3,0,31.1c-1.2,13.8-1.9,20.7-6.2,24.9
	c-9.8,9.3-29.5,2.7-37.4,0c-9.1-3.1-29.5-10-35.3-27c-2.9-8.6-1.3-18.8,2.1-39.4c1.9-11.6,2.9-12.5,2.1-16.6
	c-2.9-13.9-16.9-13.6-24.9-29.1c-5.2-10-6-23-2.1-33.2c4.5-11.6,11.5-10.3,16.6-22.8c3.5-8.5,3-16,2.1-31.1c-0.6-9-1-16.1-4.2-24.9
	c-4.5-12.6-8.8-12.3-10.4-20.8c-2.1-11.2,2.6-25.7,12.5-33.2c10-7.6,19-3.4,27-12.5C336.6,159.1,337.7,153.9,338.7,149.2z"/>
<path class="st0" d="M652,1048H400.8c-9.2,0-16.7-7.5-16.7-16.7v-18.4c0-9.2,7.5-16.7,16.7-16.7H652c9.2,0,16.7,7.5,16.7,16.7v18.4
	C668.7,1040.5,661.2,1048,652,1048z"/>
<path class="st0" d="M704.5,588.5c-5,18.1-13,40.3-26,64c-8.7,16-16.5,26.6-27,41c-24.2,33.3-45.7,55.4-60,70
	c-21.7,22.2-35,32.9-49,42c-6.1,4-11.3,7-15,9"/>
</svg>
