<svg id="Capa_1" data-name="Capa 1" xmlns="http://www.w3.org/2000/svg" viewBox="0 0 34.15 47">
<g class="color1" style="fill:#232323;">
<path d="M30.17,17.9a1,1,0,0,0-1.2.74,19.54,19.54,0,0,1-2.49,5.47c-1.64,2.81-3.33,5.71-3.33,10.5a15.29,15.29,0,0,0,1,5.22l-8.63,4.71a75.36,75.36,0,0,1-2.35-9.2L15,34.79a5.22,5.22,0,0,0,3.72-5,1,1,0,0,0-2,0,3.2,3.2,0,0,1-2.29,3L7,35.17a.66.66,0,0,1-.85-.6L6,32.12a1.46,1.46,0,0,0-.8-1.24L5,30.81l.07-.32a1.48,1.48,0,0,0-.35-1.27L4.59,29l.29-.42A1.43,1.43,0,0,0,5,27.24l-1-2.38a1,1,0,0,0-1-.63,4.7,4.7,0,0,1-.75,0l.29-.42c.94-1.37,2.52-3.67,2.52-6.26a1,1,0,0,0-.33-.73l-1.06-1,.38-.67a1,1,0,0,0,.14-.5C4.25,8.94,9.68,4.73,14.94,4a1,1,0,0,0-.28-2C8.72,2.85,2.41,7.47,2.25,14.41L1.6,15.55a1,1,0,0,0,.19,1.24L3.1,18A10.83,10.83,0,0,1,1,22.7,3.86,3.86,0,0,0,0,24.64a1.38,1.38,0,0,0,.46,1,3.17,3.17,0,0,0,2,.58l.59,1.46-.37.53a1.45,1.45,0,0,0,.12,1.8l.27.31-.16.8a1,1,0,0,0,.53,1.09l.55.28.09,2.13A2.68,2.68,0,0,0,6.75,37.2a2.71,2.71,0,0,0,.79-.12l3.73-1.15A91,91,0,0,0,14,46.32a1,1,0,0,0,.59.61A.92.92,0,0,0,15,47a1,1,0,0,0,.48-.12l10.49-5.73a1,1,0,0,0,.42-1.31,13.94,13.94,0,0,1-1.2-5.23c0-4.24,1.48-6.79,3.06-9.49a21.69,21.69,0,0,0,2.7-6A1,1,0,0,0,30.17,17.9Z"></path>
<path d="M33.29,11.16l-.93-.54a7.22,7.22,0,0,0,.06-.92,7,7,0,0,0-.06-.91l.93-.54a1.73,1.73,0,0,0,.63-2.36l-1.2-2.08a1.73,1.73,0,0,0-2.36-.63l-.93.54a7.65,7.65,0,0,0-1.59-.92V1.72A1.72,1.72,0,0,0,26.12,0H23.71A1.72,1.72,0,0,0,22,1.72V2.8a7.58,7.58,0,0,0-1.58.92l-.94-.54a1.71,1.71,0,0,0-2.35.63L15.91,5.9a1.73,1.73,0,0,0,.63,2.35l.93.54a7,7,0,0,0-.06.91,7.22,7.22,0,0,0,.06.92l-.93.54a1.73,1.73,0,0,0-.63,2.35l1.21,2.09a1.73,1.73,0,0,0,2.35.63l.94-.54a7.58,7.58,0,0,0,1.58.92v1.07a1.72,1.72,0,0,0,1.72,1.72h2.41a1.72,1.72,0,0,0,1.72-1.72V16.61a7.65,7.65,0,0,0,1.59-.92l.93.54a1.74,1.74,0,0,0,2.36-.63l1.2-2.09A1.72,1.72,0,0,0,33.29,11.16Zm-8.37,2.29A3.75,3.75,0,1,1,28.67,9.7,3.75,3.75,0,0,1,24.92,13.45Z"></path>
</g>
</svg>