<svg aria-hidden="true" xmlns="http://www.w3.org/2000/svg" viewBox="0 0 209.61 235.14">
<path class="color1" style="fill: rgb(233, 42, 65);" d="M158.35,29.73a9.05,9.05,0,0,1-.71,1.84c-.39,1-.72,1-.83,1a1,1,0,0,1-.49-.19l-1.46-.95.28,1.72a2.36,2.36,0,0,1,0,.47,2.67,2.67,0,0,0,.75,1.7,2.81,2.81,0,0,1,.72,1.45,8.43,8.43,0,0,0,1.45,2.85,17.11,17.11,0,0,1,1.84,3.47,5.62,5.62,0,0,0,.94,1.81,1.78,1.78,0,0,1,.48,1.62,4,4,0,0,0,0,1.24,3.25,3.25,0,0,0,1.73,2.33,5.8,5.8,0,0,1,2.7,3.2c0,.21.08.49.15.85a19.89,19.89,0,0,1,.53,4.28c0,2.43.72,4.34,1.83,4.84a4.62,4.62,0,0,1,1.26,1l.4.42.47.58.12.16a6,6,0,0,1,1.41,3A7.28,7.28,0,0,0,174.07,73l.14.09h.17c.16,0,.46.56.58.79.29.54.62,1.15,1.25,1.15,1.1,0,3.13,1.16,4.89,3.38a40.91,40.91,0,0,0,2.81,3.22L185.25,83l.11.18a1.12,1.12,0,0,1,.19.77.54.54,0,0,1-.47.38,3.5,3.5,0,0,0-1,.41l-1.35.82,1.5.57.22.11.39.16.55.33.18.21a4,4,0,0,1,1,1.28,2.42,2.42,0,0,0,2,1.37,3.55,3.55,0,0,0,.46,0,4,4,0,0,0,2.69-1,1.61,1.61,0,0,1,1.33-.43c.23,0,.47,0,.7,0l.71,0a1.81,1.81,0,0,0,1.28-.36c1-.9,2.54-1.1,4.95-1.14s6.31-.76,6.92-1.82a1.12,1.12,0,0,1,1-.73,1,1,0,0,1,.24,0c.42.11.9.62.83,1.69A17.48,17.48,0,0,1,209,89a9.43,9.43,0,0,0-.44,2.29c0,1-1.73,4.65-2.88,6.13-1.29,1.67-2.57,3.42-2.79,4.81s-2,3.72-3.56,5.7c-2.72,3.46-6.37,6.9-7.7,7.57a16.25,16.25,0,0,0-5.39,4.11c-.79.83-1.67,1.72-2.53,2.6-1.71,1.73-3.48,3.53-4.31,4.62-.14.18-.23.31-.3.42-.51.82-.79.82-1,.82h-.39l-.38.32a2,2,0,0,1-.76.58,2.6,2.6,0,0,0-1.14,1,66.34,66.34,0,0,0-3,6.6c-.73,1.86-1.51,4.06-1.42,4.78a2.35,2.35,0,0,0,1.09,1.37c.82.6.84.88.56,1.3a4.51,4.51,0,0,0-.73,1.6l-.11.49.41.29c.3.21.26,1.25.22,2.17v.34a1.85,1.85,0,0,0,.46,1.28,3,3,0,0,1,.68,1.88,1.55,1.55,0,0,0,1.11,1.44,2,2,0,0,1,.88.71l.18.31,0,.86c0,.8.07,1.69.14,2.63a31.65,31.65,0,0,1,.12,4.39,20.85,20.85,0,0,0,.78,6c.28.92-3.1,5.38-4.9,6.45a11.74,11.74,0,0,1-2.63,1,10.36,10.36,0,0,0-3.41,1.55,8.54,8.54,0,0,0-2,2.2,5.23,5.23,0,0,1-1.22,1.37,4.4,4.4,0,0,1-1.31.64,1.77,1.77,0,0,0-1.3,1l-.31.62c-.38.78-.51,1-1.11,1l-1.3.07.58.92a5.06,5.06,0,0,0,.78,2.56,6.62,6.62,0,0,1,1,2.72,16.41,16.41,0,0,0,.44,2.09,2.69,2.69,0,0,1,.11,1.79A8.46,8.46,0,0,0,160,197a8.68,8.68,0,0,1-.13,2c-.26.88-1.09,1.4-3.88,2.42a12.16,12.16,0,0,0-4.56,2.7l-1,1.16,1.5.1c.18,0,.23.06.27.1s.14.57.13.7,0,.43-.05.71l-.13,1.2-.05.3c-.43,3.16-1,4.13-1.37,4.42l-.25.23a22.12,22.12,0,0,0-4.19,4.72,56.79,56.79,0,0,1-7.36,9c-2.41,2.25-5.2,4-6.36,4h-.88c-.81,0-1.17.08-1.43.32l-.21.2,0,.29a.67.67,0,0,1-.19.48.42.42,0,0,1-.28.08,2.35,2.35,0,0,1-.51-.08,2.75,2.75,0,0,0-.6-.1h-.07l-.26.05-.12.08a3.25,3.25,0,0,1-1.77.54,3.4,3.4,0,0,1-1.15-.2,6.81,6.81,0,0,0-2.18-.32,9.19,9.19,0,0,0-2.58.37,3.24,3.24,0,0,0-1.28.65,2.13,2.13,0,0,1-1.56.49c-1.37,0-3.11.17-3.66,1a1.29,1.29,0,0,1-1,.57h0a1.16,1.16,0,0,1-.93-.43c-.51-.66-1-1.29-1.65-1.33a.65.65,0,0,1-.56-.32,1,1,0,0,0-.72-.46c-.34-.07-.43-.22-.45-.78a3.32,3.32,0,0,0-.56-1.87c-.65-1-.88-1.71-.69-2.12a.73.73,0,0,1,.57-.39l.64-.12v-.65a7.7,7.7,0,0,0-.46-1.84l-.09-.28a14.65,14.65,0,0,0-1.11-2.21,19.12,19.12,0,0,1-1.86-3.92,21.57,21.57,0,0,0-2.34-4.94,14.36,14.36,0,0,0-1.92-2.47c-1.41-1.37-1.73-4.27-2-6.38,0-.51-.09-.84-.13-1.12a21,21,0,0,0-1.1-4.85,5.19,5.19,0,0,1-.08-2.31,7.84,7.84,0,0,0-.06-2.91,15.72,15.72,0,0,0-1.39-2.81A19.33,19.33,0,0,1,94.13,187a23.74,23.74,0,0,0-3-6.31,10.25,10.25,0,0,1-1.66-3.26l-.09-.38,0-.55v-.15l0-.2a25.91,25.91,0,0,0,.35-3.79,3.43,3.43,0,0,1,.57-1.43,6.44,6.44,0,0,0,1-2.92,11.36,11.36,0,0,1,2.24-5.94l.32-.37c1-1.15,2-2.34,1.88-4.12a14,14,0,0,0-1-3.32,10.54,10.54,0,0,1-.91-3.17,4.94,4.94,0,0,1,.37-1.81,1.81,1.81,0,0,0,.13-1.44l-.16-.33A55.48,55.48,0,0,1,92,142.35l-.18-.51-.13-.48-.09-.31,0-.17a14.65,14.65,0,0,0-1.06-3.23A8.94,8.94,0,0,0,88,134.48l-.79-.64-.15-.14A5.45,5.45,0,0,1,85.72,132a5.41,5.41,0,0,0-1.24-1.67c-1.69-1.65-2.19-2.23-2.24-2.84l0-.21-.12-.18-.6-.75c-.45-.56-.9-1.13-.86-1.44a.26.26,0,0,1,.09-.17,2.41,2.41,0,0,0,1.23-2c0-.15,0-.43.76-.69l1.33-.45-1.1-.88c-.26-.22-.51-.43-.54-.61v-.07a5.94,5.94,0,0,1,.39-.54l.56-.72-.81-.43a.43.43,0,0,1-.26-.35c0-.26.17-.61.72-.8a1.31,1.31,0,0,0,.73-2l-.14-.35,0-.45a6.33,6.33,0,0,1,.45-1.54c.1-.26.16-.39.19-.49a5.44,5.44,0,0,0-.61-2.73l-.23-.38H83l-.37,0a3.91,3.91,0,0,1-.51,0,1.18,1.18,0,0,1-1.09-.5c-.13-.18-.25-.38-.38-.57s-.41-.63-.59-.85l-.39-.48-.56.29c-.49.27-1.62.38-3.76.38h-.22a4,4,0,0,0-1.27.35,5.1,5.1,0,0,1-1.52.41.81.81,0,0,1-.37-.08,3.94,3.94,0,0,1-1.64-2.65,4.6,4.6,0,0,0-2.93-3.16c-.41-.09-.9-.16-1.41-.24-.72-.11-1.29-.21-1.8-.33l-1.11-.26-.63-.72-.57.41a2.24,2.24,0,0,1-1.25.59,11.42,11.42,0,0,0-2.07.19,3.76,3.76,0,0,0-1.73.68l-.24.2-.78.41-.26.1-1,.4c-.63.24-1.29.5-1.92.81-2.89,1.45-5.3,2.42-6,2.42a4.46,4.46,0,0,1-.45-.16,16.85,16.85,0,0,0-1.86-.67,13.53,13.53,0,0,0-3.77-.54,12.94,12.94,0,0,0-2.24.19c-1.79.31-3.46.76-4.93,1.15a22.41,22.41,0,0,1-3.64.8l-.43,0h-.64l-.19-.1a39.77,39.77,0,0,1-7.28-4.53c-1-.76-2.18-1.53-3.32-2.25l-1.23-.77c-.79-.51-1.54-1-1.95-1.33a6.27,6.27,0,0,1-2.47-3.89,6.76,6.76,0,0,0-.45-1.14,10.32,10.32,0,0,0-3.48-3.8,4.09,4.09,0,0,1-1.22-1.46,3.87,3.87,0,0,0-1-1.25,4.25,4.25,0,0,0-.35-.27,1,1,0,0,1-.55-1.27l.11-.59L4.77,85a1.76,1.76,0,0,0-.35-.13A3.17,3.17,0,0,1,2.3,83.38L2,82.94l-.33-.4-.19-.24-.05-.16a.9.9,0,0,1-.08-.23l-.09-.38.09-.66.07-.22.11-.5a5.11,5.11,0,0,0,.19-.91V78.9l-.24-.25C.8,78-.67,75.79.35,74.26a5.65,5.65,0,0,0,.71-2.47l.05-.53a5.46,5.46,0,0,1,.47-2.17c1.15-1.82,2.25-4.36,1-6.08a3.78,3.78,0,0,1-.47-3.09A2.28,2.28,0,0,0,1.91,58c-.14-.15-.28-.3-.44-.45a3.57,3.57,0,0,1-1.3-2.35l0-.38.06-.73.06-.21a10.16,10.16,0,0,1,.82-2.29,41.37,41.37,0,0,1,3.15-5.25c1.24-1.84,2.22-3.28,2.3-4.4S7.85,39.48,9,38.37a7.33,7.33,0,0,0,1.69-2.08,10.87,10.87,0,0,1,.79-1.67l.43-.72.56-.53.14-.09a4.15,4.15,0,0,1,2-.92,5.18,5.18,0,0,0,3.1-1.85,7,7,0,0,1,1.43-1.22c1.46-.86,3.9-3.63,3.73-4.85l0-.15-.08-.14c-.54-.9-1.12-3.73,0-4.65a3,3,0,0,0,1-1.58,2.65,2.65,0,0,1,.77-1.35,3.69,3.69,0,0,0,.89-1.27c.41-.81.76-1.38,1.45-1.38a7,7,0,0,0,4.71-2.24A22.53,22.53,0,0,0,32.91,9c.87-1.93,1.53-3.32,2-3.58l.59-.32.68.3a5.4,5.4,0,0,1,1.63,1.33A2.85,2.85,0,0,0,40,7.45a14.3,14.3,0,0,0,1.56-.11c.49,0,.94-.1,1.37-.1a6.07,6.07,0,0,1,1.9.43,6.12,6.12,0,0,0,1.8.41,1.56,1.56,0,0,0,1.2-.52,7.89,7.89,0,0,1,4.85-2.51,3,3,0,0,0,1.78-1,4.79,4.79,0,0,1,3-1.54c.75,0,2.14-.19,3.62-.36,3-.34,5.14-.56,6.48-.56,1.15,0,1.45.16,1.52.24l.1.08.26.13.3,0A7.08,7.08,0,0,0,71.9,1.4,5.44,5.44,0,0,1,73.41.93,13,13,0,0,0,74.76.75,9.77,9.77,0,0,1,76.21.57a1.08,1.08,0,0,1,.35,0,10.19,10.19,0,0,0,2.92.57A2.55,2.55,0,0,0,81.14.7,3.47,3.47,0,0,1,83.39,0a3.68,3.68,0,0,1,1.25.2c.58.21.73.51.76.73s0,.21,0,.28l.49,1.65.85-1.37.07-.06a.58.58,0,0,1,.4-.16.42.42,0,0,1,.32.13c.24.24.12.68-.31,1.13l-.37.37c-.55.55-.8.83-.85,1.19l0,.22.09.2a2,2,0,0,0,.62.72,2.45,2.45,0,0,1,1,2,2.83,2.83,0,0,1-1,2.2,6.86,6.86,0,0,1-1.35.83c-.57.28-.83.42-1,.68l-.15.25,0,.3A1.58,1.58,0,0,0,85,12.57a2.06,2.06,0,0,0,1,.25h.14l.25-.06.2-.08.14-.17a.26.26,0,0,1,.21-.08.38.38,0,0,1,.17,0,1.49,1.49,0,0,1,.8,1.18v2l.84-.92c.11.08.22.17.35.25a5.15,5.15,0,0,0,2.76.81,5.73,5.73,0,0,0,.81-.06,6.51,6.51,0,0,1,1.14-.1,7.5,7.5,0,0,1,3,.73,7.49,7.49,0,0,0,1.46.51c1.6.33,2.14.81,2,1.78a1.48,1.48,0,0,0,.41,1.14,3.56,3.56,0,0,0,2.66,1.06,8.81,8.81,0,0,1,5.71,2.06,3.74,3.74,0,0,0,2.49,1l.32,0a2.67,2.67,0,0,0,1.95-1c.63-.83.29-1.7,0-2.54a3.88,3.88,0,0,1-.37-1.48,2.08,2.08,0,0,1,.81-1.25A9.67,9.67,0,0,1,120,15.28h.34a3,3,0,0,1,2.54,1.21,3.11,3.11,0,0,0,2.17,1.22l1.28.18a12.35,12.35,0,0,1,2.35.47l.27.1a1.21,1.21,0,0,1,.24.28l0,.09.16.19c.47.45,2,.79,4.58,1a17.5,17.5,0,0,1,5.23,1.42l.44.18a5,5,0,0,0,1.82.38,1.84,1.84,0,0,0,1.66-.7c.35-.5,2.6-1.29,4.88-1.29a4,4,0,0,1,1.57.24,6.68,6.68,0,0,0,2.95.95,3.43,3.43,0,0,0,.94-.13,2.86,2.86,0,0,1,.73-.09,6.29,6.29,0,0,1,1.5.23l.5.11s.4,0,.48.08C158.2,22.91,158.53,27.62,158.35,29.73ZM140.87,137.31c.17,2,.59,5.58,1.44,6.37l.07.06.08,0a6.21,6.21,0,0,1,1.71,2.23l1.42-.55c-.05-.2-.08-.41-.12-.64a4.6,4.6,0,0,0-1.45-3.11c-.71-.65-1.23-2.71-1.63-4.64Zm50.39,65.9a6.77,6.77,0,0,1-4.21-1.76,7.43,7.43,0,0,1-1.28-3.34,14.41,14.41,0,0,0-.73-2.52,7.05,7.05,0,0,1,1.19-7.41c2.21-2.68,1.53-4.36.73-6.32-.73-1.77-1.34-3.82-.37-5.57a5.91,5.91,0,0,0,.52-2.48c0-.72.08-1.33.36-1.56a.48.48,0,0,1,.29-.09l.41,0a4.93,4.93,0,0,0,1.48-.34,5.79,5.79,0,0,1,1.83-.44l.33,0,.16,0a4.19,4.19,0,0,0,2.18-1.12,4.44,4.44,0,0,1,2-1.09c1-.07,2.2-.72,2.36-1.45l.06-.29-.15-.26a.5.5,0,0,1,0-.64.89.89,0,0,0,.11-.93.84.84,0,0,1,.11-.87,1.67,1.67,0,0,1,1.26-.51h.2a2,2,0,0,0,1.8-1.13l0-.13,0-.14a3.3,3.3,0,0,1,.46-2.17l.11-.11s.17-.43.24-.59c.26-.68.42-.76.47-.76s.16.1.28.55a6.47,6.47,0,0,0,.7,1.35,8.68,8.68,0,0,1,1.5,3.77,11.76,11.76,0,0,0,.67,3,6.65,6.65,0,0,1,.51,2.88c-.12.67-.39,1.07-.75,1.14h0a1,1,0,0,1-.73-.35l-1.39-1.48.06,2a2.67,2.67,0,0,0,.19.94A2.31,2.31,0,0,1,204,175a2.72,2.72,0,0,0-.34,1.53c.18,1.24-1.65,6.88-3.38,12.08-.48,1.42-1,3.06-1.47,4.69-1.11,3.64-2.25,7.41-3,8.3a2,2,0,0,1-1.76.72,1.76,1.76,0,0,0-1.44.47,1.72,1.72,0,0,1-1.25.39Z"></path>
</svg>