<svg id="Capa_1" data-name="Capa 1" xmlns="http://www.w3.org/2000/svg" xmlns:xlink="http://www.w3.org/1999/xlink" width="390.16854" height="511.76775" viewBox="0 0 390.16854 511.76775">
  <defs>
    <style>
      .cls-1 {
        fill: none;
      }

      .cls-2 {
        clip-path: url(#clip-path);
      }

      .cls-3 {
        fill: #f86d31;
      }
    </style>
    <clipPath id="clip-path" transform="translate(-60.80282 -0.30278)">
      <rect class="cls-1" x="60.83335" y="0.30279" width="390.16912" height="511.69721"/>
    </clipPath>
  </defs>
  <g class="cls-2">
    <path class="cls-3" d="M365.25582,181.34045l-10.3569,124.50784H253.18151L242.82462,181.34045Zm8.5491,95.45186,7.04583-84.97212,48.82736,50.20441ZM65.10686,193.85024l91.21894,50.511a8.11045,8.11045,0,0,0,3.969,1.0387,7.87415,7.87415,0,0,0,5.37858-2.03l61.36838-53.34344L237.4226,314.86457a8.41273,8.41273,0,0,0,.82191,2.974v177.71H210.53123a8.261,8.261,0,0,0,0,16.522h35.86315a7.90047,7.90047,0,0,0,5.81218-2.4194,7.9814,7.9814,0,0,0,2.40743-5.8416V322.37028h99.55672v181.3682A8.24088,8.24088,0,0,0,362.39084,512h35.90948a8.26131,8.26131,0,0,0,0-16.52251H370.68125V314.43956l1.43249-17.23017,74.96709-46.59326a8.28667,8.28667,0,0,0,1.55013-12.79295l-68.55527-70.50333a7.09927,7.09927,0,0,0-.634-.54265,5.44846,5.44846,0,0,0-.56373-.47212,9.68862,9.68862,0,0,0-.93955-.54291l-.49293-.23606a8.53647,8.53647,0,0,0-1.31537-.425.82557.82557,0,0,0-.25818,0,9.50511,9.50511,0,0,0-1.62092-.18869h-141.737l-.70427.16526a5.32455,5.32455,0,0,0-.86928.28317l-.68084.28342-.77507.44844a6.62548,6.62548,0,0,0-.65794.47185,1.65861,1.65861,0,0,0-.32845.23606L159.26156,227.06,73.04487,179.31067a8.22988,8.22988,0,0,0-11.20274,3.28061,8.31448,8.31448,0,0,0,3.26473,11.259ZM365.984,79.06712a62.27735,62.27735,0,0,1-27.51965,51.78524A61.92872,61.92872,0,0,1,246.79,102.92045,62.34943,62.34943,0,0,1,269.60512,27.319a61.95789,61.95789,0,0,1,91.6312,27.94193A62.62113,62.62113,0,0,1,365.984,79.06712Zm-140.3279,0a78.81052,78.81052,0,0,0,34.83668,65.52867A78.35057,78.35057,0,0,0,376.4799,109.2451a78.904,78.904,0,0,0-28.88863-95.67269,78.27354,78.27354,0,0,0-108.69089,21.7633,79.17735,79.17735,0,0,0-13.24425,43.73141Z" transform="translate(-60.80282 -0.30278)"/>
  </g>
</svg>
