<?xml version="1.0" encoding="utf-8"?>
<!-- Generator: Adobe Illustrator 24.3.0, SVG Export Plug-In . SVG Version: 6.00 Build 0)  -->
<svg version="1.1" id="Capa_1" xmlns="http://www.w3.org/2000/svg" xmlns:xlink="http://www.w3.org/1999/xlink" x="0px" y="0px"
	 viewBox="0 0 1280 824" style="enable-background:new 0 0 1280 824;" xml:space="preserve">
<style type="text/css">
	.st0{fill:#F86D31;}
	.st1{fill:#FFFFFF;}
</style>
<g transform="translate(0.000000,824.000000) scale(0.100000,-0.100000)">
	<path class="st0" d="M4555,8230c-49-5-166-13-260-20c-1744-121-3272-898-3928-1998C49,5679-49,5100,81,4520c55-243,199-572,351-800
		c265-398,660-769,1121-1054c42-26,77-55,77-63c0-32-155-271-268-413c-257-324-607-663-1088-1053c-99-80-202-170-229-198
		c-46-49-47-53-30-65c84-62,713,73,1275,273c489,174,1100,452,1646,749c105,57,200,104,212,104s59-9,104-19
		c504-117,998-172,1558-172c631,0,1150,64,1723,210c1578,404,2726,1347,3007,2471c72,285,81,642,24,945c-67,361-258,762-519,1090
		c-749,940-2142,1574-3705,1685c-85,6-210,15-278,20C4923,8241,4688,8241,4555,8230z"/>
	<path class="st1" d="M4577.9,7920.8c-44.5-4.5-150.7-11.8-236-18.2c-1583.3-109.9-2970.5-815.2-3566-1813.9
		c-288.7-483.9-377.7-1009.5-259.6-1536.1c49.9-220.6,180.7-519.3,318.7-726.3c240.6-361.3,599.2-698.1,1017.7-956.9
		c38.1-23.6,69.9-49.9,69.9-57.2c0-29.1-78.3-294.2-180.9-423.2c-233.3-294.1-489-646.5-925.7-1000.5
		c-89.9-72.6-212.9-148.6-237.4-174.1c-41.8-44.5-237-179-221.5-189.9c76.3-56.3,766.3,221.9,1276.5,403.5
		c443.9,158,979,472.7,1474.6,742.3c95.3,51.7,181.6,94.4,192.5,94.4c10.9,0,53.6-8.2,94.4-17.2c457.6-106.2,906-156.2,1414.4-156.2
		c572.9,0,1044,58.1,1564.2,190.6C7806.2,2648.9,8848.4,3505,9103.5,4525.4c65.4,258.7,73.5,582.8,21.8,857.9
		c-60.8,327.7-234.2,691.8-471.2,989.6c-680,853.4-1944.6,1429-3363.6,1529.7c-77.2,5.4-190.6,13.6-252.4,18.2
		C4911.9,7930.7,4698.6,7930.7,4577.9,7920.8z"/>
	<path class="st0" d="M10116,4748c-52-367-103-563-210-821c-229-551-666-1083-1237-1505c-441-326-1035-622-1609-802l-134-43l82-78
		c439-417,1162-724,1922-818c405-50,725-53,1110-10c211,23,521,84,691,134c45,14,91,25,101,25c11,0,88-42,171-94
		c558-343,1101-589,1516-687c69-16,142-34,162-39c52-14,74-12,98,8l22,17l-36,43c-20,23-71,70-113,104c-460,372-707,662-802,942
		c-16,47-32,107-36,134l-6,49l78,64c385,311,611,633,704,1003c125,493-6,976-381,1411c-411,476-1141,843-1929,970
		c-52,8-109,17-127,20C10123,4780,10121,4779,10116,4748z"/>
	<path class="st1" d="M10207.5,4382c-45.2-318.8-133.9-480.3-226.9-704.4c-198.9-478.6-578.5-940.8-1074.5-1307.3
		c-383.1-283.2-853.1-572.1-1351.8-728.5L7229.9,1531l189.9-142.4c381.3-362.2,1052.8-449.1,1713-530.7
		c351.8-43.4,629.8-46,964.2-8.7c183.3,20,452.6,73,600.3,116.4c39.1,12.2,79,21.7,87.7,21.7c9.6,0,76.4-36.5,148.5-81.7
		c484.7-298,962-599,1322.5-684.1c59.9-13.9,194.9-87.8,212.3-92.2c45.2-12.2,103.1-34,124-16.6l-25.7,75.2L12440,271
		c-17.4,20-62.4,81.2-98.9,110.8c-399.6,323.1-589.3,617.7-671.8,860.9c-13.9,40.8-27.8,92.9-31.3,116.4l-5.2,42.6l67.8,55.6
		c334.4,270.2,530.8,549.9,611.5,871.3c108.6,428.3,93.7,889.7-232.1,1267.5c-357,413.5-937.5,870.8-1622,981.1
		c-45.2,6.9-190.1,21.1-205.7,23.7C10226.2,4605.2,10211.8,4408.9,10207.5,4382z"/>
</g>
</svg>
