<?xml version="1.0" encoding="utf-8"?>
<!-- Generator: Adobe Illustrator 24.3.0, SVG Export Plug-In . SVG Version: 6.00 Build 0)  -->
<svg version="1.1" id="Capa_1" xmlns="http://www.w3.org/2000/svg" xmlns:xlink="http://www.w3.org/1999/xlink" x="0px" y="0px"
	 viewBox="0 0 199.4 498" style="enable-background:new 0 0 199.4 498;" xml:space="preserve">
<style type="text/css">
	.st0{clip-path:url(#SVGID_2_);}
	.st1{fill:#F86D31;}
</style>
<g>
	<defs>
		<rect id="SVGID_1_" x="0.1" y="-0.3" width="199.3" height="498.3"/>
	</defs>
	<clipPath id="SVGID_2_">
		<use xlink:href="#SVGID_1_"  style="overflow:visible;"/>
	</clipPath>
	<g class="st0">
		<path class="st1" d="M123,352C123,352,123,352,123,352l-0.2,127.8c-0.1,1,0.6,1.9,1.6,1.9h31.4c1.5,0,2.2-1.8,1.2-2.9l0,0
			c-0.1-0.1-0.2-0.2-0.3-0.2c-2.8-1.8-6.1-2.6-9.4-2.4c-4.3,0.4-8.1-2.6-8.9-6.9c-0.1-0.8-0.1-1.6,0-2.3l6.9-278.3
			c0-1.7,0.4-3.3,1-4.8c0.7-1.5,1.6-2.9,2.8-4.1c1.2-1.2,2.6-2.1,4.2-2.7c1.6-0.6,3.2-0.9,4.9-0.9c1.7,0,3.4,0.3,4.9,1
			c1.6,0.6,3,1.6,4.2,2.8c1.2,1.2,2.1,2.6,2.8,4.1c0.7,1.5,1,3.2,1,4.8v107.3c0,1.6,0.6,3.2,1.8,4.3c2.4,2.4,6.3,2.4,8.8,0
			c1.2-1.1,1.8-2.7,1.8-4.3V175.6c0.3-4.2-0.4-8.4-2.1-12.2c-1.6-3.9-4.2-7.3-7.4-9.9c-0.1,0-0.1-0.1-0.2-0.1
			c-8.8-6.2-19.6-9.2-30.4-8.2c0,0-0.1,0-0.1,0l-86,0c-10.7-0.6-21.3,2.1-30.4,7.8c0,0-0.1,0.1-0.1,0.1c-3.4,2.4-6.2,5.7-7.9,9.5
			c-1.8,3.8-2.5,8-2.2,12.1c0,0,0,0.1,0,0.1l0,122c-0.1,1.7,0.6,3.3,1.8,4.4c2.3,2.3,6,2.3,8.3,0c0.1-0.1,0.2-0.2,0.3-0.3
			c1.1-1.1,1.6-2.7,1.6-4.2V188.4c0-1.7,0.3-3.3,1-4.9c0.6-1.5,1.6-3,2.8-4.1c1.2-1.2,2.6-2.1,4.2-2.7c1.6-0.6,3.3-1,5-0.9
			c1.7,0,3.4,0.3,4.9,1c1.6,0.6,3,1.6,4.2,2.8c1.2,1.2,2.1,2.6,2.8,4.1c0.7,1.5,1,3.2,1,4.8l6.7,279.2c0,4.5-3.6,8.2-8.1,8.2
			c-0.4,0-0.7,0-1.1-0.1c-3.4-0.3-6.8,0.5-9.6,2.4c-0.3,0.3-0.6,0.6-0.9,1c-0.8,1.1,0.1,2.6,1.4,2.6h31.8c0.9,0,1.7-0.7,1.7-1.7
			V306.4c-0.1-2.4,1-4.7,3-6.2c1.8-1.6,4.2-2.2,6.6-1.9c3.3,0,5.9,0.5,9,0.5c3.1,0,16.2,0,19.1-0.5c2.3-0.2,4.6,0.6,6.3,2.2
			c0.5,0.4,0.9,0.9,1.2,1.4c0.8,1.1-1.3,1.6-0.9,0.3l0.9-0.3C122.4,300,123.3,350,123,352z M121.7,498c-3-3-4.6-4.6-7.6-7.6
			l-0.6-168.6c0-7.8,0.5-7.8-2.4-7.4c0,0,0,0,0,0c-8.2,0.4-2.6,0-6.6,0.4l0,0H91.7c0,0,0,0,0,0v167.8c0.2,4.1-1.3,8.1-4.1,11.1
			c-2.5,2.7-5.9,4.2-9.6,4.2H32.6c-1.3,0-2.6-0.3-3.9-0.8c-1.2-0.5-2.3-1.2-3.3-2.2c-0.9-0.9-1.7-2-2.2-3.2
			c-0.5-1.2-0.8-2.5-0.8-3.8v-3.9c-0.4-6.9,2.4-13.5,7.6-18c3.6-3.2,8-5.4,12.8-6.3c0,0,0,0,0,0l-3.4-150.2c0,0,0,0,0,0
			c-2,2.9-4.8,5.3-8,6.9c-3.2,1.6-6.7,2.5-10.3,2.5c-3,0-6-0.5-8.8-1.6c-2.8-1.1-5.3-2.8-7.4-4.9c-2.1-2.1-3.8-4.6-4.9-7.3
			c-1.1-2.7-1.7-5.7-1.6-8.6V174.4c-0.4-6.8,1-13.7,4.1-19.8c3-6.2,7.6-11.5,13.3-15.3c11.9-7.5,25.9-11.1,40-10.4h86c0,0,0,0,0,0
			c14.4-1,28.7,3.1,40.3,11.6c5.1,4.2,9.2,9.5,11.9,15.6c2.7,6,4,12.6,3.6,19.2V296c0,2.4-0.3,4.7-1,7c-0.7,2.3-1.8,4.4-3.2,6.3
			c-1.4,1.9-3.1,3.6-5,5c-8,5.8-18.9,5.9-27,0.2c-1.9-1.4-3.7-3-5.1-5c0,0,0,0,0,0l-3.7,150.2c0,0,0,0,0,0c5,0.7,9.6,2.8,13.5,6.1
			c5.1,4.5,7.9,11.1,7.5,17.8v4.2c0,1.3-0.3,2.6-0.8,3.8c-0.5,1.2-1.3,2.3-2.2,3.2c-1,0.9-2.1,1.7-3.3,2.2c-1.2,0.5-2.6,0.8-3.9,0.8
			L121.7,498z M99.7,15.8c-4.4,0-8.8,0.9-12.9,2.6c-4.1,1.7-7.8,4.2-10.9,7.3c-1.6,1.5-3,3.2-4.2,5.1C67.9,36.3,66,42.7,66,49.3
			v20.5c0.1,6.5,2.1,12.8,5.8,18.2c1.8,2.7,4.1,5.1,6.6,7.1c2.6,2,5.4,3.7,8.4,4.9c9.3,3.8,19.7,3.3,28.6-1.3
			c2.9-1.5,5.6-3.4,7.9-5.7c6.4-6.1,9.8-14.7,9.6-23.5V49c0-4.3-0.9-8.6-2.5-12.6c-1.7-4-4.1-7.6-7.2-10.7
			c-3.1-3.1-6.7-5.5-10.8-7.2C108.4,16.8,104,15.9,99.7,15.8L99.7,15.8z M99.7,119.1c-6.6,0-13.1-1.3-19.2-3.8
			c-6.1-2.5-11.6-6.1-16.3-10.7c-2.3-2.3-4.4-4.8-6.2-7.5c-3.7-5.4-6.2-11.4-7.5-17.8c-0.6-3.2-1-6.4-1-9.6V49.3
			c0-6.5,1.3-12.9,3.8-18.9c2.5-6,6.2-11.4,10.9-16c4.7-4.6,10.2-8.2,16.3-10.7c15.5-6.3,33.1-4.6,47.1,4.6c2.7,1.8,5.3,3.8,7.6,6.1
			c4.6,4.6,8.3,10,10.9,16c2.5,6,3.8,12.4,3.8,18.9v20.2c0.1,9.8-2.8,19.4-8.3,27.6c-1.8,2.7-3.9,5.2-6.2,7.5
			c-2.3,2.3-4.9,4.4-7.6,6.2c-5.5,3.6-11.7,6.1-18.2,7.4C106.3,118.8,103,119.1,99.7,119.1z"/>
	</g>
</g>
</svg>
