<svg xmlns="http://www.w3.org/2000/svg" width="430" height="430" style="width:100%;height:100%;transform:translate3d(0,0,0);content-visibility:visible" viewBox="0 0 430 430"><defs><clipPath id="a"><path d="M0 0h430v430H0z"/></clipPath><clipPath id="c"><path d="M0 0h430v430H0z"/></clipPath><clipPath id="b"><path d="M0 0h430v430H0z"/></clipPath></defs><g fill="none" clip-path="url(#a)"><g stroke="#FFF" stroke-linecap="round" stroke-linejoin="round" stroke-width="12.04" clip-path="url(#b)" style="display:block"><g style="display:block"><path d="M348.433 321.746H81.567v53.374h266.866zm-242.603.004V178.005c0-9.044 7.331-16.375 16.375-16.375q0 0 0 0c9.044 0 16.375-7.331 16.375-16.375v-12.976c0-42.019 33.509-76.913 75.526-77.394 21.454-.246 40.909 8.36 54.934 22.375 13.83 13.84 22.38 32.94 22.38 54.04v13.955c0 9.044 7.331 16.375 16.375 16.375q0 0 0 0c9.044 0 16.375 7.331 16.375 16.375V321.75m-55.797-29.69H161.627V168h106.746z" class="primary"/><path d="M186.823 203.696h56.353m-56.353 52.668h56.353m-56.353-26.334h23.02m23.001 0h10.332" class="secondary"/></g><path d="M492 193v25.5m0-25.5v25.5" class="secondary" style="display:block"/></g><g clip-path="url(#c)" style="display:none"><g style="display:none"><path class="secondary"/><path class="secondary"/><path class="secondary"/><path class="secondary"/></g><path class="primary" style="display:none"/></g></g></svg>