<?xml version="1.0" encoding="UTF-8"?>
<svg version="1.1" viewBox="0 0 2044 2048" width="1280" height="1280" xmlns="http://www.w3.org/2000/svg">
<path transform="translate(1e3)" d="m0 0 5 1v2l3-3h19l1 4h87l1 3 28 1 4 1v2l26 1 6 3 18 1 6 3 13 1 8 3 11 1 8 3 12 2 5 2 11 2 5 2 11 2 9 3 8 3 11 2 9 3 7 3 9 3 11 3 9 3 7 3 9 3 10 5 8 2 12 6 8 2 17 8 11 6 8 2 17 8 19 10 13 7 9 6 16 8 10 7 13 7 9 6 10 7 13 7 9 6 11 9 11 7 10 7 8 7 8 5 7 6v2l4 2 9 6 7 6v2l4 2 9 6 11 11 4 3v2l4 2 9 6 7 6 4 4v2l4 2v2l4 2v2l4 2v2l4 2v2l4 2v2h2v2h2v2h2v2h2v2l4 2v2h2v2h2v2h2v2h2l6 7 13 13 3 6 8 9 13 13 3 6 11 12 3 4 3 5 9 10 4 5 3 5 9 11 3 5 7 11 9 11 8 14 7 11 6 9 7 10 8 14 6 10 11 21 8 16 8 13 7 14 6 16 10 19 5 12 7 20 5 12 5 13 6 15 3 10 3 11 3 7 2 7 2 6 1 8 3 7 2 7 2 6 2 10 2 6 1 9 2 2 2 14 2 2 2 18 2 2 2 18 2 2 1 5 1 17 2 1 1 6 1 21 2 1 1 6v30h4v96h4l-1 4h-3v83l-2 5-1 1-1 28-1 10-2 2-1 22-2 5-1 1-1 15-3 5-1 19-3 5-1 15-1 4h-2l-1 12-3 6-1 11-3 5-2 14h-2l-1 9-3 5-2 13-2 3-2 9-3 9-3 7-6 20-6 13-4 11-5 12-4 10-9 22-8 16-10 21-3 8-8 16-6 9-8 16-7 10-8 15-3 6-6 9-7 10-4 6-7 11-5 7-3 5-5 7-3 5-5 6-2 5-8 9-4 4h-2l-2 7-7 7-1 2h-2l-2 7-8 9-5 4-3 7-10 10-6 7-8 7-4 8-30 30-5 6-7 6-23 23h-5l-2 4-6 5-19 19-5 2-10 9-5 5-5 2-10 9-6 5-7 4-7 7-6 3-6 5-6 3-6 5-6 3-6 5-6 3-6 5-6 3-6 5-6 3-9 6-13 7-5 4-15 8-11 5h-6l-18-18v-19l4-11 3-9 1-16 3-6-22-1-2-4h-3v4l-4-1v-2h-2l-6-7-4-8 1-6 16-15 6-7 1-18h-7l-7-3-9-1-1-1v-14l1-1 9-1 4-3 19-1 5-3 7-3 1-1 9-2 16-8 19-10 6-3 3-4 7-14 6-10 7-10 4-5 3-6 4-5h2l2-4 5-6 3-5 9-10 3-6 5-5 3-4h2l5-10 10-11v-6h-2l-1-2-2-13-2-3-1-16-3-4-1-12-3-4 1-6 3-1 2-4 5-9 6-14 59-1 7-4 10-7 7-6 5-5 6-3 4-4 1-23 3-5 1-36 3-4 1-32 3-4 1-16 7-8 3-6 4-5 4-4h2l2-4 5-8 8-9 3-6 5-7 1-10 3-7v-15l-10-4-10-3-7-2-5-3-6-2-3-6-6-8-6-12-6-8-1-4-53-1-3-2v-2h-2l-1 3-4-1-2-1-27-1-7-1-2-2-9-2-10-5-12-4-16-6-5-3-5-2-1-1-1-36-3-6-2-11-5-9-5-7-8-16-1-4-66-1-3-7-6-8-6-12-6-8-4-7-7-10-4-5-30-15h-2l-1 15-2 1-9 1-1 2-17 1h-30l-4-5-3-6-6-8-3-6-2-2-8-3-1-1-17-2-5-2-15-2-4-2h-16l-7 7-3 7-23 23-4 7-8 10-2 1-17-1-5-2-15-2-5-2-19-2-3-2-13-1-1-1-1-21-3-4-1-57-3-4-1-4-16-1-8-2-1-1-16-1-7-2-6-3 1-4 3-6 6-8 8-15 3-7 1-5-3-5-2-9-3-7-12 6-4 4-8 4-4 4-6 3-6 5-6 3-6 5-6 3-8 6-10 4h-30l-2-4h-14l-2-4h-2l-4-9-3-10-5-10-1-1v-8l3-5 1-10 3-7 3-9 24-48 7-4 48-24 5-3h117l1 1v34l9 3 30 15 5 3-1-34-3-4v-24l2-3h2l1-3 8-7 5-6h2l2-4 4-4h2l2-4 9-7 15-10 11-7 10-7 15-8 1-1 1-13 3-4 1-12 5-6 8-7 4-5 7-6 6-7h2l2-4 13-13 2-5 4-5 5-4 6-3 9-6 16-8 11-6 9-6 10-5 4-3v-2l-3-2 1-3 7-6 6-7 4-4h2l2-4 8-7 6-3 7-6 2-3 4 2v2h10l4 5 2 6 3-1 7-8 8-7 3-4h2v-3h-14l-4-3-13-1-5-5v-17l5-6h30l8 9 4 8 2 2h23l1-3 17-1 5-5 1-10 7 1 8 4 1 1v12l-10 10-5 1-1 3 2 7 5 10 3 2 10 2 3 2 9 2 4 2 9 1 6 3 9 2 4 2h7l1-17 1-2h2l1-7-9-3-17-9-16-8-6-2v-10l1-1 9-1 4-3 8-1 3-3 10-1v-38l-5-4-6-3-6-5-16-8-2-2-1-46-3-4v-9l-32 16-13 7-10 1h-12l-1-1v-24l3-5 1-14-10-1-6-2-14-2-44-11-12 12-5 1-12 12-1 65-5 2-7 2-6 2-7 3-11 3-5 2-7 2-7 7-1 9-3 4-10 21-5 5h-17l-1-1v-55h-22l-7-2-1-1-20-1-4-3-5-2-5-4v-2l-9-3-3-3-1-10-3-3-1-12-3-4v-5l9-8 15-8 9-6 19-10 9-6 11-6 6-5 8-4 9-2 2-2 10-2 2-2 11-1v-2l7-1 3 8 2 5v15l27-1 1-14 1-1 17-1 3-3 7-1-5-5-6-3-1-1-1-10-3-1v-3l24-1 1-3 9-1 6-5 7-8 7-7 7-4 5-3 30-1 1-3h30l14 15 7 6v2l-8 3-9 5-4 4-23 11-19 10-7 4h-2v3l11 2 5 2 11 2 6 2 10 2 3 2 11 1 3 1v2l18 1 2 1v2h14l5-5 4-9 2-8 2-3 2-6 41-1 5-5 6-14 2-3-1-5-3-3-14-2-3-2-6-2-1-34-8-3-17-9-9-2-26-13-1-1-8-1-3-3-8-3-9-5h-25l-2 2-30 2-2 2-13 2-30 15-3 1-1 30 3 1 1 4v11l-1 1h-9l-5-4h-20l-5-5-1-18-2-2 1-4 9-5 9-8 7-8 8-8 1-2h-35l-2-4-30 1-3 3h-8l-6 2-3 3-1 9-3 4v9l17 1 6 5-3 4-1 14-8 3-1 1-14 1h-21l-1 7-2 3-1 5-5 1h-51l-2 4-2-1-1-9-3-3v-22l1-1 45-1 8-7 5-5 7-8h2l2-4 4-4h2l4-8v-2l-8-2-2-2-7-3v-2l-8 7-21 21h-10l-4-1-1-2-26-1-12-13-3-6-6-8-4-7v-2l-59 1-4 3-7 4-7 7-6 3-10 9-6 3-10 9-6 2v5l4-2h46l5 12v6l-7 6-4 2-2 6-13-1-17-4-17-5-7-3-5-4v-3l-107 1-27 27h-24l-7-4-16-8-10-4-21-7-13-3-16-5h-138l-5 5-10 6-7 7-8 4-4 4-6 3-8 6-7 4-3 3-8 4-13 2-3 2-25 2-6 3-7 1-16 16-1 3h17l3 1v2l11 1 1 1v10l-3 1-72 1-8 7-7 4-5 4-5 1 1 5 7 8 4 3v2l4 2 9 6 7 6v2l59 1 5 3 1-3 5 3h32l6-5 7-8 2-2h89l6 5 6 7 6 5v2h2l6 8 1 40 12 12 8 7 3 4-13 13-6 2-1 22 3 1 1 4v34l-8 9-8 7-3 4-2 5-8 9-7 6-1 2h-2l-2 7-8 9-5 5-3 6-18 18-1 91 9 3 15 6 15 8 1 1 1 76 10 19 3 6 5 6 7 14 5 6 7 14 6 7 2 1 25 1 5 3-1-7 2-8 2-2v-8l-5-9-6-8-4-7-4-5-4-7-4-4-2-5-6-8-4-8-1-19-3-10v-24h19l1 1 1 18 2 1 1 3 1 24 2 2 3 11 6 10 4 5 4 7 4 5 4 7 7 7 3 6 6 8 4 7 4 5 4 7 3 2-1 4-5 6-4 8-2 5-2 3-1 5 3 1 5 7 3 5 5 7 3 5 5 7 3 5 5 7 2 5 2 1v2l18 1 2 1v2l14 1 2 1v2l14 1 2 1v2l14 1 2 1v2l14 1 6 3v-14h3v2l28 1 1 1v15l-3 6-1 5 18 1 2 1v2l17 1 6 3 9 2v2l14 1 6 5 4 4v2h2v2h2v2h2v2h2l6 7 5 5 5 6 3 5 9 9v2l4 2v2h2v2h2l4 4v2l4 2 4 4v2l43 1 1 3 31 1 1 1 1 34 2 1 1 3v23l-9 5-6 5-7 4-7 7-6 3-11 7-5 3-1 56-3 6-2 13-2 3v16l12 13 3 4 3 5 9 10 4 5 3 5 9 10 4 5 3 5 9 10 4 5 3 5 9 11 1 19 6 11 3 2 11 1 7 3 9 3 10 6 10 7 11 7 4 3v2l4 2 9 6 7 6v2l3 1 1 2 1 169 10 2 8 4 1 1-1 9-2 3-1 13-3 7-1 18-3 6v24l4 5 5 5 5 8 8 9 3 6 6 7v26l-1 4-2 1v53l5 9 6 9 10 19 6 9 8 15 4 7 3 3 3 6 5 5 10 7 17 17 9 7 5 3-1 5-11 5-10 4-28 12-11 4-13 5-20 7-7 3-11 3-6 2-8 3-13 3-13 4-18 5-22 5-18 4-30 6-36 6-15 2-17 2-15 1-6 2-26 1h-53l-1 4h-3v-3h-4v3h-20v-4h-60l-24-1-1-1-36-4-40-6-52-10-51-13-40-12-38-13-14-5-7-3-10-4-13-7-9-2-32-16-3-2-9-2-8-4-2-4 5-5 5-3 10-7 24-12 9-3 8-4 9-6 18-9-1-5-5-10-6-6-15-1-1-19-2-1 1-7-2-3-1-9h-9l-3 2-8 1h-11v9l-3 4-1 49-5 5-8 4-4 4-8 4-5 5-25 1-3 3-6-1-1-2-7-3-6-5-7-3-8-5-5-4-7-3-8-5-5-4-6-3-6-5-6-3-8-8-8-4-6-5-5-2-5-4-1-4 7-8 8-7 10-10 2-3h2l2-4 5-6 7-14 3-10 6-11 4-10 3-9 4-8-1-4-1-1-1-11-3-6-2-12-2-4-1-12-6-2-19-19-7-4-7-5-4-5-2-10-2-2-1-65-7-8-6-12-6-8-8-16-1-4-31-1v27l-3 2-1 34-3 2-1 26-1 1-7-1-1-2-42-1-3-3-8-4-2-2v-35l6 3h20l10-9 5-6 6-5v-2l-6-2-9-5-6-5-7-3-8-5-5-4-6-3-1-1-59-1v6l-7 7-2 6-4 5-4 4h-2l-2 7-4 5h-2l-2 7-13 13h-9l-1-1v-19h-19l-3-7-6-8-6-12-6-8-6-12-6-8-8-16 1-5 2-2 3-7 2-3h-15l-5-6-3-7-1-7 11-1 1-83-14 7-14 5-10 4h-5l-5-12-14-43-10-30-6-26-6-17-2-15-2-5-2-15-2-4-2-12-2-6-1-16-3-13-2-17-2-6-1-31-3-1v-71l12-7 8-7 10-10 6-3 7-6v-2l-3-2-1-33-3-4-1-16-11-12-15-15-4-8-5-4 1-3 2-1 1-26 2-6 1-1 1-23 3-5 1-22 4 2 5 4 10 6 5 5 9 6 8 7 8 5 7 6v2l4 2 9 6 9 8 10 4 1-3 10-2 3-2 10-1-2-6-6-8-4-7-7-7-9-5-6-5-7-3-10-6v-2l-6-2-13-7-2-2v-41l3-4 2-6 62-1 1-12 3-5v-48l-7-8-4-5-3-5-9-9 2-4h2l2-4h2l1-3 7-5 8 7 13 13 3 2v2l4 2 5 3 6-10-1-5-6-8-3-5-11-12-14-14-1-6h-9l-6-2-2-1-30-1 2-5 9-17 4-10 3-9 5-9 2-6h5l4 3h16l7-4 10-7 33-22 11-7 10-7 11-7 5-5 4 2 5 6 2 1v2h2l2 3v8l-3 3-2 6-6 6-2 6-2 2-1 30-4 1 1 3 8 7 8 5 8 8 11 7 9 9 8 7 8 5 7 6 5 5 10 6 1 2 5-1 17-9 5-2-1-9-2-4-2-13-2-2-1-16-11-12-13-13-5-4-6-3-16-16-4-3 1-3 7-3 1-1 62-1 1-21 1-2 7-3 2-1 15-1 4-3 7-1-5-5-10-6-3-3-8-4-2-2v-10l1-1h25l2 1v2l22 1 2 1v2l22 1 3 2h3l2-3h2l2-4 5-5 1-5-11-2-10-5-6-2-10-4-5-3-7-3-6-2-4-1-18-9-7-2-4-2-9-4v-2h-26l-2-3-78-1-2-3-34-1v-4l5-5 5-8 8-9 3-6 4-5h2l2-4 5-8 7-8h2l2-4 5-5 2-5 7-7 2-3h2l2-4 9-9 2-5 7-7 2-3h2l2-4 4-4h2l2-4h2l2-4h2l2-4h2l2-4h2l2-4h2l2-4h2l2-4h2l2-4 12-12 8-7 5-4 6-4 9-9 8-7 5-4 8-6 7-7 9-7 48-36 15-10 11-7 12-7 12-8 13-8 10-6 22-12 11-7 54-27 9-3 11-5 9-3 16-8 11-3 2-2 7-3 11-3 2-2 10-2 2-2 10-2 2-2 10-2 2-2 10-2 2-2 14-2 2-2 10-2 2-2 14-2 2-2 14-2 3-2 13-2 4-2 16-2 3-2 13-1 5-2 1-1 17-1 6-2 1-1 18-1 5-2 10-1 30-1 1-3 73-1 5-1zm-267 435-1 1v27l4 4 4 1h15l1-1 2-14 2-4v-8l-1-1-14-2-4-2zm792 109-5 6-1 9-31 1v15l7 3 2 6h15l11-5 5-4v-11h10l8-7 2-3v-5l-1-1-10-2-3-2zm-68 20-9 9v14l1 1h21l2-1v-17l-5-6zm-1216 804-37 37-1 4 16 16 1 2h2l2 7 4 5 2 1 21 1 3 3 24 1 4 3 10 1 2 4h2v2l16 7 3 5 1 8-20 1v32h35l2-3 29-1 7-6 7-8 10-9 8-4h17l1 47h42l2-1v-23h-15l-4 3-1-17-3-4-1-37-15-7-11-6-9-2-32-16-3-2-8-1-4-3-21-10-4-3-5 2-17 9-5 5-30 1v-26l-7-8-17-9z" fill="#FEC100"/>
<path transform="translate(1144,260)" d="m0 0h59l4 9 4 8 1 3h-32l-12-1-2-2-17-1-5-1z" fill="#FEC205"/>
</svg>
