<?xml version="1.0" encoding="utf-8"?>
<!-- Generator: Adobe Illustrator 24.3.0, SVG Export Plug-In . SVG Version: 6.00 Build 0)  -->
<svg version="1.1" id="Capa_1" xmlns="http://www.w3.org/2000/svg" xmlns:xlink="http://www.w3.org/1999/xlink" x="0px" y="0px"
	 viewBox="0 0 500 180" style="enable-background:new 0 0 500 180;" xml:space="preserve">
<style type="text/css">
	.st0{fill:white;}
</style>
<g>
	<g>
		<path class="st0" d="M41.2,77.9v-6l3.6-0.5l15.8-43.3h10.2l15.7,43.3l3.6,0.5v6h-17v-6l3.5-0.6l-2.2-6.8H56.9l-2.2,6.8l3.5,0.6v6
			H41.2z M59.3,57.1h12.8L66.3,40l-0.5-1.5h-0.2l-0.5,1.6L59.3,57.1z"/>
		<path class="st0" d="M92.1,77.9v-6l5.3-1V35.1l-5.3-1v-6h5.3h10h6v6l-6,1v35.1h14.1l0.5-7.3h7.6v14.9H92.1z"/>
		<path class="st0" d="M154.8,78.6c-4.9,0-9.2-1-12.7-3.1c-3.5-2.1-6.2-4.9-8-8.5c-1.9-3.6-2.8-7.9-2.8-12.7v-1.7
			c0-5,0.9-9.3,2.8-13.1c1.8-3.8,4.5-6.7,7.8-8.9c3.4-2.1,7.4-3.2,12-3.2c3.6,0,6.9,0.5,10.1,1.5c3.1,1,5.9,2.5,8.2,4.4v11h-7.4
			l-1.4-6.7c-0.9-0.8-2.1-1.4-3.6-1.9c-1.5-0.5-3.2-0.7-5.2-0.7c-2.8,0-5.2,0.7-7.2,2.2c-2,1.5-3.6,3.5-4.6,6.1
			c-1.1,2.6-1.6,5.6-1.6,9.1v1.8c0,3.4,0.5,6.3,1.6,8.8c1.1,2.5,2.6,4.4,4.7,5.8s4.6,2.1,7.6,2.1c1.8,0,3.4-0.2,4.8-0.5
			c1.5-0.3,2.7-0.7,3.6-1.2v-8.4l-7.1-0.5v-7h17.1v20.1c-2.2,1.6-4.9,2.8-8,3.8C162.5,78.1,158.9,78.6,154.8,78.6z"/>
		<path class="st0" d="M200,78.6c-3.4,0-6.4-0.6-9.2-1.9s-5.1-3-7.1-5.3c-2-2.3-3.5-4.9-4.6-8c-1.1-3.1-1.6-6.4-1.6-10.1v-0.8
			c0-3.6,0.5-7,1.6-10c1.1-3.1,2.6-5.7,4.6-8c2-2.3,4.4-4,7.1-5.3c2.8-1.3,5.8-1.9,9.2-1.9c3.4,0,6.5,0.6,9.2,1.9
			c2.8,1.3,5.2,3,7.2,5.3c2,2.3,3.6,5,4.6,8c1.1,3.1,1.6,6.4,1.6,10v0.8c0,3.6-0.5,7-1.6,10.1c-1.1,3.1-2.6,5.7-4.6,8
			c-2,2.3-4.4,4-7.2,5.3C206.5,78,203.4,78.6,200,78.6z M200,70.8c2.8,0,5.2-0.7,7-2.2s3.3-3.5,4.2-6.1c0.9-2.6,1.4-5.7,1.4-9.2
			v-0.8c0-3.4-0.5-6.5-1.4-9.1c-1-2.6-2.4-4.6-4.3-6.1c-1.9-1.5-4.2-2.2-7-2.2c-2.8,0-5.1,0.7-6.9,2.2c-1.8,1.4-3.2,3.5-4.2,6.1
			c-0.9,2.6-1.4,5.6-1.4,9.1v0.8c0,3.5,0.5,6.5,1.4,9.2c0.9,2.6,2.3,4.7,4.2,6.1C194.9,70.1,197.3,70.8,200,70.8z"/>
		<path class="st0" d="M241.1,77.9v-6l5.4-1.1V35.3l-5.4-1.2v-6h5.4h16.5c4.4,0,8.4,1,11.8,3.1s6,5,8,8.7c1.9,3.7,2.9,7.9,2.9,12.7
			v0.9c0,4.7-0.9,8.9-2.8,12.6c-1.9,3.7-4.5,6.6-7.9,8.7c-3.4,2.1-7.3,3.1-11.7,3.1H241.1z M256.4,70.2h6.1c2.8,0,5.1-0.7,7-2.2
			c1.9-1.4,3.4-3.4,4.4-6c1-2.5,1.5-5.4,1.5-8.7v-1c0-3.3-0.5-6.2-1.5-8.7c-1-2.5-2.5-4.5-4.4-5.9c-1.9-1.4-4.3-2.1-7-2.1h-6.1V70.2
			z"/>
		<path class="st0" d="M288.4,77.9v-6l5.3-1V35.1l-5.3-1v-6h38.6v13.4h-7.7l-0.4-5.7h-15.3v12.5h16.9V56h-16.9v14.2h16.1l0.4-5.9
			h7.6v13.6H288.4z"/>
	</g>
</g>
<g>
	<g>
		<path class="st0" d="M147,147.6v-6l5.3-1v-35.7l-5.3-1v-6h20.6v6l-5.3,1v14.4h20.3v-14.4l-5.3-1v-6h5.3h10h5.3v6l-5.3,1v35.7
			l5.3,1v6h-20.6v-6l5.3-1v-13.7h-20.3v13.7l5.3,1v6H147z"/>
		<path class="st0" d="M200.3,147.6v-6l5.3-1v-35.7l-5.3-1v-6h20.6v6l-5.3,1v35.7l5.3,1v6H200.3z"/>
		<path class="st0" d="M243.7,148.3c-3.7,0-7-0.4-10-1.2c-3-0.8-6-2.2-8.9-4.3v-12h7.7l1.1,7.1c1,0.9,2.4,1.6,4.2,2.1
			c1.8,0.5,3.8,0.8,5.9,0.8c1.8,0,3.3-0.3,4.6-0.8c1.2-0.5,2.2-1.2,2.8-2.1c0.6-0.9,1-2,1-3.3c0-1.2-0.3-2.2-0.9-3.2
			c-0.6-0.9-1.5-1.8-2.9-2.5c-1.3-0.8-3.1-1.5-5.4-2.2c-3.9-1.2-7.2-2.4-9.8-3.8c-2.6-1.4-4.5-3-5.8-5c-1.3-1.9-1.9-4.2-1.9-7
			c0-2.7,0.7-5.1,2.2-7.1c1.5-2.1,3.6-3.7,6.2-4.9s5.7-1.8,9.2-1.8c3.8,0,7.2,0.4,10.2,1.4c3,1,5.5,2.3,7.6,4v11.2h-7.5l-1.3-6.8
			c-0.9-0.5-2-1-3.5-1.4c-1.5-0.4-3.1-0.6-5-0.6c-1.6,0-3,0.2-4.2,0.7c-1.2,0.5-2.2,1.2-2.9,2.1c-0.7,0.9-1.1,2-1.1,3.3
			c0,1.1,0.3,2.1,0.9,2.9c0.6,0.8,1.6,1.6,3.1,2.4c1.4,0.7,3.4,1.5,6,2.4c5.5,1.5,9.7,3.5,12.5,6.1c2.8,2.5,4.3,5.8,4.3,9.9
			c0,2.8-0.8,5.3-2.3,7.3c-1.5,2.1-3.7,3.7-6.4,4.8C250.6,147.8,247.4,148.3,243.7,148.3z"/>
		<path class="st0" d="M276.1,147.6v-6l5.3-1v-35.1h-9.1l-0.5,6h-7.6V97.8h44.4v13.6h-7.6l-0.5-6h-9.1v35.1l5.4,1v6H276.1z"/>
		<path class="st0" d="M333.5,148.3c-3.4,0-6.4-0.6-9.2-1.9c-2.8-1.3-5.1-3-7.1-5.3c-2-2.3-3.5-4.9-4.6-8c-1.1-3.1-1.6-6.4-1.6-10.1
			v-0.8c0-3.6,0.5-7,1.6-10c1.1-3.1,2.6-5.7,4.6-8c2-2.3,4.4-4,7.1-5.3c2.8-1.3,5.8-1.9,9.2-1.9c3.4,0,6.5,0.6,9.2,1.9
			c2.8,1.3,5.2,3,7.2,5.3c2,2.3,3.6,5,4.6,8c1.1,3.1,1.6,6.4,1.6,10v0.8c0,3.6-0.5,7-1.6,10.1c-1.1,3.1-2.6,5.7-4.6,8
			c-2,2.3-4.4,4-7.2,5.3C340,147.7,336.9,148.3,333.5,148.3z M333.5,140.6c2.8,0,5.2-0.7,7-2.2c1.9-1.5,3.3-3.5,4.2-6.1
			c0.9-2.6,1.4-5.7,1.4-9.2v-0.8c0-3.4-0.5-6.5-1.4-9.1c-1-2.6-2.4-4.6-4.3-6.1s-4.2-2.2-7-2.2c-2.8,0-5.1,0.7-6.9,2.2
			c-1.8,1.4-3.2,3.5-4.2,6.1c-0.9,2.6-1.4,5.6-1.4,9.1v0.8c0,3.5,0.5,6.5,1.4,9.2c0.9,2.6,2.3,4.7,4.2,6.1
			C328.4,139.8,330.7,140.6,333.5,140.6z"/>
		<path class="st0" d="M358.8,147.6v-6l5.3-1v-35.7l-5.3-1v-6h23.6c3.8,0,7.1,0.6,9.8,1.8c2.7,1.2,4.8,2.9,6.3,5.1s2.2,4.9,2.2,8
			c0,2.9-0.7,5.5-2.2,7.8c-1.5,2.3-3.5,4.1-6.1,5.4c-2.6,1.3-5.6,2-9,2H374v12.7l5.3,1v6H358.8z M374,120.2h8.1c2.9,0,5-0.6,6.4-1.8
			s2.1-3,2.1-5.3c0-2.3-0.7-4.1-2.1-5.5c-1.4-1.4-3.5-2.1-6.3-2.1H374V120.2z M390.8,147.6l-8.4-21.5l9-2.2l7.2,16.8l4.2,1v6H390.8z
			"/>
		<path class="st0" d="M405.5,147.6v-6l5.3-1v-35.7l-5.3-1v-6h20.6v6l-5.3,1v35.7l5.3,1v6H405.5z"/>
		<path class="st0" d="M428,147.6v-6l3.6-0.5l15.8-43.3h10.2l15.7,43.3l3.6,0.5v6h-17v-6l3.5-0.6l-2.2-6.8h-17.5l-2.2,6.8l3.5,0.6v6
			H428z M446.1,126.8h12.8l-5.8-17.1l-0.5-1.5h-0.2l-0.5,1.6L446.1,126.8z"/>
	</g>
</g>
<rect x="24" y="89.3" class="st0" width="113.9" height="65.8"/>
<rect x="336.9" y="20.5" class="st0" width="113.9" height="65.8"/>
</svg>
