<?xml version="1.0" encoding="utf-8"?>
<!-- Generator: Adobe Illustrator 24.3.0, SVG Export Plug-In . SVG Version: 6.00 Build 0)  -->
<svg version="1.1" id="Layer_2" xmlns="http://www.w3.org/2000/svg" xmlns:xlink="http://www.w3.org/1999/xlink" x="0px" y="0px"
	 viewBox="0 0 500 500" style="enable-background:new 0 0 500 500;" xml:space="preserve">
<style> 
	.ribbon {
		fill: white;
	}
</style> 
<path class="ribbon" d="M280.7,98.4c-4.6-0.8-9.2-1.2-13.7-1.2c-38.8,0-73.1,28-79.9,67.4c-7.5,44.1,22.2,86.1,66.3,93.6
	c44.1,7.5,86.1-22.2,93.6-66.3C354.5,147.9,324.8,105.9,280.7,98.4z M361.6,417.7c-29.5-39.3-44-86.9-51-119.8l-1.2,1.5
	c-0.5,0.5-0.9,1-1.4,1.5c-0.5,0.5-1,0.9-1.5,1.3c-4.3,3.4-9.8,5-15.2,4.6c-2.7-0.2-5.4-1-7.8-2.1c-1.3-0.6-2.2-1.2-3.1-1.7l-2.9-1.7
	l-11.6-6.7l-2.9-1.7c-0.8-0.5-1.6-0.8-2.4-1.1c-1.7-0.6-3.4-0.9-5.2-0.8c-0.9,0-1.8,0.1-2.6,0.3c-0.4,0.1-0.9,0.2-1.3,0.3l-1.6,0.5
	l-6.4,2.1l-12.7,4.1c-0.5,0.2-1.2,0.4-1.8,0.5c-0.6,0.2-1.3,0.3-2,0.4c-1.3,0.2-2.7,0.3-4,0.3c-2.7-0.1-5.3-0.7-7.8-1.7
	c-4.9-2.1-9-6.1-11.2-10.9l-8.2-18.3c-0.5-1-0.9-2.1-1.3-2.8c-0.4-0.8-0.9-1.6-1.5-2.3c0,0-0.1-0.1-0.1-0.1
	c-17.2,28.9-46.9,70.3-88.5,98.4c0,0,36.5,9.5,56.8-1.1c0,0-1.3,13.9-22,47.2c0,0,50.7,7.5,101-75c18.6,106.6,73.5,117,73.5,117
	c-8.7-38.3-5.4-51.8-5.4-51.8C324.1,414.8,361.6,417.7,361.6,417.7z M393.8,179.8c-0.2-0.4-0.5-0.7-0.7-1.1l-0.2-0.3l-0.2-0.3
	l-0.5-0.7l-2-2.7l-3.9-5.4l-3.9-5.4l-2-2.7l-0.5-0.7l-0.6-0.8c-0.4-0.6-0.7-1.1-1-1.7c-1.3-2.3-2.1-4.9-2.4-7.6
	c-0.2-1.3-0.2-2.7-0.1-4c0-0.7,0.1-1.3,0.2-2l0.2-1l0.2-0.8l2.9-13.1l1.4-6.5l0.2-0.8c0.1-0.3,0.1-0.5,0.1-0.8
	c0.1-0.5,0.2-0.9,0.2-1.4c0.1-0.9,0.1-1.8,0-2.7c-0.3-3.6-2.1-7.2-4.9-9.6c-1.4-1.2-3-2.2-4.7-2.8c-0.4-0.2-0.9-0.3-1.5-0.5
	l-1.6-0.5l-3.2-1l-12.7-4.1l-1.6-0.5l-0.8-0.3l-0.4-0.1l-0.5-0.2c-1.2-0.4-2.4-1-3.5-1.6c-2.2-1.3-4.2-3-5.8-5
	c-0.8-1-1.5-2.1-2.1-3.2c-0.6-1.2-1-2.2-1.5-3.2l-2.7-6.1l-5.4-12.2c-1.5-3.5-4.4-6.3-8-7.8c-1.8-0.7-3.6-1.2-5.6-1.2
	c-1,0-1.9,0-2.8,0.2c-0.5,0.1-0.9,0.1-1.4,0.3c-0.5,0.1-0.9,0.2-1.5,0.4l-12.7,4.1l-6.4,2.1l-1.6,0.5c-0.6,0.2-1.2,0.4-1.8,0.5
	c-1.2,0.3-2.5,0.4-3.8,0.5c-2.5,0.1-5.1-0.3-7.5-1.2c-1.2-0.4-2.4-1-3.4-1.6l-17.4-10c-1-0.6-2-1.2-2.8-1.5
	c-1.7-0.9-3.6-1.4-5.6-1.5c-3.9-0.3-7.8,0.9-10.9,3.3c-0.4,0.3-0.7,0.6-1.1,1c-0.3,0.4-0.7,0.7-1,1l-0.9,1.1l-1,1.4l-11.7,16.3
	c-1.4,2-3.2,3.9-5.3,5.3c-2.1,1.4-4.5,2.4-6.9,3c-0.6,0.1-1.2,0.2-1.9,0.3c-0.6,0.1-1.1,0.1-1.7,0.2l-3.3,0.4l-13.3,1.4l-3.3,0.4
	l-0.8,0.1l-0.7,0.1c-0.5,0.1-1,0.1-1.4,0.3c-3.8,0.9-7.1,3.3-9.2,6.6c-1,1.6-1.8,3.4-2.1,5.3c-0.1,0.5-0.1,1-0.2,1.4
	c-0.1,0.5,0,1-0.1,1.4c0,1,0,2.2,0,3.3l0.1,13.4l0,3.3l0,1.7l0,0.9l0,1c-0.1,2.5-0.7,5.1-1.8,7.4c-1,2.3-2.6,4.5-4.4,6.2
	c-0.5,0.5-0.9,0.8-1.3,1.2l-3.7,3.4l-9.9,9L147,152c-0.4,0.4-0.9,0.8-1.2,1.1c-0.7,0.7-1.3,1.4-1.8,2.2c-1.1,1.5-1.9,3.3-2.3,5.1
	c-0.9,3.7-0.3,7.7,1.6,10.9c0.5,0.8,1,1.5,1.7,2.5l2,2.7l4,5.4l4,5.4l2,2.7l0.5,0.7l0.6,0.8c0.4,0.5,0.7,1.1,1,1.7
	c1.3,2.3,2.1,4.8,2.4,7.3c0.2,1.3,0.2,2.6,0.1,3.9c0,0.6-0.1,1.3-0.2,1.9l-0.2,1l-0.2,0.8l-2.7,13.1l-1.3,6.6l-0.2,0.8
	c-0.1,0.3-0.1,0.5-0.1,0.8c-0.1,0.5-0.2,0.9-0.2,1.4c-0.1,0.9-0.1,1.8,0,2.8c0.4,3.7,2.2,7.1,5,9.5c1.4,1.2,3,2.1,4.7,2.7
	c0.2,0.1,0.4,0.2,0.7,0.2l0.8,0.2l1.6,0.5l3.2,1l12.8,4l1.6,0.5l0.8,0.2l0.4,0.1l0.5,0.2c1.3,0.4,2.5,1,3.6,1.6
	c0.5,0.3,0.9,0.6,1.4,0.9c0.2,0.1,0.4,0.3,0.6,0.4c0.2,0.1,0.4,0.3,0.6,0.4c1.3,1,2.4,2.1,3.4,3.3c0.8,1,1.6,2.1,2.2,3.3
	c0.7,1.3,1.1,2.2,1.5,3.2l2.8,6.1l5.6,12.2c1.5,3.3,4.2,5.9,7.6,7.3c1.7,0.7,3.4,1,5.2,1.1c0.9,0,1.8,0,2.7-0.2
	c0.4-0.1,0.9-0.1,1.3-0.3c0.4-0.1,0.8-0.2,1.4-0.4l12.7-4.2l6.3-2.1l1.6-0.5c0.6-0.2,1.3-0.4,1.9-0.5c1.3-0.3,2.7-0.5,4-0.5
	c2.7-0.1,5.4,0.3,8,1.2c1.3,0.4,2.5,1,3.7,1.7l2.9,1.7l11.6,6.6l2.9,1.7c1,0.5,2,1.2,2.7,1.5c1.6,0.8,3.3,1.2,5,1.4
	c3.5,0.3,7.1-0.8,9.8-3l1-0.9l0.9-0.9l0.8-1l1-1.4l3.9-5.4l7.8-10.9l0.2-0.3l0.3-0.4c0.2-0.3,0.4-0.5,0.6-0.8c0.4-0.5,0.9-1,1.4-1.5
	c1-1,2-1.8,3.2-2.6c2.3-1.5,4.8-2.6,7.5-3.2c0.7-0.1,1.3-0.3,2-0.3l0.9-0.1l0.8-0.1l3.3-0.4l6.7-0.7l6.7-0.7l3.3-0.4l0.8-0.1
	l0.7-0.1c0.4-0.1,0.9-0.1,1.3-0.3c3.4-0.8,6.4-3,8.2-5.9c0.9-1.4,1.6-3.1,2-4.7c0.1-0.4,0.1-0.9,0.2-1.3c0.1-0.4,0-0.9,0.1-1.3
	c0-1,0-2.2,0-3.3l-0.1-13.4l0-3.3l0-1.7v-0.9l0-1c0.1-2.7,0.8-5.4,1.9-7.9c1.1-2.5,2.7-4.7,4.7-6.6c0.5-0.5,0.9-0.8,1.3-1.2l1.2-1.1
	l2.5-2.2l10-8.9l1.2-1.1c0.4-0.4,0.9-0.8,1.1-1c0.6-0.6,1.2-1.3,1.7-2c1-1.4,1.8-3,2.2-4.7C396,186.6,395.5,182.9,393.8,179.8z
	 M354.9,193.4c-7.4,43.4-45.2,74.1-87.8,74.1c-5,0-10-0.4-15.1-1.3c-48.5-8.3-81.1-54.5-72.8-102.9h0c8.3-48.5,54.5-81.1,102.9-72.8
	C330.5,98.8,363.2,144.9,354.9,193.4z"/>
</svg>
