<svg xmlns="http://www.w3.org/2000/svg" viewBox="0 0 45.25 45.25">
  <g class="color1" style="fill:white">
    <path d="M22.63,0A22.63,22.63,0,1,0,45.25,22.63,22.62,22.62,0,0,0,22.63,0Zm9.64,37.32-.94-1.62a1,1,0,0,0-1.73,1l.93,1.62a17.44,17.44,0,0,1-6.9,1.85V38.29a1,1,0,0,0-2,0v1.87a17.44,17.44,0,0,1-6.9-1.85l.93-1.62a1,1,0,0,0-1.73-1L13,37.32a17.71,17.71,0,0,1-5.05-5.05l1.62-.94a1,1,0,0,0-1-1.73l-1.62.93a17.43,17.43,0,0,1-1.85-6.9H7a1,1,0,1,0,0-2H5.09a17.43,17.43,0,0,1,1.85-6.9l1.62.93a1,1,0,0,0,1-1.73L7.93,13A17.71,17.71,0,0,1,13,7.93l.94,1.62a1,1,0,1,0,1.73-1l-.93-1.62a17.44,17.44,0,0,1,6.9-1.85V7a1,1,0,1,0,2,0V5.09a17.44,17.44,0,0,1,6.9,1.85l-.93,1.62a1,1,0,0,0,1.73,1l.94-1.62A17.71,17.71,0,0,1,37.32,13l-1.62.94a1,1,0,0,0,1,1.73l1.62-.93a17.43,17.43,0,0,1,1.85,6.9H38.29a1,1,0,0,0,0,2h1.87a17.43,17.43,0,0,1-1.85,6.9l-1.62-.93a1,1,0,0,0-1,1.73l1.62.94A17.71,17.71,0,0,1,32.26,37.32Z"></path>
    <path d="M27.89,19.25l-5.67,2.46-.09.06a.85.85,0,0,0-.3.27.93.93,0,0,0-.08.09L17,30.45a1,1,0,0,0,1.73,1l4.64-8,5.36-2.33a1,1,0,1,0-.8-1.83Z"></path>
  </g>
</svg>